<svg width="18" height="18" viewBox="0 0 18 18" fill="none" xmlns="http://www.w3.org/2000/svg">
<path d="M3.6967 14.3033C4.74559 15.3522 6.08197 16.0665 7.53682 16.3559C8.99168 16.6453 10.4997 16.4968 11.8701 15.9291C13.2406 15.3614 14.4119 14.4001 15.236 13.1668C16.0601 11.9334 16.5 10.4834 16.5 9C16.5 7.51664 16.0601 6.06659 15.236 4.83322C14.4119 3.59986 13.2406 2.63856 11.8701 2.0709C10.4997 1.50325 8.99168 1.35472 7.53682 1.64411C6.08197 1.9335 4.74559 2.6478 3.6967 3.6967" stroke="#0867EC" stroke-width="1.5"/>
<path d="M11.25 9L11.8357 8.53148L12.2105 9L11.8357 9.46852L11.25 9ZM2.25 9.75C1.83579 9.75 1.5 9.41421 1.5 9C1.5 8.58579 1.83579 8.25 2.25 8.25V9.75ZM8.83565 4.78148L11.8357 8.53148L10.6643 9.46852L7.66435 5.71852L8.83565 4.78148ZM11.8357 9.46852L8.83565 13.2185L7.66435 12.2815L10.6643 8.53148L11.8357 9.46852ZM11.25 9.75H2.25V8.25H11.25V9.75Z" fill="#0867EC"/>
</svg>
