<svg width="20" height="22" viewBox="0 0 20 22" fill="none" xmlns="http://www.w3.org/2000/svg">
<path d="M4.10712 16.8925C5.27255 18.058 6.75741 18.8516 8.37392 19.1732C9.99043 19.4947 11.666 19.3297 13.1887 18.699C14.7114 18.0682 16.0129 17.0001 16.9286 15.6297C17.8443 14.2593 18.333 12.6481 18.333 11C18.333 9.35178 17.8443 7.74062 16.9286 6.37021C16.0129 4.9998 14.7114 3.93169 13.1887 3.30096C11.666 2.67023 9.99043 2.50521 8.37392 2.82675C6.75741 3.14829 5.27256 3.94196 4.10712 5.1074" stroke="white" stroke-width="1.5"/>
<path d="M12.5 11L13.0857 10.5315L13.4605 11L13.0857 11.4686L12.5 11ZM2.5 11.75C2.08579 11.75 1.75 11.4143 1.75 11C1.75 10.5858 2.08579 10.25 2.5 10.25V11.75ZM9.75232 6.36485L13.0857 10.5315L11.9143 11.4686L8.58102 7.3019L9.75232 6.36485ZM13.0857 11.4686L9.75232 15.6352L8.58102 14.6982L11.9143 10.5315L13.0857 11.4686ZM12.5 11.75H2.5V10.25H12.5V11.75Z" fill="white"/>
</svg>
