<svg width="41" height="50" viewBox="0 0 41 50" fill="none" xmlns="http://www.w3.org/2000/svg">
<path d="M27.6601 36.6687L39 48M30.875 28.9292C30.875 34.9652 25.9781 39.8584 19.9375 39.8584C13.8969 39.8584 9 34.9652 9 28.9292C9 22.8932 13.8969 18 19.9375 18C25.9781 18 30.875 22.8932 30.875 28.9292Z" stroke="#005BFF" stroke-width="3" stroke-linecap="round" stroke-linejoin="round"/>
<path d="M20.5 48H3C2.44772 48 2 47.5523 2 47V6C2 5.44772 2.44772 5 3 5H38C38.5523 5 39 5.44772 39 6V28.5" stroke="#005BFF" stroke-width="3" stroke-linecap="round"/>
<path d="M12 3.62648C12 2.7282 12.7282 2 13.6265 2H28.3735C29.2718 2 30 2.7282 30 3.62648V11H12V3.62648Z" fill="white" stroke="#005BFF" stroke-width="3"/>
<path d="M10 29.2H13.9231L17.1923 26L19.8077 34L22.4231 29.2H27" stroke="#005BFF" stroke-width="2" stroke-linecap="round" stroke-linejoin="round"/>
</svg>
