<svg width="50" height="50" viewBox="0 0 50 50" fill="none" xmlns="http://www.w3.org/2000/svg">
<path d="M17.835 24.784L14.9218 25.3064C12.7993 25.5579 10.6584 25.1816 8.76955 24.2253C6.88074 23.2688 5.32881 21.7751 4.30985 19.9328C3.29089 18.0907 2.85065 15.9826 3.04474 13.8751C3.23883 11.7676 4.05855 9.75513 5.40032 8.09214C6.74208 6.42914 8.54569 5.19018 10.5832 4.53183C12.6207 3.87347 14.8007 3.82526 16.8477 4.39329C18.8948 4.96132 20.7169 6.1201 22.084 7.7232C23.4511 9.32629 24.3017 11.3017 24.5283 13.4L25.4717 33.6001C25.6984 35.6983 26.549 37.6737 27.9161 39.2768C29.2831 40.88 31.1053 42.0387 33.1523 42.6067C35.1993 43.1747 37.3793 43.1265 39.4168 42.4682C41.4544 41.8098 43.258 40.5709 44.5997 38.9079C45.9415 37.2449 46.7612 35.2325 46.9553 33.125C47.1493 31.0174 46.7091 28.9093 45.6902 27.0671C44.6712 25.2249 43.1193 23.7312 41.2305 22.7748C39.3416 21.8183 37.2008 21.4421 35.0783 21.6936L32.165 22.2159" stroke="white" stroke-width="5" stroke-linecap="round" stroke-linejoin="round"/>
<path d="M14 20L19 24.9658L15.1677 31" stroke="white" stroke-width="5" stroke-linecap="round" stroke-linejoin="round"/>
<path d="M36 28L30 23.0343L34.5987 17" stroke="white" stroke-width="5" stroke-linecap="round" stroke-linejoin="round"/>
<path d="M17.835 24.784L14.9218 25.3064C12.7993 25.5579 10.6584 25.1816 8.76955 24.2253C6.88074 23.2688 5.32881 21.7751 4.30985 19.9328C3.29089 18.0907 2.85065 15.9826 3.04474 13.8751C3.23883 11.7676 4.05855 9.75513 5.40032 8.09214C6.74208 6.42914 8.54569 5.19018 10.5832 4.53183C12.6207 3.87347 14.8007 3.82526 16.8477 4.39329C18.8948 4.96132 20.7169 6.1201 22.084 7.7232C23.4511 9.32629 24.3017 11.3017 24.5283 13.4L25.4717 33.6001C25.6984 35.6983 26.549 37.6737 27.9161 39.2768C29.2831 40.88 31.1053 42.0387 33.1523 42.6067C35.1993 43.1747 37.3793 43.1265 39.4168 42.4682C41.4544 41.8098 43.258 40.5709 44.5997 38.9079C45.9415 37.2449 46.7612 35.2325 46.9553 33.125C47.1493 31.0174 46.7091 28.9093 45.6902 27.0671C44.6712 25.2249 43.1193 23.7312 41.2305 22.7748C39.3416 21.8183 37.2008 21.4421 35.0783 21.6936L32.165 22.2159" stroke="#000025" stroke-width="3" stroke-linecap="round" stroke-linejoin="round"/>
<path d="M14 20L19 24.9658L15.1677 31" stroke="#000025" stroke-width="2.88462" stroke-linecap="round" stroke-linejoin="round"/>
<path d="M36 28L30 23.0343L34.5987 17" stroke="#000025" stroke-width="2.88462" stroke-linecap="round" stroke-linejoin="round"/>
</svg>
