<svg width="50" height="50" viewBox="0 0 50 50" fill="none" xmlns="http://www.w3.org/2000/svg">
<g clip-path="url(#clip0_388_552)">
<path d="M45 15.4869C43.2515 13.3859 40.7498 11.9923 37.9883 11.5807C36.9303 8.72541 34.8648 6.31969 32.1529 4.78328C29.4411 3.24689 26.2552 2.67754 23.1521 3.17559C20.0492 3.67361 17.2265 5.20732 15.1775 7.50785C13.1285 9.80839 11.9835 12.7298 11.9427 15.7614C9.57093 15.7614 7.29633 16.6693 5.61925 18.2856C3.94216 19.9021 3 22.0949 3 24.3807C3 26.6668 3.94216 28.8591 5.61925 30.4754C7.29633 32.092 9.57093 33 11.9427 33" stroke="white" stroke-width="5" stroke-linecap="round" stroke-linejoin="round"/>
<path d="M28.37 44H22.125C20.3991 44 19 42.6009 19 40.875V22.125C19 20.3991 20.3991 19 22.125 19H40.875C42.6009 19 44 20.3991 44 22.125V28.9956" stroke="white" stroke-width="5" stroke-linecap="round"/>
<path d="M19 27H44" stroke="white" stroke-width="5" stroke-linecap="round"/>
<path d="M37.4446 32.0369C37.0771 32.9189 36.0466 33.3173 35.1791 32.9169C33.7437 32.2545 32.2545 33.7437 32.9169 35.1791C33.3173 36.0466 32.9189 37.0771 32.0369 37.4446C30.6544 38.0207 30.6544 39.9793 32.0369 40.5554C32.9189 40.9229 33.3173 41.9534 32.9169 42.8209C32.2545 44.2563 33.7437 45.7455 35.1791 45.083C36.0466 44.6826 37.0771 45.081 37.4446 45.963C38.0207 47.3457 39.9793 47.3457 40.5554 45.963C40.9229 45.081 41.9534 44.6826 42.8209 45.083C44.2563 45.7455 45.7455 44.2563 45.083 42.8209C44.6826 41.9534 45.081 40.9229 45.963 40.5554C47.3457 39.9793 47.3457 38.0207 45.963 37.4446C45.081 37.0771 44.6826 36.0466 45.083 35.1791C45.7455 33.7437 44.2563 32.2545 42.8209 32.9169C41.9534 33.3173 40.9229 32.9189 40.5554 32.0369C39.9793 30.6544 38.0207 30.6544 37.4446 32.0369Z" stroke="white" stroke-width="5" stroke-linecap="round" stroke-linejoin="round"/>
<path d="M41 39C41 40.1046 40.1046 41 39 41C37.8954 41 37 40.1046 37 39C37 37.8954 37.8954 37 39 37C40.1046 37 41 37.8954 41 39Z" stroke="white" stroke-width="4"/>
</g>
<path d="M45 15.4869C43.2515 13.3859 40.7498 11.9923 37.9883 11.5807C36.9303 8.72541 34.8648 6.31969 32.1529 4.78328C29.4411 3.24689 26.2552 2.67754 23.1521 3.17559C20.0492 3.67361 17.2265 5.20732 15.1775 7.50785C13.1285 9.80839 11.9835 12.7298 11.9427 15.7614C9.57093 15.7614 7.29633 16.6693 5.61925 18.2856C3.94216 19.9021 3 22.0949 3 24.3807C3 26.6668 3.94216 28.8591 5.61925 30.4754C7.29633 32.092 9.57093 33 11.9427 33" stroke="#000025" stroke-width="2.88462" stroke-linecap="round" stroke-linejoin="round"/>
<path d="M28.37 44H22.125C20.3991 44 19 42.6009 19 40.875V22.125C19 20.3991 20.3991 19 22.125 19H40.875C42.6009 19 44 20.3991 44 22.125V28.9956" stroke="#000025" stroke-width="2.88462" stroke-linecap="round"/>
<path d="M19 27H44" stroke="#000025" stroke-width="2.88462" stroke-linecap="round"/>
<path d="M37.4446 32.0369C37.0771 32.9189 36.0466 33.3173 35.1791 32.9169C33.7437 32.2545 32.2545 33.7437 32.9169 35.1791C33.3173 36.0466 32.9189 37.0771 32.0369 37.4446C30.6544 38.0207 30.6544 39.9793 32.0369 40.5554C32.9189 40.9229 33.3173 41.9534 32.9169 42.8209C32.2545 44.2563 33.7437 45.7455 35.1791 45.083C36.0466 44.6826 37.0771 45.081 37.4446 45.963C38.0207 47.3457 39.9793 47.3457 40.5554 45.963C40.9229 45.081 41.9534 44.6826 42.8209 45.083C44.2563 45.7455 45.7455 44.2563 45.083 42.8209C44.6826 41.9534 45.081 40.9229 45.963 40.5554C47.3457 39.9793 47.3457 38.0207 45.963 37.4446C45.081 37.0771 44.6826 36.0466 45.083 35.1791C45.7455 33.7437 44.2563 32.2545 42.8209 32.9169C41.9534 33.3173 40.9229 32.9189 40.5554 32.0369C39.9793 30.6544 38.0207 30.6544 37.4446 32.0369Z" stroke="#000025" stroke-width="2.88462" stroke-linecap="round" stroke-linejoin="round"/>
<path d="M41 39C41 40.1046 40.1046 41 39 41C37.8954 41 37 40.1046 37 39C37 37.8954 37.8954 37 39 37C40.1046 37 41 37.8954 41 39Z" stroke="#000025" stroke-width="1.92308"/>
<defs>
<clipPath id="clip0_388_552">
<rect width="50" height="50" fill="white"/>
</clipPath>
</defs>
</svg>
