<svg width="50" height="50" viewBox="0 0 50 50" fill="none" xmlns="http://www.w3.org/2000/svg">
<path d="M42.6377 15.0969L34.9064 19.8409C34.604 20.0265 34.2249 20.0265 33.9224 19.8409L25.3209 14.563C25.0184 14.3774 24.6393 14.3774 24.3368 14.563L15.7012 19.8619C15.4169 20.0363 15.2432 20.3486 15.2432 20.6854V30.2913C15.2432 30.6466 15.4363 30.973 15.7456 31.1404L24.3738 35.8119C24.6575 35.9655 24.9989 35.9631 25.2805 35.8055L42.5909 26.121C43.224 25.7668 44 26.2293 44 26.9622V36.4043C44 36.945 31.8011 43.4742 25.2802 46.8933C24.9964 47.0422 24.661 47.0343 24.3824 46.8756L6.48451 36.6802C6.18523 36.5098 6 36.1889 6 35.841V14.8069C6 14.4683 6.17551 14.1546 6.46221 13.9807L24.3455 3.1366C24.6435 2.95587 25.0151 2.95438 25.3145 3.13272L42.6271 13.4433C43.2472 13.8127 43.253 14.7193 42.6377 15.0969Z" stroke="white" stroke-width="5"/>
<path d="M42.6377 15.0969L34.9064 19.8409C34.604 20.0265 34.2249 20.0265 33.9224 19.8409L25.3209 14.563C25.0184 14.3774 24.6393 14.3774 24.3368 14.563L15.7012 19.8619C15.4169 20.0363 15.2432 20.3486 15.2432 20.6854V30.2913C15.2432 30.6466 15.4363 30.973 15.7456 31.1404L24.3738 35.8119C24.6575 35.9655 24.9989 35.9631 25.2805 35.8055L42.5909 26.121C43.224 25.7668 44 26.2293 44 26.9622V36.4043C44 36.945 31.8011 43.4742 25.2802 46.8933C24.9964 47.0422 24.661 47.0343 24.3824 46.8756L6.48451 36.6802C6.18523 36.5098 6 36.1889 6 35.841V14.8069C6 14.4683 6.17551 14.1546 6.46221 13.9807L24.3455 3.1366C24.6435 2.95587 25.0151 2.95438 25.3145 3.13272L42.6271 13.4433C43.2472 13.8127 43.253 14.7193 42.6377 15.0969Z" stroke="#000025" stroke-width="3"/>
</svg>
