<svg width="50" height="50" viewBox="0 0 50 50" fill="none" xmlns="http://www.w3.org/2000/svg">
<path d="M45.9679 4H4.03207C3.46299 4 3 4.38118 3 4.84971V45.1503C3 45.6188 3.46299 46 4.03207 46H45.9679C46.537 46 47 45.6188 47 45.1503V4.84971C47 4.38118 46.537 4 45.9679 4ZM4.03207 4.72833H45.9679C46.0492 4.72833 46.1153 4.78278 46.1153 4.84971V11.1216H3.88464V4.84971C3.88464 4.7828 3.95075 4.72833 4.03207 4.72833ZM45.9679 45.2717H4.03207C3.95075 45.2717 3.88464 45.2172 3.88464 45.1503V11.8499H46.1153V45.1503C46.1153 45.2172 46.0492 45.2717 45.9679 45.2717Z" fill="white" stroke="white" stroke-width="2"/>
<path d="M29.4218 9.31006C30.3378 9.31006 31.0829 8.5676 31.0829 7.65503C31.0829 6.74246 30.3377 6 29.4218 6C28.5059 6 27.7607 6.74246 27.7607 7.65503C27.7607 8.5676 28.5059 9.31006 29.4218 9.31006ZM29.4218 6.74366C29.9262 6.74366 30.3365 7.1525 30.3365 7.65503C30.3365 8.15756 29.9262 8.5664 29.4218 8.5664C28.9174 8.5664 28.5071 8.15756 28.5071 7.65503C28.5071 7.1525 28.9174 6.74366 29.4218 6.74366ZM34.3803 9.31006C35.2963 9.31006 36.0415 8.5676 36.0415 7.65503C36.0415 6.74246 35.2963 6 34.3803 6C33.4644 6 32.7192 6.74246 32.7192 7.65503C32.7192 8.5676 33.4644 9.31006 34.3803 9.31006ZM34.3803 6.74366C34.8847 6.74366 35.2951 7.1525 35.2951 7.65503C35.2951 8.15756 34.8847 8.5664 34.3803 8.5664C33.8759 8.5664 33.4656 8.15756 33.4656 7.65503C33.4656 7.1525 33.8759 6.74366 34.3803 6.74366ZM39.3389 9.31006C40.2548 9.31006 41 8.5676 41 7.65503C41 6.74246 40.2548 6 39.3389 6C38.4229 6 37.6778 6.74246 37.6778 7.65503C37.6778 8.5676 38.4229 9.31006 39.3389 9.31006ZM39.3389 6.74366C39.8432 6.74366 40.2536 7.1525 40.2536 7.65503C40.2536 8.15756 39.8432 8.5664 39.3389 8.5664C38.8345 8.5664 38.4241 8.15756 38.4241 7.65503C38.4241 7.1525 38.8345 6.74366 39.3389 6.74366ZM15.4543 19.8411C15.7927 19.7963 15.8807 19.5847 15.7182 19.2064L13.901 17.3959L15.8042 15.4997C15.9499 15.3544 15.9499 15.119 15.8042 14.9738C15.6584 14.8286 15.4221 14.8286 15.2764 14.9738L13.1093 17.1329C12.9636 17.2781 12.9636 17.5136 13.1093 17.6588L15.1904 19.7322C15.225 19.7668 15.2661 19.7942 15.3114 19.8129C15.3567 19.8316 15.4053 19.8412 15.4543 19.8411ZM35.3819 14.9738C35.2362 14.8286 34.9999 14.8286 34.8541 14.9738C34.7084 15.119 34.7084 15.3544 34.8541 15.4997L36.7573 17.3959L34.9401 19.2064C34.5325 19.6126 35.1885 20.0107 35.4679 19.7322L37.549 17.6588C37.6947 17.5136 37.6947 17.2781 37.549 17.1329L35.3819 14.9738ZM16.9561 20.3146C17.1424 20.4259 17.3153 20.3934 17.4746 20.2168L21.1075 14.9082C21.2236 14.7385 21.1797 14.5072 21.0094 14.3915C20.8391 14.2758 20.6069 14.3196 20.4908 14.4892L16.858 19.7979C16.7418 19.9676 16.7858 20.1989 16.9561 20.3146ZM22.2909 19.7787C22.4777 19.8881 22.6502 19.8538 22.8085 19.6755L23.914 18.0233L25.0195 19.6755C25.2559 20.0289 25.948 19.7224 25.6405 19.263L24.3625 17.353L25.6405 15.443C25.7549 15.2722 25.7085 15.0413 25.537 14.9274C25.3655 14.8135 25.1339 14.8596 25.0195 15.0305L23.914 16.6827L22.8085 15.0305C22.6942 14.8596 22.4625 14.8135 22.2909 14.9274C22.1194 15.0413 22.0731 15.2722 22.1874 15.443L23.4655 17.353L22.1874 19.263C22.0731 19.4339 22.1194 19.6647 22.2909 19.7787ZM27.7867 19.8411H28.6657C29.267 19.8411 29.7561 19.38 29.7561 18.8132V18.0091C29.7561 17.4423 29.2669 16.9812 28.6657 16.9812H27.7867C27.597 16.9812 27.4427 16.8537 27.4427 16.6969V15.8929C27.4427 15.7361 27.597 15.6086 27.7867 15.6086H28.6657C28.8554 15.6086 29.0097 15.7361 29.0097 15.8929C29.0097 16.0982 29.1768 16.2647 29.3829 16.2647C29.589 16.2647 29.7561 16.0982 29.7561 15.8929C29.7561 15.3261 29.267 14.8649 28.6657 14.8649H27.7868C27.1855 14.8649 26.6964 15.3261 26.6964 15.8929V16.6969C26.6964 17.2637 27.1855 17.7249 27.7868 17.7249H28.6657C28.8554 17.7249 29.0097 17.8524 29.0097 18.0091V18.8132C29.0097 18.9699 28.8554 19.0975 28.6657 19.0975H27.7868C27.5971 19.0975 27.4428 18.9699 27.4428 18.8132V18.7806C27.4428 18.5753 27.2757 18.4088 27.0695 18.4088C26.8634 18.4088 26.6963 18.5753 26.6963 18.7806V18.8132C26.6963 19.38 27.1855 19.8411 27.7867 19.8411ZM31.8398 19.8411H32.7188C33.32 19.8411 33.8091 19.38 33.8091 18.8132V18.0091C33.8091 17.4423 33.32 16.9812 32.7188 16.9812H31.8398C31.6501 16.9812 31.4958 16.8537 31.4958 16.6969V15.8929C31.4958 15.7361 31.6501 15.6086 31.8398 15.6086H32.7188C32.9084 15.6086 33.0628 15.7361 33.0628 15.8929C33.0628 16.0982 33.2298 16.2647 33.436 16.2647C33.6421 16.2647 33.8092 16.0982 33.8092 15.8929C33.8092 15.3261 33.32 14.8649 32.7188 14.8649H31.8398C31.2385 14.8649 30.7494 15.3261 30.7494 15.8929V16.6969C30.7494 17.2637 31.2386 17.7249 31.8398 17.7249H32.7188C32.9085 17.7249 33.0628 17.8524 33.0628 18.0091V18.8132C33.0628 18.9699 32.9085 19.0975 32.7188 19.0975H31.8398C31.6501 19.0975 31.4958 18.9699 31.4958 18.8132V18.7806C31.4958 18.5753 31.3287 18.4088 31.1226 18.4088C30.9165 18.4088 30.7494 18.5753 30.7494 18.7806V18.8132C30.7494 19.38 31.2385 19.8411 31.8398 19.8411ZM33.9546 33.192C33.92 33.1574 33.8788 33.13 33.8336 33.1114C33.7883 33.0927 33.7398 33.083 33.6907 33.083H30.8282V31.3485H31.7915C32.2814 31.3485 32.6799 30.9514 32.6799 30.4634V27.9333L34.1115 26.507C34.2572 26.3617 34.2572 26.1263 34.1115 25.9811C33.9658 25.8359 33.7295 25.8359 33.5837 25.9811L32.0428 27.5164C31.9728 27.5861 31.9335 27.6807 31.9335 27.7793V30.4634C31.9335 30.5414 31.8698 30.6048 31.7915 30.6048L30.8282 30.6695C30.8282 28.6009 29.6713 26.6317 27.9685 25.6995V25.165C27.9685 24.4625 27.6944 23.8025 27.1966 23.3066C26.6975 22.8093 26.0343 22.5354 25.3291 22.5354C23.8738 22.5354 22.6898 23.715 22.6898 25.165V25.6995C20.987 26.6317 19.8301 28.6009 19.8301 30.6695L18.8668 30.6048C18.7885 30.6048 18.7248 30.5414 18.7248 30.4634V27.7793C18.7248 27.7305 18.7152 27.6821 18.6964 27.637C18.6776 27.5919 18.6501 27.5509 18.6155 27.5164L17.0746 25.9811C16.9288 25.8359 16.6925 25.8359 16.5468 25.9811C16.4011 26.1263 16.4011 26.3617 16.5468 26.507L17.9784 27.9333V30.4634C17.9784 30.9514 18.3769 31.3485 18.8668 31.3485H19.8301V33.083H16.9676C16.8686 33.083 16.7737 33.1222 16.7037 33.1919L14.7674 35.1211C14.3597 35.5273 15.0157 35.9254 15.2952 35.6469L17.1222 33.8267H19.8301V34.3273C19.8301 34.7703 19.8618 35.2066 19.9237 35.6353H18.8848C18.3949 35.6353 17.9964 36.0323 17.9964 36.5204V40.5011L16.1093 42.3813C15.7016 42.7875 16.3576 43.1855 16.6371 42.9071L18.6335 40.9181C18.6682 40.8836 18.6956 40.8426 18.7144 40.7974C18.7332 40.7523 18.7428 40.704 18.7428 40.6551V36.5204C18.7428 36.4424 18.8065 36.379 18.8848 36.379H20.0638C20.2061 36.9891 20.4126 37.5813 20.6838 38.1513C21.5332 39.9366 23.3133 41.0456 25.3292 41.0456C27.3451 41.0456 29.1251 39.9366 29.9745 38.1513C30.2457 37.5813 30.4522 36.9891 30.5945 36.379H31.7735C31.8518 36.379 31.9155 36.4424 31.9155 36.5204V40.6551C31.9155 40.7538 31.9548 40.8483 32.0248 40.9181L33.7982 42.6849C34.0776 42.9634 34.7337 42.5653 34.326 42.1591L32.6619 40.5011V36.5204C32.6619 36.0323 32.2634 35.6353 31.7735 35.6353H30.7346C30.7971 35.2021 30.8283 34.765 30.8282 34.3273V33.8267H33.5362L35.3631 35.6469C35.6426 35.9254 36.2986 35.5273 35.8909 35.1211L33.9546 33.192ZM23.4362 25.1651C23.4362 24.1251 24.2854 23.2791 25.3292 23.2791C25.8349 23.2791 26.3107 23.4756 26.6688 23.8325C27.0256 24.1879 27.2221 24.6612 27.2221 25.165V25.3603C26.6317 25.1439 25.994 25.0256 25.3291 25.0256C24.6643 25.0256 24.0266 25.1439 23.4362 25.3603V25.1651ZM25.3291 25.7693C27.9498 25.7693 30.0818 27.8935 30.0818 30.5045V30.8961H20.5765V30.5045C20.5765 27.8935 22.7085 25.7693 25.3291 25.7693ZM21.3582 37.8328C20.8395 36.7426 20.5765 35.5632 20.5765 34.3273V31.6398H24.956V40.2865C23.3872 40.1605 22.0302 39.2449 21.3582 37.8328ZM29.3001 37.8328C28.6282 39.2449 27.2711 40.1605 25.7024 40.2865V31.6398H30.0818V34.3273C30.0818 35.5632 29.8188 36.7426 29.3001 37.8328Z" fill="white" stroke="white" stroke-width="1.1"/>
<path d="M45.9679 4H4.03207C3.46299 4 3 4.38118 3 4.84971V45.1503C3 45.6188 3.46299 46 4.03207 46H45.9679C46.537 46 47 45.6188 47 45.1503V4.84971C47 4.38118 46.537 4 45.9679 4ZM4.03207 4.72833H45.9679C46.0492 4.72833 46.1153 4.78278 46.1153 4.84971V11.1216H3.88464V4.84971C3.88464 4.7828 3.95075 4.72833 4.03207 4.72833ZM45.9679 45.2717H4.03207C3.95075 45.2717 3.88464 45.2172 3.88464 45.1503V11.8499H46.1153V45.1503C46.1153 45.2172 46.0492 45.2717 45.9679 45.2717Z" fill="#000025" stroke="#000025"/>
<path d="M29.4218 9.31006C30.3378 9.31006 31.0829 8.5676 31.0829 7.65503C31.0829 6.74246 30.3377 6 29.4218 6C28.5059 6 27.7607 6.74246 27.7607 7.65503C27.7607 8.5676 28.5059 9.31006 29.4218 9.31006ZM29.4218 6.74366C29.9262 6.74366 30.3365 7.1525 30.3365 7.65503C30.3365 8.15756 29.9262 8.5664 29.4218 8.5664C28.9174 8.5664 28.5071 8.15756 28.5071 7.65503C28.5071 7.1525 28.9174 6.74366 29.4218 6.74366ZM34.3803 9.31006C35.2963 9.31006 36.0415 8.5676 36.0415 7.65503C36.0415 6.74246 35.2963 6 34.3803 6C33.4644 6 32.7192 6.74246 32.7192 7.65503C32.7192 8.5676 33.4644 9.31006 34.3803 9.31006ZM34.3803 6.74366C34.8847 6.74366 35.2951 7.1525 35.2951 7.65503C35.2951 8.15756 34.8847 8.5664 34.3803 8.5664C33.8759 8.5664 33.4656 8.15756 33.4656 7.65503C33.4656 7.1525 33.8759 6.74366 34.3803 6.74366ZM39.3389 9.31006C40.2548 9.31006 41 8.5676 41 7.65503C41 6.74246 40.2548 6 39.3389 6C38.4229 6 37.6778 6.74246 37.6778 7.65503C37.6778 8.5676 38.4229 9.31006 39.3389 9.31006ZM39.3389 6.74366C39.8432 6.74366 40.2536 7.1525 40.2536 7.65503C40.2536 8.15756 39.8432 8.5664 39.3389 8.5664C38.8345 8.5664 38.4241 8.15756 38.4241 7.65503C38.4241 7.1525 38.8345 6.74366 39.3389 6.74366ZM15.4543 19.8411C15.7927 19.7963 15.8807 19.5847 15.7182 19.2064L13.901 17.3959L15.8042 15.4997C15.9499 15.3544 15.9499 15.119 15.8042 14.9738C15.6584 14.8286 15.4221 14.8286 15.2764 14.9738L13.1093 17.1329C12.9636 17.2781 12.9636 17.5136 13.1093 17.6588L15.1904 19.7322C15.225 19.7668 15.2661 19.7942 15.3114 19.8129C15.3567 19.8316 15.4053 19.8412 15.4543 19.8411ZM35.3819 14.9738C35.2362 14.8286 34.9999 14.8286 34.8541 14.9738C34.7084 15.119 34.7084 15.3544 34.8541 15.4997L36.7573 17.3959L34.9401 19.2064C34.5325 19.6126 35.1885 20.0107 35.4679 19.7322L37.549 17.6588C37.6947 17.5136 37.6947 17.2781 37.549 17.1329L35.3819 14.9738ZM16.9561 20.3146C17.1424 20.4259 17.3153 20.3934 17.4746 20.2168L21.1075 14.9082C21.2236 14.7385 21.1797 14.5072 21.0094 14.3915C20.8391 14.2758 20.6069 14.3196 20.4908 14.4892L16.858 19.7979C16.7418 19.9676 16.7858 20.1989 16.9561 20.3146ZM22.2909 19.7787C22.4777 19.8881 22.6502 19.8538 22.8085 19.6755L23.914 18.0233L25.0195 19.6755C25.2559 20.0289 25.948 19.7224 25.6405 19.263L24.3625 17.353L25.6405 15.443C25.7549 15.2722 25.7085 15.0413 25.537 14.9274C25.3655 14.8135 25.1339 14.8596 25.0195 15.0305L23.914 16.6827L22.8085 15.0305C22.6942 14.8596 22.4625 14.8135 22.2909 14.9274C22.1194 15.0413 22.0731 15.2722 22.1874 15.443L23.4655 17.353L22.1874 19.263C22.0731 19.4339 22.1194 19.6647 22.2909 19.7787ZM27.7867 19.8411H28.6657C29.267 19.8411 29.7561 19.38 29.7561 18.8132V18.0091C29.7561 17.4423 29.2669 16.9812 28.6657 16.9812H27.7867C27.597 16.9812 27.4427 16.8537 27.4427 16.6969V15.8929C27.4427 15.7361 27.597 15.6086 27.7867 15.6086H28.6657C28.8554 15.6086 29.0097 15.7361 29.0097 15.8929C29.0097 16.0982 29.1768 16.2647 29.3829 16.2647C29.589 16.2647 29.7561 16.0982 29.7561 15.8929C29.7561 15.3261 29.267 14.8649 28.6657 14.8649H27.7868C27.1855 14.8649 26.6964 15.3261 26.6964 15.8929V16.6969C26.6964 17.2637 27.1855 17.7249 27.7868 17.7249H28.6657C28.8554 17.7249 29.0097 17.8524 29.0097 18.0091V18.8132C29.0097 18.9699 28.8554 19.0975 28.6657 19.0975H27.7868C27.5971 19.0975 27.4428 18.9699 27.4428 18.8132V18.7806C27.4428 18.5753 27.2757 18.4088 27.0695 18.4088C26.8634 18.4088 26.6963 18.5753 26.6963 18.7806V18.8132C26.6963 19.38 27.1855 19.8411 27.7867 19.8411ZM31.8398 19.8411H32.7188C33.32 19.8411 33.8091 19.38 33.8091 18.8132V18.0091C33.8091 17.4423 33.32 16.9812 32.7188 16.9812H31.8398C31.6501 16.9812 31.4958 16.8537 31.4958 16.6969V15.8929C31.4958 15.7361 31.6501 15.6086 31.8398 15.6086H32.7188C32.9084 15.6086 33.0628 15.7361 33.0628 15.8929C33.0628 16.0982 33.2298 16.2647 33.436 16.2647C33.6421 16.2647 33.8092 16.0982 33.8092 15.8929C33.8092 15.3261 33.32 14.8649 32.7188 14.8649H31.8398C31.2385 14.8649 30.7494 15.3261 30.7494 15.8929V16.6969C30.7494 17.2637 31.2386 17.7249 31.8398 17.7249H32.7188C32.9085 17.7249 33.0628 17.8524 33.0628 18.0091V18.8132C33.0628 18.9699 32.9085 19.0975 32.7188 19.0975H31.8398C31.6501 19.0975 31.4958 18.9699 31.4958 18.8132V18.7806C31.4958 18.5753 31.3287 18.4088 31.1226 18.4088C30.9165 18.4088 30.7494 18.5753 30.7494 18.7806V18.8132C30.7494 19.38 31.2385 19.8411 31.8398 19.8411ZM33.9546 33.192C33.92 33.1574 33.8788 33.13 33.8336 33.1114C33.7883 33.0927 33.7398 33.083 33.6907 33.083H30.8282V31.3485H31.7915C32.2814 31.3485 32.6799 30.9514 32.6799 30.4634V27.9333L34.1115 26.507C34.2572 26.3617 34.2572 26.1263 34.1115 25.9811C33.9658 25.8359 33.7295 25.8359 33.5837 25.9811L32.0428 27.5164C31.9728 27.5861 31.9335 27.6807 31.9335 27.7793V30.4634C31.9335 30.5414 31.8698 30.6048 31.7915 30.6048L30.8282 30.6695C30.8282 28.6009 29.6713 26.6317 27.9685 25.6995V25.165C27.9685 24.4625 27.6944 23.8025 27.1966 23.3066C26.6975 22.8093 26.0343 22.5354 25.3291 22.5354C23.8738 22.5354 22.6898 23.715 22.6898 25.165V25.6995C20.987 26.6317 19.8301 28.6009 19.8301 30.6695L18.8668 30.6048C18.7885 30.6048 18.7248 30.5414 18.7248 30.4634V27.7793C18.7248 27.7305 18.7152 27.6821 18.6964 27.637C18.6776 27.5919 18.6501 27.5509 18.6155 27.5164L17.0746 25.9811C16.9288 25.8359 16.6925 25.8359 16.5468 25.9811C16.4011 26.1263 16.4011 26.3617 16.5468 26.507L17.9784 27.9333V30.4634C17.9784 30.9514 18.3769 31.3485 18.8668 31.3485H19.8301V33.083H16.9676C16.8686 33.083 16.7737 33.1222 16.7037 33.1919L14.7674 35.1211C14.3597 35.5273 15.0157 35.9254 15.2952 35.6469L17.1222 33.8267H19.8301V34.3273C19.8301 34.7703 19.8618 35.2066 19.9237 35.6353H18.8848C18.3949 35.6353 17.9964 36.0323 17.9964 36.5204V40.5011L16.1093 42.3813C15.7016 42.7875 16.3576 43.1855 16.6371 42.9071L18.6335 40.9181C18.6682 40.8836 18.6956 40.8426 18.7144 40.7974C18.7332 40.7523 18.7428 40.704 18.7428 40.6551V36.5204C18.7428 36.4424 18.8065 36.379 18.8848 36.379H20.0638C20.2061 36.9891 20.4126 37.5813 20.6838 38.1513C21.5332 39.9366 23.3133 41.0456 25.3292 41.0456C27.3451 41.0456 29.1251 39.9366 29.9745 38.1513C30.2457 37.5813 30.4522 36.9891 30.5945 36.379H31.7735C31.8518 36.379 31.9155 36.4424 31.9155 36.5204V40.6551C31.9155 40.7538 31.9548 40.8483 32.0248 40.9181L33.7982 42.6849C34.0776 42.9634 34.7337 42.5653 34.326 42.1591L32.6619 40.5011V36.5204C32.6619 36.0323 32.2634 35.6353 31.7735 35.6353H30.7346C30.7971 35.2021 30.8283 34.765 30.8282 34.3273V33.8267H33.5362L35.3631 35.6469C35.6426 35.9254 36.2986 35.5273 35.8909 35.1211L33.9546 33.192ZM23.4362 25.1651C23.4362 24.1251 24.2854 23.2791 25.3292 23.2791C25.8349 23.2791 26.3107 23.4756 26.6688 23.8325C27.0256 24.1879 27.2221 24.6612 27.2221 25.165V25.3603C26.6317 25.1439 25.994 25.0256 25.3291 25.0256C24.6643 25.0256 24.0266 25.1439 23.4362 25.3603V25.1651ZM25.3291 25.7693C27.9498 25.7693 30.0818 27.8935 30.0818 30.5045V30.8961H20.5765V30.5045C20.5765 27.8935 22.7085 25.7693 25.3291 25.7693ZM21.3582 37.8328C20.8395 36.7426 20.5765 35.5632 20.5765 34.3273V31.6398H24.956V40.2865C23.3872 40.1605 22.0302 39.2449 21.3582 37.8328ZM29.3001 37.8328C28.6282 39.2449 27.2711 40.1605 25.7024 40.2865V31.6398H30.0818V34.3273C30.0818 35.5632 29.8188 36.7426 29.3001 37.8328Z" fill="#000025" stroke="#000025" stroke-width="0.5"/>
</svg>
