<svg width="50" height="50" viewBox="0 0 50 50" fill="none" xmlns="http://www.w3.org/2000/svg">
<path fill-rule="evenodd" clip-rule="evenodd" d="M35.8373 12.1498L35.8317 12.1413C33.7221 10.2802 31.1822 8.98832 28.4475 8.38546C25.7129 7.78261 22.8721 7.88828 20.1886 8.6927C17.5117 9.511 15.0844 11.0045 13.1347 13.0328C11.1851 15.0612 9.77701 17.5577 9.04289 20.288C7.52193 21.3608 6.27274 22.7818 5.39695 24.4354C4.52115 26.0889 4.0435 27.9283 4.00283 29.8039C3.96217 31.6794 4.35965 33.5382 5.16294 35.229C5.96622 36.9199 7.15262 38.3949 8.62562 39.5342C10.6853 41.1216 13.2 41.987 15.7891 41.9995H34.0478C36.5886 42.0237 39.0699 41.2213 41.1259 39.7107C43.182 38.2001 44.7041 36.0611 45.468 33.609C46.2219 31.1594 46.1734 28.5289 45.3296 26.1095C44.4859 23.6901 42.892 21.6114 40.7857 20.1832C39.9452 17.0746 38.2252 14.2824 35.8373 12.1498ZM13.9156 34.1956C14.5037 34.4648 15.1422 34.649 15.7919 34.649L34.045 34.6546C36.5654 34.6546 38.6097 32.6002 38.6097 30.067C38.6097 27.5337 36.5654 25.4793 34.045 25.4793V24.564C34.0703 23.179 33.7843 21.8063 33.2084 20.5497C32.6326 19.293 31.782 18.1851 30.7209 17.3098H30.7153C26.9656 14.2552 21.46 14.7255 18.2115 18.313L18.1723 18.3555C20.9615 18.9222 23.4847 20.4835 25.2433 22.7986L19.9533 28.1202C19.5454 27.2116 18.8576 26.4611 17.993 25.9811C17.1283 25.5011 16.1332 25.3174 15.1567 25.4574C14.1802 25.5975 13.2748 26.0538 12.576 26.7581C11.8773 27.4623 11.4227 28.3767 11.2804 29.3642C11.1421 30.3498 11.3247 31.3541 11.8007 32.2253C12.2766 33.0965 13.02 33.7871 13.9184 34.1928L13.9156 34.1956Z" fill="#000025"/>
<path d="M28.2592 9.23995C30.8297 9.80663 33.2196 11.0166 35.2099 12.7597C35.2243 12.7744 35.2391 12.7887 35.2545 12.8024C37.515 14.8213 39.1445 17.4658 39.941 20.4115C39.9957 20.6138 40.1212 20.7898 40.2946 20.9074C42.2441 22.2293 43.7211 24.1545 44.5034 26.3976C45.2857 28.6406 45.3308 31.0797 44.6319 33.3509C43.923 35.625 42.5117 37.6068 40.6079 39.0056C38.7036 40.4047 36.4069 41.1469 34.0562 41.1245V41.1245H34.0478H15.791C13.3956 41.1124 11.068 40.3117 9.16021 38.8415C7.79683 37.7868 6.69779 36.4207 5.95328 34.8536C5.20861 33.2861 4.83991 31.5624 4.87763 29.8228C4.91534 28.0832 5.35839 26.3776 6.17019 24.8449C6.98196 23.3122 8.13929 21.9961 9.54724 21.003C9.71428 20.8852 9.83479 20.7126 9.88787 20.5152C10.5839 17.9266 11.9186 15.5607 13.7656 13.6392C15.6119 11.7183 17.9095 10.3048 20.4421 9.53016C22.9823 8.76915 25.6709 8.66936 28.2592 9.23995ZM20.1269 26.7045C19.6695 26.0972 19.0886 25.5886 18.4177 25.2161C17.3864 24.6436 16.1986 24.424 15.0325 24.5913C13.8664 24.7585 12.7869 25.3032 11.9549 26.1418C11.1231 26.9802 10.5833 28.0672 10.4144 29.2394L10.4139 29.2426C10.2495 30.4139 10.4664 31.6081 11.0328 32.6448C11.5849 33.6552 12.4403 34.4635 13.4767 34.9525C13.5008 34.9665 13.5258 34.9794 13.5514 34.9912C14.2144 35.2947 14.9793 35.5239 15.7916 35.524C15.7917 35.524 15.7918 35.524 15.7919 35.524L34.0448 35.5296H34.045C37.0528 35.5296 39.4847 33.0794 39.4847 30.0669C39.4847 27.3529 37.5107 25.0952 34.92 24.6745V24.5719C34.9465 23.0588 34.6334 21.5589 34.0039 20.1851C33.3732 18.8089 32.4413 17.5947 31.2778 16.6349C31.2552 16.6163 31.2318 16.5989 31.2077 16.5827C27.0923 13.2828 21.1032 13.8192 17.5656 17.7226L17.5291 17.7622C17.3149 17.9944 17.2425 18.324 17.3397 18.6246C17.4368 18.9252 17.6885 19.15 17.998 19.2129C20.3375 19.6883 22.4749 20.9192 24.0675 22.7404L20.1269 26.7045Z" stroke="white" stroke-width="1.75" stroke-linejoin="round"/>
</svg>
