<svg width="50" height="50" viewBox="0 0 50 50" fill="none" xmlns="http://www.w3.org/2000/svg">
<path d="M43.5 18.5833V15.7155C43.5 13.7413 43.5 12.7542 43.1975 11.9057C42.9304 11.1562 42.4964 10.4873 41.9328 9.95708C41.295 9.35684 40.4295 9.01026 38.6983 8.31708L26.2992 3.3523C25.8184 3.1598 25.5781 3.06355 25.3307 3.02537C25.1115 2.99154 24.8885 2.99154 24.6693 3.02537C24.4219 3.06355 24.1816 3.1598 23.7008 3.3523L11.3017 8.31708C9.57054 9.01026 8.70497 9.35684 8.06709 9.95708C7.50358 10.4873 7.0695 11.1562 6.80238 11.9057C6.5 12.7542 6.5 13.7413 6.5 15.7155V25.0551C6.5 36.0705 19.1262 44.0525 23.5168 46.4953C23.9915 46.7595 24.229 46.8916 24.5583 46.96C24.815 47.0133 25.185 47.0133 25.4417 46.96C25.771 46.8916 26.0085 46.7595 26.4832 46.4953" stroke="white" stroke-width="3" stroke-linecap="round" stroke-linejoin="round"/>
<path d="M38.9332 37.9419L46 45M42.1951 30.0892C42.1951 36.2135 37.2265 41.1783 31.0976 41.1783C24.9685 41.1783 20 36.2135 20 30.0892C20 23.9648 24.9685 19 31.0976 19C37.2265 19 42.1951 23.9648 42.1951 30.0892Z" stroke="white" stroke-width="3" stroke-linecap="round" stroke-linejoin="round"/>
<path d="M37.245 31.2891L35.21 25.1778C35.1927 25.1336 35.163 25.0953 35.1244 25.0678C35.0883 25.0311 35.041 25.0074 34.99 25.0005C34.9398 25 34.8908 25.015 34.8494 25.0433C34.8108 25.0709 34.7811 25.1091 34.7638 25.1533L33.3827 29.2295H28.8848L27.5281 25.1594C27.5176 25.1181 27.4966 25.0801 27.4669 25.0494C27.4218 25.0141 27.3652 24.9967 27.308 25.0005C27.2579 25 27.2088 25.015 27.1675 25.0433C27.1289 25.0709 27.0992 25.1091 27.0819 25.1533L25.0224 31.2891C24.9926 31.3802 24.9925 31.4784 25.0222 31.5696C25.0518 31.6608 25.1097 31.7402 25.1874 31.7963L31.1337 36.0009L37.0556 31.7963C37.14 31.7457 37.2047 31.668 37.2391 31.5759C37.2735 31.4837 37.2756 31.3826 37.245 31.2891Z" stroke="white" stroke-width="3" stroke-linecap="round" stroke-linejoin="round"/>
<path d="M43.5 18.5833V15.7155C43.5 13.7413 43.5 12.7542 43.1975 11.9057C42.9304 11.1562 42.4964 10.4873 41.9328 9.95708C41.295 9.35684 40.4295 9.01026 38.6983 8.31708L26.2992 3.3523C25.8184 3.1598 25.5781 3.06355 25.3307 3.02537C25.1115 2.99154 24.8885 2.99154 24.6693 3.02537C24.4219 3.06355 24.1816 3.1598 23.7008 3.3523L11.3017 8.31708C9.57054 9.01026 8.70497 9.35684 8.06709 9.95708C7.50358 10.4873 7.0695 11.1562 6.80238 11.9057C6.5 12.7542 6.5 13.7413 6.5 15.7155V25.0551C6.5 36.0705 19.1262 44.0525 23.5168 46.4953C23.9915 46.7595 24.229 46.8916 24.5583 46.96C24.815 47.0133 25.185 47.0133 25.4417 46.96C25.771 46.8916 26.0085 46.7595 26.4832 46.4953" stroke="#000025" stroke-width="2" stroke-linecap="round" stroke-linejoin="round"/>
<path d="M38.9332 37.9419L46 45M42.1951 30.0892C42.1951 36.2135 37.2265 41.1783 31.0976 41.1783C24.9685 41.1783 20 36.2135 20 30.0892C20 23.9648 24.9685 19 31.0976 19C37.2265 19 42.1951 23.9648 42.1951 30.0892Z" stroke="#000025" stroke-width="2" stroke-linecap="round" stroke-linejoin="round"/>
<path d="M37.245 31.2891L35.21 25.1778C35.1927 25.1336 35.163 25.0953 35.1244 25.0678C35.0883 25.0311 35.041 25.0074 34.99 25.0005C34.9398 25 34.8908 25.015 34.8494 25.0433C34.8108 25.0709 34.7811 25.1091 34.7638 25.1533L33.3827 29.2295H28.8848L27.5281 25.1594C27.5176 25.1181 27.4966 25.0801 27.4669 25.0494C27.4218 25.0141 27.3652 24.9967 27.308 25.0005C27.2579 25 27.2088 25.015 27.1675 25.0433C27.1289 25.0709 27.0992 25.1091 27.0819 25.1533L25.0224 31.2891C24.9926 31.3802 24.9925 31.4784 25.0222 31.5696C25.0518 31.6608 25.1097 31.7402 25.1874 31.7963L31.1337 36.0009L37.0556 31.7963C37.14 31.7457 37.2047 31.668 37.2391 31.5759C37.2735 31.4837 37.2756 31.3826 37.245 31.2891Z" stroke="#000025" stroke-width="1.5" stroke-linecap="round" stroke-linejoin="round"/>
</svg>
