<svg width="50" height="50" viewBox="0 0 50 50" fill="none" xmlns="http://www.w3.org/2000/svg">
<rect x="8" y="3" width="34" height="44" rx="2.88462" stroke="white" stroke-width="4.88"/>
<path d="M21.3298 8.52884C19.1887 9.15897 17.2458 10.3298 15.6883 11.9285C14.1308 13.5272 13.0112 15.5 12.4372 17.6569C11.8632 19.8138 11.8543 22.0821 12.4111 24.2435C12.968 26.4049 14.072 28.3865 15.6168 29.9975C17.1615 31.6085 19.0951 32.7946 21.2312 33.4417C23.3673 34.0888 25.634 34.175 27.8131 33.692C29.9922 33.209 32.0102 32.1731 33.6728 30.6841C35.3355 29.1951 36.5868 27.303 37.3062 25.1902" stroke="white" stroke-width="4.88" stroke-linecap="round"/>
<path d="M37.774 16.2459C38.3291 17.4921 38.6811 18.817 38.8186 20.1702C38.8723 20.6985 38.4496 21.1409 37.9187 21.1549L27.0122 21.4423C26.4814 21.4563 26.0397 21.0373 26.0257 20.5064L25.7383 9.59992C25.7243 9.06906 26.1438 8.62362 26.6742 8.6494C28.0328 8.71546 29.3744 8.99719 30.6481 9.48589C32.2216 10.0896 33.6607 10.9973 34.8834 12.1572C36.106 13.3171 37.0883 14.7064 37.774 16.2459Z" stroke="white" stroke-width="4.88"/>
<line x1="17.44" y1="40.56" x2="32.56" y2="40.56" stroke="white" stroke-width="4.88" stroke-linecap="round"/>
<rect x="8" y="3" width="34" height="44" rx="2.88462" stroke="#000025" stroke-width="2.88462"/>
<path d="M21.3298 8.52884C19.1887 9.15897 17.2458 10.3298 15.6883 11.9285C14.1308 13.5272 13.0112 15.5 12.4372 17.6569C11.8632 19.8138 11.8543 22.0821 12.4111 24.2435C12.968 26.4049 14.072 28.3865 15.6168 29.9975C17.1615 31.6085 19.0951 32.7946 21.2312 33.4417C23.3673 34.0888 25.634 34.175 27.8131 33.692C29.9922 33.209 32.0102 32.1731 33.6728 30.6841C35.3355 29.1951 36.5868 27.303 37.3062 25.1902" stroke="#000025" stroke-width="2.88462" stroke-linecap="round"/>
<path d="M37.774 16.2459C38.3291 17.4921 38.6811 18.817 38.8186 20.1702C38.8723 20.6985 38.4496 21.1409 37.9187 21.1549L27.0122 21.4423C26.4814 21.4563 26.0397 21.0373 26.0257 20.5064L25.7383 9.59992C25.7243 9.06906 26.1438 8.62362 26.6742 8.6494C28.0328 8.71546 29.3744 8.99719 30.6481 9.48589C32.2216 10.0896 33.6607 10.9973 34.8834 12.1572C36.106 13.3171 37.0883 14.7064 37.774 16.2459Z" stroke="#000025" stroke-width="2.88462"/>
<line x1="17.4423" y1="40.5577" x2="32.5577" y2="40.5577" stroke="#000025" stroke-width="2.88462" stroke-linecap="round"/>
</svg>
