<svg width="50" height="50" viewBox="0 0 50 50" fill="none" xmlns="http://www.w3.org/2000/svg">
<g clip-path="url(#clip0_350_275)">
<path d="M19.1019 46.1539H8.29327C5.30615 46.1539 2.88461 43.7323 2.88461 40.7452V8.2933C2.88461 5.30618 5.30615 2.88464 8.29327 2.88464H40.7452C43.7323 2.88464 46.1538 5.30618 46.1538 8.2933V20.1847" stroke="white" stroke-width="5" stroke-linecap="round"/>
<path d="M2.88461 16.3461H46.1538" stroke="white" stroke-width="5" stroke-linecap="round"/>
<path d="M16.3462 18.2692V45.1923" stroke="white" stroke-width="5" stroke-linecap="round"/>
<path d="M46.5984 32.1617C47.0469 33.6091 47.2059 35.1306 47.0664 36.6394C46.9268 38.1482 46.4915 39.6148 45.7852 40.9554C45.0789 42.2959 44.1154 43.4842 42.9499 44.4525C41.7843 45.4207 40.4395 46.1499 38.9921 46.5984C37.5448 47.0469 36.0232 47.2059 34.5144 47.0664C33.0056 46.9268 31.539 46.4915 30.1985 45.7852C28.8579 45.0789 27.6696 44.1154 26.7014 42.9499C25.7331 41.7843 25.0039 40.4395 24.5555 38.9921C24.107 37.5448 23.9479 36.0232 24.0875 34.5144C24.227 33.0056 24.6624 31.539 25.3687 30.1985C26.075 28.8579 27.0384 27.6696 28.204 26.7014C29.3695 25.7331 30.7144 25.0039 32.1617 24.5555C33.6091 24.107 35.1306 23.9479 36.6394 24.0875C38.1482 24.227 39.6148 24.6624 40.9554 25.3687C42.2959 26.075 43.4842 27.0384 44.4525 28.204C45.4207 29.3695 46.1499 30.7144 46.5984 32.1617Z" stroke="white" stroke-width="5" stroke-linecap="round" stroke-linejoin="round"/>
<path d="M31.7308 37.5H37.5V31.7308" stroke="white" stroke-width="5" stroke-linecap="round" stroke-linejoin="round"/>
</g>
<path d="M19.1019 46.1539H8.29327C5.30615 46.1539 2.88461 43.7323 2.88461 40.7452V8.2933C2.88461 5.30618 5.30615 2.88464 8.29327 2.88464H40.7452C43.7323 2.88464 46.1538 5.30618 46.1538 8.2933V20.1847" stroke="#000025" stroke-width="2.88462" stroke-linecap="round"/>
<path d="M2.88461 16.3461H46.1538" stroke="#000025" stroke-width="2.88462" stroke-linecap="round"/>
<path d="M16.3462 18.2692V45.1923" stroke="#000025" stroke-width="2.88462" stroke-linecap="round"/>
<path d="M46.5984 32.1617C47.0469 33.6091 47.2059 35.1306 47.0664 36.6394C46.9268 38.1482 46.4915 39.6148 45.7852 40.9554C45.0789 42.2959 44.1154 43.4842 42.9499 44.4525C41.7843 45.4207 40.4395 46.1499 38.9921 46.5984C37.5448 47.0469 36.0232 47.2059 34.5144 47.0664C33.0056 46.9268 31.539 46.4915 30.1985 45.7852C28.8579 45.0789 27.6696 44.1154 26.7014 42.9499C25.7331 41.7843 25.0039 40.4395 24.5555 38.9921C24.107 37.5448 23.9479 36.0232 24.0875 34.5144C24.227 33.0056 24.6624 31.539 25.3687 30.1985C26.075 28.8579 27.0384 27.6696 28.204 26.7014C29.3695 25.7331 30.7144 25.0039 32.1617 24.5555C33.6091 24.107 35.1306 23.9479 36.6394 24.0875C38.1482 24.227 39.6148 24.6624 40.9554 25.3687C42.2959 26.075 43.4842 27.0384 44.4525 28.204C45.4207 29.3695 46.1499 30.7144 46.5984 32.1617Z" stroke="#000025" stroke-width="2.88462" stroke-linecap="round" stroke-linejoin="round"/>
<path d="M31.7308 37.5H37.5V31.7308" stroke="#000025" stroke-width="2.88462" stroke-linecap="round" stroke-linejoin="round"/>
<defs>
<clipPath id="clip0_350_275">
<rect width="50" height="50" fill="white"/>
</clipPath>
</defs>
</svg>
