<svg width="50" height="50" viewBox="0 0 50 50" fill="none" xmlns="http://www.w3.org/2000/svg">
<path d="M19.9944 25.4999L19.1791 26.6918C18.5385 27.5137 17.6653 28.1156 16.6699 28.4216C15.6744 28.7275 14.6013 28.7238 13.5862 28.4108C12.5712 28.0978 11.6596 27.4896 10.9668 26.6631C10.274 25.8365 9.83105 24.8288 9.69387 23.7671C9.55669 22.7054 9.73146 21.6374 10.1961 20.6982C10.6607 19.7589 11.3944 18.9905 12.3044 18.49C13.2143 17.9895 14.2598 17.7795 15.3086 17.8864C16.3574 17.9932 17.3625 18.4123 18.1969 19.0905L25.8031 26.0467C26.6375 26.7249 27.6426 27.1439 28.6915 27.2508C29.7403 27.3577 30.7857 27.1476 31.6957 26.6471C32.6057 26.1467 33.3393 25.3782 33.804 24.439C34.2686 23.4997 34.4434 22.4318 34.3062 21.3701C34.169 20.3084 33.726 19.3006 33.0332 18.4741C32.3404 17.6475 31.4289 17.0394 30.4138 16.7264C29.3987 16.4134 28.3257 16.4096 27.3302 16.7156C26.3347 17.0215 25.4615 17.6235 24.821 18.4454L24.0056 19.6373" stroke="white" stroke-width="3" stroke-linecap="round" stroke-linejoin="round"/>
<path d="M34.5844 34.5984L46 46M39.8537 21.9132C39.8537 31.8064 31.8275 39.8265 21.9268 39.8265C12.0261 39.8265 4 31.8064 4 21.9132C4 12.02 12.0261 4 21.9268 4C31.8275 4 39.8537 12.02 39.8537 21.9132Z" stroke="white" stroke-width="5" stroke-linecap="round" stroke-linejoin="round"/>
<path d="M34.5844 34.5984L46 46M39.8537 21.9132C39.8537 31.8064 31.8275 39.8265 21.9268 39.8265C12.0261 39.8265 4 31.8064 4 21.9132C4 12.02 12.0261 4 21.9268 4C31.8275 4 39.8537 12.02 39.8537 21.9132Z" stroke="#000025" stroke-width="3" stroke-linecap="round" stroke-linejoin="round"/>
<path d="M19.9944 25.4999L19.1791 26.6918C18.5385 27.5137 17.6653 28.1156 16.6699 28.4216C15.6744 28.7275 14.6013 28.7238 13.5862 28.4108C12.5712 28.0978 11.6596 27.4896 10.9668 26.6631C10.274 25.8365 9.83105 24.8288 9.69387 23.7671C9.55669 22.7054 9.73146 21.6374 10.1961 20.6982C10.6607 19.7589 11.3944 18.9905 12.3044 18.49C13.2143 17.9895 14.2598 17.7795 15.3086 17.8864C16.3574 17.9932 17.3625 18.4123 18.1969 19.0905L25.8031 26.0467C26.6375 26.7249 27.6426 27.1439 28.6915 27.2508C29.7403 27.3577 30.7857 27.1476 31.6957 26.6471C32.6057 26.1467 33.3393 25.3782 33.804 24.439C34.2686 23.4997 34.4434 22.4318 34.3062 21.3701C34.169 20.3084 33.726 19.3006 33.0332 18.4741C32.3404 17.6475 31.4289 17.0394 30.4138 16.7264C29.3987 16.4134 28.3257 16.4096 27.3302 16.7156C26.3347 17.0215 25.4615 17.6235 24.821 18.4454L24.0056 19.6373" stroke="#000025" stroke-width="2" stroke-linecap="round" stroke-linejoin="round"/>
<path d="M27.1417 20.4357L23.6292 20.5059L22.9107 17.0414" stroke="white" stroke-width="3" stroke-linecap="round" stroke-linejoin="round"/>
<path d="M27.1417 20.4357L23.6292 20.5059L22.9107 17.0414" stroke="#000025" stroke-width="2" stroke-linecap="round" stroke-linejoin="round"/>
</svg>
