<svg width="50" height="50" viewBox="0 0 50 50" fill="none" xmlns="http://www.w3.org/2000/svg">
<path d="M34.5844 34.5984L46 46M39.8537 21.9132C39.8537 31.8064 31.8275 39.8265 21.9268 39.8265C12.0261 39.8265 4 31.8064 4 21.9132C4 12.02 12.0261 4 21.9268 4C31.8275 4 39.8537 12.02 39.8537 21.9132Z" stroke="white" stroke-width="5" stroke-linecap="round" stroke-linejoin="round"/>
<path d="M22.8011 20.8313L15 28.2222L16.875 30M17.8125 25.5556L19.6875 27.3333M30 18C30 20.2091 28.1112 22 25.7812 22C23.4513 22 21.5625 20.2091 21.5625 18C21.5625 15.7909 23.4513 14 25.7812 14C28.1112 14 30 15.7909 30 18Z" stroke="white" stroke-width="5" stroke-linecap="round" stroke-linejoin="round"/>
<path d="M34.5844 34.5984L46 46M39.8537 21.9132C39.8537 31.8064 31.8275 39.8265 21.9268 39.8265C12.0261 39.8265 4 31.8064 4 21.9132C4 12.02 12.0261 4 21.9268 4C31.8275 4 39.8537 12.02 39.8537 21.9132Z" stroke="#000025" stroke-width="3" stroke-linecap="round" stroke-linejoin="round"/>
<path d="M22.8011 20.8313L15 28.2222L16.875 30M17.8125 25.5556L19.6875 27.3333M30 18C30 20.2091 28.1112 22 25.7812 22C23.4513 22 21.5625 20.2091 21.5625 18C21.5625 15.7909 23.4513 14 25.7812 14C28.1112 14 30 15.7909 30 18Z" stroke="#000025" stroke-width="3" stroke-linecap="round" stroke-linejoin="round"/>
</svg>
