<svg width="50" height="50" viewBox="0 0 50 50" fill="none" xmlns="http://www.w3.org/2000/svg">
<path d="M46.9764 27.2601C47.1569 24.3935 46.2971 21.5604 44.5666 19.3194C42.8362 17.0783 40.3603 15.5918 37.6272 15.1528C36.5802 12.1071 34.536 9.541 31.8521 7.90216C29.1682 6.26335 26.0153 5.65604 22.9442 6.18729C19.8732 6.71852 17.0797 8.35448 15.0518 10.8084C13.024 13.2623 11.8908 16.3785 11.8504 19.6122C9.50313 19.6122 7.25201 20.5805 5.59222 22.3046C3.93244 24.0289 3 26.3679 3 28.8061C3 31.2445 3.93244 33.583 5.59222 35.3071C7.25201 37.0314 9.50313 38 11.8504 38H24.0197" stroke="white" stroke-width="5" stroke-linecap="round" stroke-linejoin="round"/>
<path d="M35.3212 34.6852L27 43L29 45M30 40L32 42M43 31.5C43 33.9853 40.9853 36 38.5 36C36.0147 36 34 33.9853 34 31.5C34 29.0147 36.0147 27 38.5 27C40.9853 27 43 29.0147 43 31.5Z" stroke="white" stroke-width="5" stroke-linecap="round" stroke-linejoin="round"/>
<path d="M46.9764 27.2601C47.1569 24.3935 46.2971 21.5604 44.5666 19.3194C42.8362 17.0783 40.3603 15.5918 37.6272 15.1528C36.5802 12.1071 34.536 9.541 31.8521 7.90216C29.1682 6.26335 26.0153 5.65604 22.9442 6.18729C19.8732 6.71852 17.0797 8.35448 15.0518 10.8084C13.024 13.2623 11.8908 16.3785 11.8504 19.6122C9.50313 19.6122 7.25201 20.5805 5.59222 22.3046C3.93244 24.0289 3 26.3679 3 28.8061C3 31.2445 3.93244 33.583 5.59222 35.3071C7.25201 37.0314 9.50313 38 11.8504 38H24.0197" stroke="#000025" stroke-width="2.88462" stroke-linecap="round" stroke-linejoin="round"/>
<path d="M35.3212 34.6852L27 43L29 45M30 40L32 42M43 31.5C43 33.9853 40.9853 36 38.5 36C36.0147 36 34 33.9853 34 31.5C34 29.0147 36.0147 27 38.5 27C40.9853 27 43 29.0147 43 31.5Z" stroke="#000025" stroke-width="2.8" stroke-linecap="round" stroke-linejoin="round"/>
</svg>
