<svg width="50" height="50" viewBox="0 0 50 50" fill="none" xmlns="http://www.w3.org/2000/svg">
<path d="M30.5132 22.6844L22.6844 30.5131C21.8014 31.3962 20.3697 31.3962 19.4866 30.5131C18.6036 29.6301 18.6036 28.1984 19.4866 27.3154L27.3154 19.4866C28.1984 18.6035 29.6301 18.6035 30.5132 19.4866C31.3962 20.3696 31.3962 21.8013 30.5132 22.6844Z" stroke="white" stroke-width="3" stroke-miterlimit="10" stroke-linecap="round" stroke-linejoin="round"/>
<path d="M22.9447 30.2527C23.2703 31.6505 22.8894 33.181 21.802 34.2683L14.85 41.2204C13.1763 42.8941 10.453 42.8941 8.7793 41.2204C7.1056 39.5467 7.1056 36.8235 8.77921 35.1498L15.7314 28.1977C16.8187 27.1102 18.3492 26.7294 19.747 27.055L23.1939 23.6081C19.8203 21.6463 15.4234 22.1102 12.5337 25L5.5816 31.9521C2.13914 35.3945 2.13914 40.9757 5.5816 44.4182C9.02407 47.8606 14.6053 47.8606 18.0476 44.4182L24.9997 37.466C27.8895 34.5763 28.3534 30.1796 26.3916 26.8058L22.9447 30.2527Z" stroke="white" stroke-width="3" stroke-miterlimit="10" stroke-linecap="round" stroke-linejoin="round"/>
<path d="M13.3922 13.3922L14.9509 14.9509" stroke="white" stroke-width="3" stroke-miterlimit="10" stroke-linecap="round" stroke-linejoin="round"/>
<path d="M10.6614 18.9572H12.8656" stroke="white" stroke-width="3" stroke-miterlimit="10" stroke-linecap="round" stroke-linejoin="round"/>
<path d="M18.9572 10.6615V12.8657" stroke="white" stroke-width="3" stroke-miterlimit="10" stroke-linecap="round" stroke-linejoin="round"/>
<path d="M36.4892 36.4894L34.9305 34.9307" stroke="white" stroke-width="3" stroke-miterlimit="10" stroke-linecap="round" stroke-linejoin="round"/>
<path d="M39.2201 30.9243H37.0159" stroke="white" stroke-width="3" stroke-miterlimit="10" stroke-linecap="round" stroke-linejoin="round"/>
<path d="M30.9243 39.2201V37.0159" stroke="white" stroke-width="3" stroke-miterlimit="10" stroke-linecap="round" stroke-linejoin="round"/>
<path d="M40.5824 15.491L34.2684 21.8023C33.181 22.8897 31.6506 23.2705 30.2528 22.945L26.8059 26.3918C30.1795 28.3537 34.5763 27.8897 37.4661 25L44.4182 18.0478C47.8606 14.6055 47.8606 9.02425 44.4182 5.58178C40.9758 2.13932 35.3946 2.13932 31.9522 5.58178L25 12.5339C22.1103 15.4236 21.6463 19.8204 23.6082 23.1941L27.055 19.7473C26.7294 18.3494 27.1103 16.819 28.1977 15.7316L35.1498 8.77947C36.8234 7.10586 39.5468 7.10586 41.2204 8.77947C42.8941 10.4532 42.8941 13.1765 41.2204 14.8501L40.5824 15.491Z" stroke="white" stroke-width="3" stroke-miterlimit="10" stroke-linecap="round" stroke-linejoin="round"/>
<path d="M30.5132 22.6844L22.6844 30.5131C21.8014 31.3962 20.3697 31.3962 19.4866 30.5131C18.6036 29.6301 18.6036 28.1984 19.4866 27.3154L27.3154 19.4866C28.1984 18.6035 29.6301 18.6035 30.5132 19.4866C31.3962 20.3696 31.3962 21.8013 30.5132 22.6844Z" stroke="#000025" stroke-width="1.5" stroke-miterlimit="10" stroke-linecap="round" stroke-linejoin="round"/>
<path d="M22.9447 30.2527C23.2703 31.6505 22.8894 33.181 21.802 34.2683L14.85 41.2204C13.1763 42.8941 10.453 42.8941 8.7793 41.2204C7.1056 39.5467 7.1056 36.8235 8.77921 35.1498L15.7314 28.1977C16.8187 27.1102 18.3492 26.7294 19.747 27.055L23.1939 23.6081C19.8203 21.6463 15.4234 22.1102 12.5337 25L5.5816 31.9521C2.13914 35.3945 2.13914 40.9757 5.5816 44.4182C9.02407 47.8606 14.6053 47.8606 18.0476 44.4182L24.9997 37.466C27.8895 34.5763 28.3534 30.1796 26.3916 26.8058L22.9447 30.2527Z" stroke="#000025" stroke-width="1.5" stroke-miterlimit="10" stroke-linecap="round" stroke-linejoin="round"/>
<path d="M13.3922 13.3922L14.9509 14.9509" stroke="#000025" stroke-width="1.5" stroke-miterlimit="10" stroke-linecap="round" stroke-linejoin="round"/>
<path d="M10.6614 18.9572H12.8656" stroke="#000025" stroke-width="1.5" stroke-miterlimit="10" stroke-linecap="round" stroke-linejoin="round"/>
<path d="M18.9572 10.6615V12.8657" stroke="#000025" stroke-width="1.5" stroke-miterlimit="10" stroke-linecap="round" stroke-linejoin="round"/>
<path d="M36.4892 36.4894L34.9305 34.9307" stroke="#000025" stroke-width="1.5" stroke-miterlimit="10" stroke-linecap="round" stroke-linejoin="round"/>
<path d="M39.2201 30.9243H37.0159" stroke="#000025" stroke-width="1.5" stroke-miterlimit="10" stroke-linecap="round" stroke-linejoin="round"/>
<path d="M30.9243 39.2201V37.0159" stroke="#000025" stroke-width="1.5" stroke-miterlimit="10" stroke-linecap="round" stroke-linejoin="round"/>
<path d="M40.5824 15.491L34.2684 21.8023C33.181 22.8897 31.6506 23.2705 30.2528 22.945L26.8059 26.3918C30.1795 28.3537 34.5763 27.8897 37.4661 25L44.4182 18.0478C47.8606 14.6055 47.8606 9.02425 44.4182 5.58178C40.9758 2.13932 35.3946 2.13932 31.9522 5.58178L25 12.5339C22.1103 15.4236 21.6463 19.8204 23.6082 23.1941L27.055 19.7473C26.7294 18.3494 27.1103 16.819 28.1977 15.7316L35.1498 8.77947C36.8234 7.10586 39.5468 7.10586 41.2204 8.77947C42.8941 10.4532 42.8941 13.1765 41.2204 14.8501L40.5824 15.491Z" stroke="#000025" stroke-width="1.5" stroke-miterlimit="10" stroke-linecap="round" stroke-linejoin="round"/>
</svg>
