<svg width="50" height="50" viewBox="0 0 50 50" fill="none" xmlns="http://www.w3.org/2000/svg">
<path d="M29 44.2538C27.2497 44.7401 25.4052 45 23.5 45C12.1782 45 3 35.8218 3 24.5C3 13.1782 12.1782 4 23.5 4C34.8218 4 44 13.1782 44 24.5C44 25.8688 43.8658 27.2063 43.61 28.5" stroke="white" stroke-width="5" stroke-linecap="round"/>
<rect x="8.5162" y="24.988" width="20.5" height="20.5" rx="4" transform="rotate(-45 8.5162 24.988)" stroke="white" stroke-width="5"/>
<path d="M40 33V47" stroke="white" stroke-width="5" stroke-linecap="round"/>
<path d="M47 40L33 40" stroke="white" stroke-width="5" stroke-linecap="round"/>
<path d="M29 44.2538C27.2497 44.7401 25.4052 45 23.5 45C12.1782 45 3 35.8218 3 24.5C3 13.1782 12.1782 4 23.5 4C34.8218 4 44 13.1782 44 24.5C44 25.8688 43.8658 27.2063 43.61 28.5" stroke="#000025" stroke-width="3" stroke-linecap="round"/>
<rect x="8.5162" y="24.988" width="20.5" height="20.5" rx="4" transform="rotate(-45 8.5162 24.988)" stroke="#000025" stroke-width="3"/>
<path d="M40 33V47" stroke="#000025" stroke-width="3" stroke-linecap="round"/>
<path d="M47 40L33 40" stroke="#000025" stroke-width="3" stroke-linecap="round"/>
</svg>
