<svg width="50" height="50" viewBox="0 0 50 50" fill="none" xmlns="http://www.w3.org/2000/svg">
<g clip-path="url(#clip0_376_163)">
<path d="M37 21.0732V10.1222C37 9.81986 36.8657 9.5299 36.6266 9.31609L29.9359 3.33391C29.6968 3.1201 29.3725 3 29.0344 3H4.275C3.57084 3 3 3.5104 3 4.14V39.86C3 40.4897 3.57084 41 4.275 41H21.8378" stroke="white" stroke-width="5" stroke-linecap="round" stroke-linejoin="round"/>
<path d="M29 9.8V3.7071C29 3.31658 29.3166 3 29.7072 3C29.8946 3 30.0744 3.0745 30.2072 3.2071L36.7928 9.7929C36.9256 9.9255 37 10.1054 37 10.2929C37 10.6834 36.6834 11 36.2928 11H30.2C29.5372 11 29 10.4627 29 9.8Z" stroke="white" stroke-width="5" stroke-linecap="round" stroke-linejoin="round"/>
<path d="M10 17H24" stroke="white" stroke-width="5" stroke-linecap="round" stroke-linejoin="round"/>
<path d="M10 23H27" stroke="white" stroke-width="5" stroke-linecap="round" stroke-linejoin="round"/>
<path d="M10 10H20" stroke="white" stroke-width="5" stroke-linecap="round" stroke-linejoin="round"/>
<path d="M33.8613 26.4258C33.356 27.6385 31.9391 28.1863 30.7462 27.6358C28.7726 26.7249 26.7249 28.7726 27.6358 30.7462C28.1863 31.9391 27.6385 33.356 26.4258 33.8613C24.5247 34.6534 24.5247 37.3465 26.4258 38.1386C27.6385 38.644 28.1863 40.061 27.6358 41.2537C26.7249 43.2274 28.7726 45.2751 30.7462 44.3641C31.9391 43.8136 33.356 44.3614 33.8613 45.5742C34.6534 47.4753 37.3465 47.4753 38.1386 45.5742C38.644 44.3614 40.061 43.8136 41.2537 44.3641C43.2274 45.2751 45.2751 43.2274 44.3641 41.2537C43.8136 40.061 44.3614 38.644 45.5742 38.1386C47.4753 37.3465 47.4753 34.6534 45.5742 33.8613C44.3614 33.356 43.8136 31.9391 44.3641 30.7462C45.2751 28.7726 43.2274 26.7249 41.2537 27.6358C40.061 28.1863 38.644 27.6385 38.1386 26.4258C37.3465 24.5247 34.6534 24.5247 33.8613 26.4258Z" stroke="white" stroke-width="5" stroke-linecap="round" stroke-linejoin="round"/>
<path d="M40 36C40 38.2092 38.2092 40 36 40C33.7908 40 32 38.2092 32 36C32 33.7908 33.7908 32 36 32C38.2092 32 40 33.7908 40 36Z" stroke="white" stroke-width="5"/>
</g>
<path d="M37 21.0732V10.1222C37 9.81986 36.8657 9.5299 36.6266 9.31609L29.9359 3.33391C29.6968 3.1201 29.3725 3 29.0344 3H4.275C3.57084 3 3 3.5104 3 4.14V39.86C3 40.4897 3.57084 41 4.275 41H21.8378" stroke="#000025" stroke-width="2.88462" stroke-linecap="round" stroke-linejoin="round"/>
<path d="M29 9.8V3.7071C29 3.31658 29.3166 3 29.7072 3C29.8946 3 30.0744 3.0745 30.2072 3.2071L36.7928 9.7929C36.9256 9.9255 37 10.1054 37 10.2929C37 10.6834 36.6834 11 36.2928 11H30.2C29.5372 11 29 10.4627 29 9.8Z" stroke="#000025" stroke-width="2.88462" stroke-linecap="round" stroke-linejoin="round"/>
<path d="M10 17H24" stroke="#000025" stroke-width="2.88462" stroke-linecap="round" stroke-linejoin="round"/>
<path d="M10 23H27" stroke="#000025" stroke-width="2.88462" stroke-linecap="round" stroke-linejoin="round"/>
<path d="M10 10H20" stroke="#000025" stroke-width="2.88462" stroke-linecap="round" stroke-linejoin="round"/>
<path d="M33.8613 26.4258C33.356 27.6385 31.9391 28.1863 30.7462 27.6358C28.7726 26.7249 26.7249 28.7726 27.6358 30.7462C28.1863 31.9391 27.6385 33.356 26.4258 33.8613C24.5247 34.6534 24.5247 37.3465 26.4258 38.1386C27.6385 38.644 28.1863 40.061 27.6358 41.2537C26.7249 43.2274 28.7726 45.2751 30.7462 44.3641C31.9391 43.8136 33.356 44.3614 33.8613 45.5742C34.6534 47.4753 37.3465 47.4753 38.1386 45.5742C38.644 44.3614 40.061 43.8136 41.2537 44.3641C43.2274 45.2751 45.2751 43.2274 44.3641 41.2537C43.8136 40.061 44.3614 38.644 45.5742 38.1386C47.4753 37.3465 47.4753 34.6534 45.5742 33.8613C44.3614 33.356 43.8136 31.9391 44.3641 30.7462C45.2751 28.7726 43.2274 26.7249 41.2537 27.6358C40.061 28.1863 38.644 27.6385 38.1386 26.4258C37.3465 24.5247 34.6534 24.5247 33.8613 26.4258Z" stroke="#000025" stroke-width="2.88462" stroke-linecap="round" stroke-linejoin="round"/>
<path d="M40 36C40 38.2092 38.2092 40 36 40C33.7908 40 32 38.2092 32 36C32 33.7908 33.7908 32 36 32C38.2092 32 40 33.7908 40 36Z" stroke="#000025" stroke-width="2.88462"/>
<defs>
<clipPath id="clip0_376_163">
<rect width="50" height="50" fill="white"/>
</clipPath>
</defs>
</svg>
