<svg width="50" height="50" viewBox="0 0 50 50" fill="none" xmlns="http://www.w3.org/2000/svg">
<ellipse cx="16.8212" cy="44.1668" rx="3.33328" ry="3.3333" stroke="white" stroke-width="5"/>
<ellipse cx="33.4878" cy="5.83394" rx="3.33328" ry="3.3333" transform="rotate(180 33.4878 5.83394)" stroke="white" stroke-width="5"/>
<path d="M32.1086 32.4623C33.6877 32.4268 35.196 31.8075 36.3363 30.7267C37.4768 29.6461 38.1665 28.182 38.2695 26.6234C38.3726 25.0649 37.8815 23.5246 36.8932 22.3063C35.9049 21.0879 34.4908 20.2797 32.93 20.041C32.332 18.3852 31.1645 16.9901 29.6317 16.0991C28.0988 15.2081 26.2981 14.8779 24.5441 15.1668C22.7902 15.4556 21.1948 16.345 20.0366 17.6791C18.8785 19.0132 18.2313 20.7074 18.2082 22.4655C16.8676 22.4655 15.582 22.9919 14.634 23.9292C13.6861 24.8667 13.1535 26.1383 13.1535 27.4639C13.1535 28.7896 13.6861 30.061 14.634 30.9983C15.582 31.9357 16.8676 32.4623 18.2082 32.4623H32.1086Z" stroke="white" stroke-width="5" stroke-linecap="round" stroke-linejoin="round"/>
<path d="M30.0078 4.25576C25.8347 3.40221 21.4986 3.89018 17.6196 5.6499C13.7405 7.40961 10.5174 10.3509 8.41098 14.0531C6.30461 17.7554 5.42294 22.0289 5.89208 26.2625C6.36122 30.4961 8.15714 34.4729 11.023 37.6241" stroke="white" stroke-width="5" stroke-linecap="round" stroke-linejoin="round"/>
<path d="M20.7854 44.5493C22.5003 44.9821 24.252 45.1956 26 45.1924M42.2419 10.5317C45.0911 13.966 46.7814 18.2134 47.0708 22.6663C47.1987 24.6335 47.0503 26.5963 46.6396 28.5" stroke="white" stroke-width="5" stroke-linecap="round" stroke-linejoin="round"/>
<path d="M39.1986 32.5101C40.6936 31.0151 42.8781 30.6302 44.7284 31.3552L41.386 34.6974C40.9834 35.1001 40.9834 35.753 41.386 36.1557L42.8443 37.614C43.2469 38.0166 43.8998 38.0166 44.3025 37.614L47.6448 34.2717C48.3699 36.1218 47.9848 38.3064 46.4899 39.8014C44.995 41.2963 42.8104 41.6812 40.9603 40.9563L34.5205 47.396C33.7152 48.2013 32.4094 48.2013 31.604 47.396C30.7987 46.5906 30.7987 45.2849 31.604 44.4794L38.0437 38.0397C37.3188 36.1896 37.7037 34.005 39.1986 32.5101Z" stroke="white" stroke-width="3.5" stroke-linecap="round" stroke-linejoin="round"/>
<ellipse cx="16.8212" cy="44.1668" rx="3.33328" ry="3.3333" stroke="#000025" stroke-width="2.88462"/>
<ellipse cx="33.4878" cy="5.83394" rx="3.33328" ry="3.3333" transform="rotate(180 33.4878 5.83394)" stroke="#000025" stroke-width="2.88462"/>
<path d="M32.1086 32.4623C33.6877 32.4268 35.196 31.8075 36.3363 30.7267C37.4768 29.6461 38.1665 28.182 38.2695 26.6234C38.3726 25.0649 37.8815 23.5246 36.8932 22.3063C35.9049 21.0879 34.4908 20.2797 32.93 20.041C32.332 18.3852 31.1645 16.9901 29.6317 16.0991C28.0988 15.2081 26.2981 14.8779 24.5441 15.1668C22.7902 15.4556 21.1948 16.345 20.0366 17.6791C18.8785 19.0132 18.2313 20.7074 18.2082 22.4655C16.8676 22.4655 15.582 22.9919 14.634 23.9292C13.6861 24.8667 13.1535 26.1383 13.1535 27.4639C13.1535 28.7896 13.6861 30.061 14.634 30.9983C15.582 31.9357 16.8676 32.4623 18.2082 32.4623H32.1086Z" stroke="#000025" stroke-width="2.88462" stroke-linecap="round" stroke-linejoin="round"/>
<path d="M30.0078 4.25576C25.8347 3.40221 21.4986 3.89018 17.6196 5.6499C13.7405 7.40961 10.5174 10.3509 8.41098 14.0531C6.30461 17.7554 5.42294 22.0289 5.89208 26.2625C6.36122 30.4961 8.15714 34.4729 11.023 37.6241" stroke="#000025" stroke-width="2.88462" stroke-linecap="round" stroke-linejoin="round"/>
<path d="M20.7854 44.5493C22.5003 44.9821 24.252 45.1956 26 45.1924M42.2419 10.5317C45.0911 13.966 46.7814 18.2134 47.0708 22.6663C47.1987 24.6335 47.0503 26.5963 46.6396 28.5" stroke="#000025" stroke-width="2.88462" stroke-linecap="round" stroke-linejoin="round"/>
<path d="M39.1986 32.5101C40.6936 31.0151 42.8781 30.6302 44.7284 31.3552L41.386 34.6974C40.9834 35.1001 40.9834 35.753 41.386 36.1557L42.8443 37.614C43.2469 38.0166 43.8998 38.0166 44.3025 37.614L47.6448 34.2717C48.3699 36.1218 47.9848 38.3064 46.4899 39.8014C44.995 41.2963 42.8104 41.6812 40.9603 40.9563L34.5205 47.396C33.7152 48.2013 32.4094 48.2013 31.604 47.396C30.7987 46.5906 30.7987 45.2849 31.604 44.4794L38.0437 38.0397C37.3188 36.1896 37.7037 34.005 39.1986 32.5101Z" stroke="#000025" stroke-width="2" stroke-linecap="round" stroke-linejoin="round"/>
</svg>
