<svg width="50" height="50" viewBox="0 0 50 50" fill="none" xmlns="http://www.w3.org/2000/svg">
<path d="M43.2597 25.0538V15.9265C43.2597 13.9972 43.2597 13.0326 42.9652 12.2033C42.7051 11.4708 42.2824 10.8172 41.7337 10.299C41.1127 9.71237 40.2699 9.37367 38.5843 8.69624L26.5112 3.84429C26.043 3.65616 25.8091 3.5621 25.5682 3.52479C25.3547 3.49174 25.1376 3.49174 24.9242 3.52479C24.6833 3.5621 24.4493 3.65616 23.9812 3.84429L11.9081 8.69624C10.2225 9.37367 9.37965 9.71237 8.75855 10.299C8.20985 10.8172 7.78719 11.4708 7.5271 12.2033C7.23267 13.0326 7.23267 13.9972 7.23267 15.9265V25.0538C7.23267 35.8189 19.5268 43.6195 23.8019 46.0068C24.2642 46.265 24.4955 46.3941 24.8161 46.4609C25.066 46.513 25.4263 46.513 25.6762 46.4609C25.9969 46.3941 26.2281 46.265 26.6904 46.0068" stroke="white" stroke-width="5" stroke-linecap="round" stroke-linejoin="round"/>
<path d="M29.7497 21.6269C29.7497 24.1483 27.7335 26.1922 25.2463 26.1922C22.7591 26.1922 20.7429 24.1483 20.7429 21.6269C20.7429 19.1055 22.7591 17.0615 25.2463 17.0615C27.7335 17.0615 29.7497 19.1055 29.7497 21.6269Z" stroke="white" stroke-width="5" stroke-linecap="round" stroke-linejoin="round"/>
<path d="M25.2461 26.1921V33.0401" stroke="white" stroke-width="5" stroke-linecap="round" stroke-linejoin="round"/>
<path d="M38.1986 30.5101C39.6936 29.0151 41.8781 28.6302 43.7284 29.3552L40.386 32.6974C39.9834 33.1001 39.9834 33.753 40.386 34.1557L41.8443 35.614C42.2469 36.0166 42.8998 36.0166 43.3025 35.614L46.6448 32.2717C47.3699 34.1218 46.9848 36.3064 45.4899 37.8014C43.995 39.2963 41.8104 39.6812 39.9603 38.9563L33.5205 45.396C32.7152 46.2013 31.4094 46.2013 30.604 45.396C29.7987 44.5906 29.7987 43.2849 30.604 42.4794L37.0437 36.0397C36.3188 34.1896 36.7037 32.005 38.1986 30.5101Z" stroke="white" stroke-width="3.5" stroke-linecap="round" stroke-linejoin="round"/>
<path d="M43.2597 25.0538V15.9265C43.2597 13.9972 43.2597 13.0326 42.9652 12.2033C42.7051 11.4708 42.2824 10.8172 41.7337 10.299C41.1127 9.71237 40.2699 9.37367 38.5843 8.69624L26.5112 3.84429C26.043 3.65616 25.8091 3.5621 25.5682 3.52479C25.3547 3.49174 25.1376 3.49174 24.9242 3.52479C24.6833 3.5621 24.4493 3.65616 23.9812 3.84429L11.9081 8.69624C10.2225 9.37367 9.37965 9.71237 8.75855 10.299C8.20985 10.8172 7.78719 11.4708 7.5271 12.2033C7.23267 13.0326 7.23267 13.9972 7.23267 15.9265V25.0538C7.23267 35.8189 19.5268 43.6195 23.8019 46.0068C24.2642 46.265 24.4955 46.3941 24.8161 46.4609C25.066 46.513 25.4263 46.513 25.6762 46.4609C25.9969 46.3941 26.2281 46.265 26.6904 46.0068" stroke="#000025" stroke-width="2.88462" stroke-linecap="round" stroke-linejoin="round"/>
<path d="M29.7497 21.6269C29.7497 24.1483 27.7335 26.1922 25.2463 26.1922C22.7591 26.1922 20.7429 24.1483 20.7429 21.6269C20.7429 19.1055 22.7591 17.0615 25.2463 17.0615C27.7335 17.0615 29.7497 19.1055 29.7497 21.6269Z" stroke="#000025" stroke-width="2.88462" stroke-linecap="round" stroke-linejoin="round"/>
<path d="M25.2461 26.1921V33.0401" stroke="#000025" stroke-width="2.88462" stroke-linecap="round" stroke-linejoin="round"/>
<path d="M38.1986 30.5101C39.6936 29.0151 41.8781 28.6302 43.7284 29.3552L40.386 32.6974C39.9834 33.1001 39.9834 33.753 40.386 34.1557L41.8443 35.614C42.2469 36.0166 42.8998 36.0166 43.3025 35.614L46.6448 32.2717C47.3699 34.1218 46.9848 36.3064 45.4899 37.8014C43.995 39.2963 41.8104 39.6812 39.9603 38.9563L33.5205 45.396C32.7152 46.2013 31.4094 46.2013 30.604 45.396C29.7987 44.5906 29.7987 43.2849 30.604 42.4794L37.0437 36.0397C36.3188 34.1896 36.7037 32.005 38.1986 30.5101Z" stroke="#000025" stroke-width="2" stroke-linecap="round" stroke-linejoin="round"/>
</svg>
