<svg width="50" height="50" viewBox="0 0 50 50" fill="none" xmlns="http://www.w3.org/2000/svg">
<path d="M25 21.6666V41.6666M25 21.6666C25 16.9995 25 14.6659 24.0917 12.8833C23.2927 11.3153 22.0179 10.0405 20.4499 9.24152C18.6673 8.33325 16.3338 8.33325 11.6667 8.33325H9.58333C8.41656 8.33325 7.83317 8.33325 7.38752 8.56031C6.99552 8.76006 6.67681 9.07877 6.47706 9.47077C6.25 9.91642 6.25 10.4998 6.25 11.6666V34.1666C6.25 35.3335 6.25 35.9168 6.47706 36.3624C6.67681 36.7545 6.99552 37.073 7.38752 37.2728C7.83317 37.4999 8.41656 37.4999 9.58333 37.4999H15.7222C16.8476 37.4999 17.4103 37.4999 17.9545 37.597C18.4374 37.683 18.9085 37.8255 19.3581 38.022C19.8647 38.243 20.3329 38.5551 21.2692 39.1795L25 41.6666M25 21.6666C25 16.9995 25 14.6659 25.9083 12.8833C26.7073 11.3153 27.9821 10.0405 29.55 9.24152C31.3327 8.33325 33.6662 8.33325 38.3333 8.33325H40.4167C41.5835 8.33325 42.1669 8.33325 42.6125 8.56031C43.0046 8.76006 43.3231 9.07877 43.5229 9.47077C43.75 9.91642 43.75 10.4998 43.75 11.6666V34.1666C43.75 35.3335 43.75 35.9168 43.5229 36.3624C43.3231 36.7545 43.0046 37.073 42.6125 37.2728C42.1669 37.4999 41.5835 37.4999 40.4167 37.4999H34.2777C33.1523 37.4999 32.5896 37.4999 32.0456 37.597C31.5625 37.683 31.0915 37.8255 30.6419 38.022C30.1354 38.243 29.6671 38.5551 28.7308 39.1795L25 41.6666" stroke="white" stroke-width="5" stroke-linecap="round" stroke-linejoin="round"/>
<path d="M25 21.6666V41.6666M25 21.6666C25 16.9995 25 14.6659 24.0917 12.8833C23.2927 11.3153 22.0179 10.0405 20.4499 9.24152C18.6673 8.33325 16.3338 8.33325 11.6667 8.33325H9.58333C8.41656 8.33325 7.83317 8.33325 7.38752 8.56031C6.99552 8.76006 6.67681 9.07877 6.47706 9.47077C6.25 9.91642 6.25 10.4998 6.25 11.6666V34.1666C6.25 35.3335 6.25 35.9168 6.47706 36.3624C6.67681 36.7545 6.99552 37.073 7.38752 37.2728C7.83317 37.4999 8.41656 37.4999 9.58333 37.4999H15.7222C16.8476 37.4999 17.4103 37.4999 17.9545 37.597C18.4374 37.683 18.9085 37.8255 19.3581 38.022C19.8647 38.243 20.3329 38.5551 21.2692 39.1795L25 41.6666M25 21.6666C25 16.9995 25 14.6659 25.9083 12.8833C26.7073 11.3153 27.9821 10.0405 29.55 9.24152C31.3327 8.33325 33.6662 8.33325 38.3333 8.33325H40.4167C41.5835 8.33325 42.1669 8.33325 42.6125 8.56031C43.0046 8.76006 43.3231 9.07877 43.5229 9.47077C43.75 9.91642 43.75 10.4998 43.75 11.6666V34.1666C43.75 35.3335 43.75 35.9168 43.5229 36.3624C43.3231 36.7545 43.0046 37.073 42.6125 37.2728C42.1669 37.4999 41.5835 37.4999 40.4167 37.4999H34.2777C33.1523 37.4999 32.5896 37.4999 32.0456 37.597C31.5625 37.683 31.0915 37.8255 30.6419 38.022C30.1354 38.243 29.6671 38.5551 28.7308 39.1795L25 41.6666" stroke="#000025" stroke-width="3" stroke-linecap="round" stroke-linejoin="round"/>
</svg>
