<svg width="50" height="50" viewBox="0 0 50 50" fill="none" xmlns="http://www.w3.org/2000/svg">
<path d="M46.8966 19.167C46.8496 19.0651 46.7926 18.9683 46.7264 18.8783C46.6763 18.6286 46.6092 18.3827 46.5256 18.1426C46.5154 18.1148 46.5052 18.087 46.4915 18.0591L41.8062 7.04348C41.6737 6.7332 41.4555 6.4692 41.1782 6.28384C40.901 6.09848 40.5769 5.99984 40.2456 6H9.6115C9.28021 5.99984 8.95608 6.09848 8.67885 6.28384C8.40163 6.4692 8.18338 6.7332 8.05086 7.04348L3.33662 18.1409C2.88779 19.3049 2.88779 20.5995 3.33662 21.7635C3.77023 22.7764 4.39841 23.6901 5.18392 24.4504C5.96944 25.2106 6.89631 25.8021 7.90961 26.1896V44.2609C7.90961 44.7221 8.08891 45.1645 8.40808 45.4906C8.72725 45.8168 9.16013 46 9.6115 46H40.2456C40.697 46 41.1298 45.8168 41.449 45.4906C41.7682 45.1645 41.9475 44.7221 41.9475 44.2609V26.1896C42.9605 25.8025 43.8872 25.2117 44.6727 24.452C45.4583 23.6923 46.0866 22.7793 46.5205 21.767C46.6607 21.4011 46.754 21.0182 46.7979 20.6278C46.9114 20.4042 46.9787 20.1592 46.9957 19.9079C47.0127 19.6566 46.979 19.4044 46.8966 19.167ZM19.8229 42.5217V32.087H23.2267V42.5217H19.8229ZM26.6304 42.5217V32.087H30.0342V42.5217H26.6304ZM38.5437 42.5217H33.438V30.3478C33.438 29.8866 33.2587 29.4442 32.9395 29.1181C32.6204 28.7919 32.1875 28.6087 31.7361 28.6087H18.121C17.6696 28.6087 17.2367 28.7919 16.9175 29.1181C16.5984 29.4442 16.4191 29.8866 16.4191 30.3478V42.5217H11.3134V26.8696C12.6028 26.8861 13.8801 26.6145 15.056 26.0737C16.2319 25.533 17.278 24.7362 18.121 23.7391C18.9736 24.7247 20.0214 25.5139 21.195 26.0544C22.3686 26.5949 23.6412 26.8744 24.9285 26.8744C26.2158 26.8744 27.4884 26.5949 28.6621 26.0544C29.8357 25.5139 30.8835 24.7247 31.7361 23.7391C32.5791 24.7362 33.6252 25.533 34.8011 26.0737C35.977 26.6145 37.2543 26.8861 38.5437 26.8696V42.5217ZM43.372 20.4348C42.9366 21.3548 42.2477 22.1247 41.3899 22.65C40.5322 23.1752 39.5429 23.4329 38.5437 23.3913C37.305 23.4942 36.0762 23.0964 35.1215 22.2834C34.1668 21.4704 33.5623 20.3071 33.438 19.0435C33.438 18.5822 33.2587 18.1399 32.9395 17.8137C32.6204 17.4876 32.1875 17.3043 31.7361 17.3043C31.2847 17.3043 30.8519 17.4876 30.5327 17.8137C30.2135 18.1399 30.0342 18.5822 30.0342 19.0435C29.9099 20.3071 29.3055 21.4704 28.3507 22.2834C27.396 23.0964 26.1672 23.4942 24.9285 23.3913C23.6899 23.4942 22.4611 23.0964 21.5064 22.2834C20.5516 21.4704 19.9472 20.3071 19.8229 19.0435C19.8229 18.5822 19.6436 18.1399 19.3244 17.8137C19.0052 17.4876 18.5723 17.3043 18.121 17.3043C17.6696 17.3043 17.2367 17.4876 16.9175 17.8137C16.5984 18.1399 16.4191 18.5822 16.4191 19.0435C16.2948 20.3071 15.6903 21.4704 14.7356 22.2834C13.7809 23.0964 12.5521 23.4942 11.3134 23.3913C10.314 23.433 9.32441 23.1754 8.46632 22.6501C7.60824 22.1249 6.91904 21.3549 6.48342 20.4348C6.36937 20.114 6.36937 19.7625 6.48342 19.4417L10.7279 9.47826H39.1291L43.3447 19.3913C43.4765 19.7244 43.4861 20.0949 43.372 20.4348Z" fill="black" stroke="white" stroke-width="2"/>
<path d="M46.8966 19.167C46.8496 19.0651 46.7926 18.9683 46.7264 18.8783C46.6763 18.6286 46.6092 18.3827 46.5256 18.1426C46.5154 18.1148 46.5052 18.087 46.4915 18.0591L41.8062 7.04348C41.6737 6.7332 41.4555 6.4692 41.1782 6.28384C40.901 6.09848 40.5769 5.99984 40.2456 6H9.6115C9.28021 5.99984 8.95608 6.09848 8.67885 6.28384C8.40163 6.4692 8.18338 6.7332 8.05086 7.04348L3.33662 18.1409C2.88779 19.3049 2.88779 20.5995 3.33662 21.7635C3.77023 22.7764 4.39841 23.6901 5.18392 24.4504C5.96944 25.2106 6.89631 25.8021 7.90961 26.1896V44.2609C7.90961 44.7221 8.08891 45.1645 8.40808 45.4906C8.72725 45.8168 9.16013 46 9.6115 46H40.2456C40.697 46 41.1298 45.8168 41.449 45.4906C41.7682 45.1645 41.9475 44.7221 41.9475 44.2609V26.1896C42.9605 25.8025 43.8872 25.2117 44.6727 24.452C45.4583 23.6923 46.0866 22.7793 46.5205 21.767C46.6607 21.4011 46.754 21.0182 46.7979 20.6278C46.9114 20.4042 46.9787 20.1592 46.9957 19.9079C47.0127 19.6566 46.979 19.4044 46.8966 19.167ZM19.8229 42.5217V32.087H23.2267V42.5217H19.8229ZM26.6304 42.5217V32.087H30.0342V42.5217H26.6304ZM38.5437 42.5217H33.438V30.3478C33.438 29.8866 33.2587 29.4442 32.9395 29.1181C32.6204 28.7919 32.1875 28.6087 31.7361 28.6087H18.121C17.6696 28.6087 17.2367 28.7919 16.9175 29.1181C16.5984 29.4442 16.4191 29.8866 16.4191 30.3478V42.5217H11.3134V26.8696C12.6028 26.8861 13.8801 26.6145 15.056 26.0737C16.2319 25.533 17.278 24.7362 18.121 23.7391C18.9736 24.7247 20.0214 25.5139 21.195 26.0544C22.3686 26.5949 23.6412 26.8744 24.9285 26.8744C26.2158 26.8744 27.4884 26.5949 28.6621 26.0544C29.8357 25.5139 30.8835 24.7247 31.7361 23.7391C32.5791 24.7362 33.6252 25.533 34.8011 26.0737C35.977 26.6145 37.2543 26.8861 38.5437 26.8696V42.5217ZM43.372 20.4348C42.9366 21.3548 42.2477 22.1247 41.3899 22.65C40.5322 23.1752 39.5429 23.4329 38.5437 23.3913C37.305 23.4942 36.0762 23.0964 35.1215 22.2834C34.1668 21.4704 33.5623 20.3071 33.438 19.0435C33.438 18.5822 33.2587 18.1399 32.9395 17.8137C32.6204 17.4876 32.1875 17.3043 31.7361 17.3043C31.2847 17.3043 30.8519 17.4876 30.5327 17.8137C30.2135 18.1399 30.0342 18.5822 30.0342 19.0435C29.9099 20.3071 29.3055 21.4704 28.3507 22.2834C27.396 23.0964 26.1672 23.4942 24.9285 23.3913C23.6899 23.4942 22.4611 23.0964 21.5064 22.2834C20.5516 21.4704 19.9472 20.3071 19.8229 19.0435C19.8229 18.5822 19.6436 18.1399 19.3244 17.8137C19.0052 17.4876 18.5723 17.3043 18.121 17.3043C17.6696 17.3043 17.2367 17.4876 16.9175 17.8137C16.5984 18.1399 16.4191 18.5822 16.4191 19.0435C16.2948 20.3071 15.6903 21.4704 14.7356 22.2834C13.7809 23.0964 12.5521 23.4942 11.3134 23.3913C10.314 23.433 9.32441 23.1754 8.46632 22.6501C7.60824 22.1249 6.91904 21.3549 6.48342 20.4348C6.36937 20.114 6.36937 19.7625 6.48342 19.4417L10.7279 9.47826H39.1291L43.3447 19.3913C43.4765 19.7244 43.4861 20.0949 43.372 20.4348Z" fill="#000025" stroke="#000025" stroke-width="0.0005"/>
</svg>
