<svg width="50" height="50" viewBox="0 0 50 50" fill="none" xmlns="http://www.w3.org/2000/svg">
<path d="M37 21.0732V10.1222C37 9.81986 36.8657 9.5299 36.6266 9.31609L29.9359 3.33391C29.6968 3.1201 29.3725 3 29.0344 3H4.275C3.57084 3 3 3.5104 3 4.14V39.86C3 40.4897 3.57084 41 4.275 41H21.8378" stroke="white" stroke-width="5" stroke-linecap="round" stroke-linejoin="round"/>
<path d="M29 9.8V3.7071C29 3.31658 29.3166 3 29.7072 3C29.8946 3 30.0744 3.0745 30.2072 3.2071L36.7928 9.7929C36.9256 9.9255 37 10.1054 37 10.2929C37 10.6834 36.6834 11 36.2928 11H30.2C29.5372 11 29 10.4627 29 9.8Z" stroke="white" stroke-width="5" stroke-linecap="round" stroke-linejoin="round"/>
<path d="M10 17H24" stroke="white" stroke-width="5" stroke-linecap="round" stroke-linejoin="round"/>
<path d="M10 23H27" stroke="white" stroke-width="5" stroke-linecap="round" stroke-linejoin="round"/>
<path d="M10 10H20" stroke="white" stroke-width="5" stroke-linecap="round" stroke-linejoin="round"/>
<path d="M36.6454 28.7766C38.4043 27.0178 40.9743 26.5649 43.151 27.4178L39.2189 31.3499C38.7451 31.8237 38.7451 32.5918 39.2189 33.0655L40.9344 34.7811C41.4081 35.2549 42.1763 35.2549 42.65 34.7811L46.5821 30.849C47.4351 33.0257 46.9821 35.5957 45.2234 37.3546C43.4647 39.1133 40.8946 39.5661 38.718 38.7133L31.1418 46.2894C30.1943 47.2369 28.6581 47.2369 27.7106 46.2894C26.7631 45.3419 26.7631 43.8057 27.7106 42.8581L35.2867 35.282C34.4339 33.1054 34.8867 30.5353 36.6454 28.7766Z" stroke="white" stroke-width="3.5" stroke-linecap="round" stroke-linejoin="round"/>
<path d="M37 21.0732V10.1222C37 9.81986 36.8657 9.5299 36.6266 9.31609L29.9359 3.33391C29.6968 3.1201 29.3725 3 29.0344 3H4.275C3.57084 3 3 3.5104 3 4.14V39.86C3 40.4897 3.57084 41 4.275 41H21.8378" stroke="#000025" stroke-width="2.88462" stroke-linecap="round" stroke-linejoin="round"/>
<path d="M29 9.8V3.7071C29 3.31658 29.3166 3 29.7072 3C29.8946 3 30.0744 3.0745 30.2072 3.2071L36.7928 9.7929C36.9256 9.9255 37 10.1054 37 10.2929C37 10.6834 36.6834 11 36.2928 11H30.2C29.5372 11 29 10.4627 29 9.8Z" stroke="#000025" stroke-width="2.88462" stroke-linecap="round" stroke-linejoin="round"/>
<path d="M10 17H24" stroke="#000025" stroke-width="2.88462" stroke-linecap="round" stroke-linejoin="round"/>
<path d="M10 23H27" stroke="#000025" stroke-width="2.88462" stroke-linecap="round" stroke-linejoin="round"/>
<path d="M10 10H20" stroke="#000025" stroke-width="2.88462" stroke-linecap="round" stroke-linejoin="round"/>
<path d="M36.6454 28.7766C38.4043 27.0178 40.9743 26.5649 43.151 27.4178L39.2189 31.3499C38.7451 31.8237 38.7451 32.5918 39.2189 33.0655L40.9344 34.7811C41.4081 35.2549 42.1763 35.2549 42.65 34.7811L46.5821 30.849C47.4351 33.0257 46.9821 35.5957 45.2234 37.3546C43.4647 39.1133 40.8946 39.5661 38.718 38.7133L31.1418 46.2894C30.1943 47.2369 28.6581 47.2369 27.7106 46.2894C26.7631 45.3419 26.7631 43.8057 27.7106 42.8581L35.2867 35.282C34.4339 33.1054 34.8867 30.5353 36.6454 28.7766Z" stroke="#000025" stroke-width="2" stroke-linecap="round" stroke-linejoin="round"/>
</svg>
