<svg width="50" height="50" viewBox="0 0 50 50" fill="none" xmlns="http://www.w3.org/2000/svg">
<path d="M5 29L5 39C5 41.2091 6.85482 43 9.14286 43L15.3571 43C15.3571 41.9763 15.7617 40.9526 16.5706 40.1716C18.1884 38.6095 20.8116 38.6095 22.4294 40.1716C23.2383 40.9526 23.6429 41.9763 23.6429 43L29.8571 43C32.1452 43 34 41.2091 34 39L34 29M5 29L5 11C5 8.7908 6.85482 7 9.14286 7L15.3571 7C15.3571 8.0236 15.7617 9.0474 16.5706 9.8284C18.1884 11.3906 20.8116 11.3906 22.4294 9.8284C23.2383 9.0474 23.6429 8.0236 23.6429 7C25.1964 7 27.5345 7 29.8571 7C32.1452 7 34 8.7908 34 11L34 29M5 29L34 29" stroke="white" stroke-width="5" stroke-linejoin="round"/>
<path d="M43 40L43 14" stroke="white" stroke-width="4" stroke-linecap="round"/>
<path d="M39 17L43 13L47 17" stroke="white" stroke-width="4" stroke-linecap="round" stroke-linejoin="round"/>
<path d="M5 29L5 39C5 41.2091 6.85482 43 9.14286 43L15.3571 43C15.3571 41.9763 15.7617 40.9526 16.5706 40.1716C18.1884 38.6095 20.8116 38.6095 22.4294 40.1716C23.2383 40.9526 23.6429 41.9763 23.6429 43L29.8571 43C32.1452 43 34 41.2091 34 39L34 29M5 29L5 11C5 8.7908 6.85482 7 9.14286 7L15.3571 7C15.3571 8.0236 15.7617 9.0474 16.5706 9.8284C18.1884 11.3906 20.8116 11.3906 22.4294 9.8284C23.2383 9.0474 23.6429 8.0236 23.6429 7C25.1964 7 27.5345 7 29.8571 7C32.1452 7 34 8.7908 34 11L34 29M5 29L34 29" stroke="#000025" stroke-width="3" stroke-linejoin="round"/>
<path d="M43 40L43 14" stroke="#000025" stroke-width="2" stroke-linecap="round"/>
<path d="M39 17L43 13L47 17" stroke="#000025" stroke-width="2" stroke-linecap="round" stroke-linejoin="round"/>
</svg>
