<svg width="50" height="50" viewBox="0 0 50 50" fill="none" xmlns="http://www.w3.org/2000/svg">
<path d="M2.88461 14.4231L24.7335 2.88464L47.1154 14.4231" stroke="white" stroke-width="5" stroke-linecap="round" stroke-linejoin="round"/>
<path d="M6.73077 12.5V46.1538" stroke="white" stroke-width="5" stroke-linecap="round"/>
<path d="M43.2692 12.5V46.1538" stroke="white" stroke-width="5" stroke-linecap="round"/>
<path d="M20.1923 25.9615V16.3461H30.2885V25.9615H20.1923Z" stroke="white" stroke-width="5" stroke-linecap="round" stroke-linejoin="round"/>
<path d="M11.5385 40.3846V30.7692H21.6346V40.3846H11.5385Z" stroke="white" stroke-width="5" stroke-linecap="round" stroke-linejoin="round"/>
<path d="M27.8846 40.3846V30.7692H37.9808V40.3846H27.8846Z" stroke="white" stroke-width="5" stroke-linecap="round" stroke-linejoin="round"/>
<path d="M2.88461 14.4231L24.7335 2.88464L47.1154 14.4231" stroke="#000025" stroke-width="2.88462" stroke-linecap="round" stroke-linejoin="round"/>
<path d="M6.73077 12.5V46.1538" stroke="#000025" stroke-width="2.88462" stroke-linecap="round"/>
<path d="M43.2692 12.5V46.1538" stroke="#000025" stroke-width="2.88462" stroke-linecap="round"/>
<path d="M20.1923 25.9615V16.3461H30.2885V25.9615H20.1923Z" stroke="#000025" stroke-width="2.88462" stroke-linecap="round" stroke-linejoin="round"/>
<path d="M11.5385 40.3846V30.7692H21.6346V40.3846H11.5385Z" stroke="#000025" stroke-width="2.88462" stroke-linecap="round" stroke-linejoin="round"/>
<path d="M27.8846 40.3846V30.7692H37.9808V40.3846H27.8846Z" stroke="#000025" stroke-width="2.88462" stroke-linecap="round" stroke-linejoin="round"/>
</svg>
