<svg width="50" height="50" viewBox="0 0 50 50" fill="none" xmlns="http://www.w3.org/2000/svg">
<g clip-path="url(#clip0_375_145)">
<path d="M32 35C35.866 35 39 31.866 39 28C39 24.134 35.866 21 32 21C28.134 21 25 24.134 25 28C25 31.866 28.134 35 32 35Z" stroke="white" stroke-width="5" stroke-linecap="round" stroke-linejoin="round"/>
<path d="M43 47C43 40.37 38.0742 35 32 35C25.9258 35 21 40.37 21 47" stroke="white" stroke-width="5" stroke-linecap="round" stroke-linejoin="round"/>
<path d="M43.5915 30.0072C45.5884 28.1437 46.7961 25.6191 46.9764 22.9314C47.1569 20.2439 46.2971 17.5879 44.5666 15.4869C42.8362 13.3859 40.3603 11.9923 37.6273 11.5807C36.5802 8.72541 34.536 6.31969 31.8521 4.78328C29.1682 3.24689 26.0153 2.67754 22.9442 3.17559C19.8733 3.67361 17.0797 5.20732 15.0518 7.50785C13.024 9.80839 11.8908 12.7298 11.8504 15.7614C9.50313 15.7614 7.25201 16.6693 5.59222 18.2856C3.93244 19.9021 3 22.0949 3 24.3807C3 26.6668 3.93244 28.8591 5.59222 30.4754C7.25201 32.092 9.50313 33 11.8504 33H21.1739" stroke="white" stroke-width="5" stroke-linecap="round" stroke-linejoin="round"/>
</g>
<path d="M32 35C35.866 35 39 31.866 39 28C39 24.134 35.866 21 32 21C28.134 21 25 24.134 25 28C25 31.866 28.134 35 32 35Z" stroke="#000025" stroke-width="3" stroke-linecap="round" stroke-linejoin="round"/>
<path d="M43 47C43 40.37 38.0742 35 32 35C25.9258 35 21 40.37 21 47" stroke="#000025" stroke-width="3" stroke-linecap="round" stroke-linejoin="round"/>
<path d="M43.5915 30.0072C45.5884 28.1437 46.7961 25.6191 46.9764 22.9314C47.1569 20.2439 46.2971 17.5879 44.5666 15.4869C42.8362 13.3859 40.3603 11.9923 37.6273 11.5807C36.5802 8.72541 34.536 6.31969 31.8521 4.78328C29.1682 3.24689 26.0153 2.67754 22.9442 3.17559C19.8733 3.67361 17.0797 5.20732 15.0518 7.50785C13.024 9.80839 11.8908 12.7298 11.8504 15.7614C9.50313 15.7614 7.25201 16.6693 5.59222 18.2856C3.93244 19.9021 3 22.0949 3 24.3807C3 26.6668 3.93244 28.8591 5.59222 30.4754C7.25201 32.092 9.50313 33 11.8504 33H21.1739" stroke="#000025" stroke-width="3" stroke-linecap="round" stroke-linejoin="round"/>
<defs>
<clipPath id="clip0_375_145">
<rect width="50" height="50" fill="white"/>
</clipPath>
</defs>
</svg>
