<svg width="50" height="50" viewBox="0 0 50 50" fill="none" xmlns="http://www.w3.org/2000/svg">
<path d="M46.9764 22.9314C47.1569 20.2439 46.2971 17.5879 44.5666 15.4869C42.8362 13.3859 40.3603 11.9923 37.6272 11.5807C36.5802 8.72541 34.536 6.31969 31.8521 4.78328C29.1682 3.24689 26.0153 2.67754 22.9442 3.17559C19.8732 3.67361 17.0797 5.20732 15.0518 7.50785C13.024 9.80839 11.8908 12.7298 11.8504 15.7614C9.50313 15.7614 7.25201 16.6693 5.59222 18.2856C3.93244 19.9021 3 22.0949 3 24.3807" stroke="white" stroke-width="5" stroke-linecap="round" stroke-linejoin="round"/>
<rect x="7" y="27" width="37" height="18.5" rx="0.804348" stroke="white" stroke-width="5"/>
<path d="M15.0435 27.4022V44.6957" stroke="white" stroke-width="5" stroke-linecap="round"/>
<path d="M25.5 27.4022V44.6957" stroke="white" stroke-width="5" stroke-linecap="round"/>
<path d="M35.1522 27.4022V44.6957" stroke="white" stroke-width="5" stroke-linecap="round"/>
<path d="M46.9764 22.9314C47.1569 20.2439 46.2971 17.5879 44.5666 15.4869C42.8362 13.3859 40.3603 11.9923 37.6272 11.5807C36.5802 8.72541 34.536 6.31969 31.8521 4.78328C29.1682 3.24689 26.0153 2.67754 22.9442 3.17559C19.8732 3.67361 17.0797 5.20732 15.0518 7.50785C13.024 9.80839 11.8908 12.7298 11.8504 15.7614C9.50313 15.7614 7.25201 16.6693 5.59222 18.2856C3.93244 19.9021 3 22.0949 3 24.3807" stroke="#000025" stroke-width="3" stroke-linecap="round" stroke-linejoin="round"/>
<rect x="7" y="27" width="37" height="18.5" rx="0.804348" stroke="#000025" stroke-width="3"/>
<path d="M15.0435 27.4022V44.6957" stroke="#000025" stroke-width="3" stroke-linecap="round"/>
<path d="M25.5 27.4022V44.6957" stroke="#000025" stroke-width="3" stroke-linecap="round"/>
<path d="M35.1522 27.4022V44.6957" stroke="#000025" stroke-width="3" stroke-linecap="round"/>
</svg>
