<svg width="50" height="50" viewBox="0 0 50 50" fill="none" xmlns="http://www.w3.org/2000/svg">
<path fill-rule="evenodd" clip-rule="evenodd" d="M22.7323 25.5309C22.7617 25.6219 22.7728 25.7178 22.7649 25.8131C22.7571 25.9084 22.7305 26.0012 22.6867 26.0862C22.6428 26.1712 22.5826 26.2467 22.5095 26.3084C22.4363 26.3701 22.3517 26.4168 22.2605 26.4458L20.9366 26.8766L21.7518 28.0038C22.1055 28.4883 21.748 29.1573 21.1695 29.1573C20.9427 29.1573 20.7222 29.0538 20.5811 28.8581L19.7599 27.7309L18.9386 28.8581C18.6996 29.1825 18.2461 29.2541 17.9213 29.019C17.5965 28.7822 17.5229 28.328 17.762 28.0038L18.5833 26.8766L17.2533 26.4458C16.8733 26.3228 16.6649 25.9122 16.7875 25.5309C16.9101 25.149 17.3208 24.941 17.7069 25.0652L19.0307 25.4948V24.1025C19.0306 24.007 19.0494 23.9123 19.0861 23.824C19.1227 23.7358 19.1765 23.6556 19.2442 23.5881C19.312 23.5206 19.3924 23.4671 19.4809 23.4308C19.5695 23.3944 19.6643 23.3758 19.76 23.3762C20.1583 23.3762 20.4832 23.7006 20.4832 24.1025V25.4948L21.8131 25.0652C22.193 24.941 22.6036 25.149 22.7323 25.5309ZM30.3993 25.5309C30.43 25.6215 30.4422 25.7172 30.4352 25.8125C30.4283 25.9079 30.4024 26.0009 30.359 26.0861C30.3156 26.1713 30.2557 26.247 30.1826 26.3088C30.1096 26.3705 30.0249 26.4171 29.9336 26.4458L28.6097 26.8766L29.4249 28.0038C29.7786 28.4883 29.4211 29.1573 28.8426 29.1573C28.6158 29.1573 28.3952 29.0538 28.2542 28.8581L27.433 27.7309L26.6117 28.8581C26.3727 29.1825 25.9192 29.2541 25.5944 29.019C25.2696 28.7822 25.196 28.328 25.4351 28.0038L26.2563 26.8766L24.9264 26.4458C24.5464 26.3228 24.338 25.9122 24.4606 25.5309C24.5832 25.149 24.9938 24.941 25.3799 25.0652L26.7037 25.4948V24.1025C26.7036 24.007 26.7224 23.9123 26.7591 23.824C26.7957 23.7358 26.8494 23.6556 26.9172 23.5881C26.985 23.5206 27.0654 23.4671 27.1539 23.4308C27.2424 23.3944 27.3373 23.3758 27.433 23.3762C27.8314 23.3762 28.1561 23.7006 28.1561 24.1025V25.4948L29.4861 25.0652C29.5767 25.0357 29.6722 25.0243 29.7672 25.0317C29.8622 25.0391 29.9548 25.0652 30.0397 25.1085C30.1245 25.1518 30.2 25.2114 30.2617 25.2839C30.3234 25.3563 30.3702 25.4403 30.3993 25.5309ZM43.2757 34.8983C43.3984 35.2801 43.19 35.6896 42.81 35.8138L41.48 36.2434L42.3013 37.3707C42.6583 37.8578 42.2905 38.5242 41.7129 38.5242C41.5981 38.5247 41.4848 38.4978 41.3824 38.4457C41.2801 38.3937 41.1917 38.318 41.1245 38.225L40.3033 37.0977L39.482 38.225C39.2491 38.5494 38.7956 38.6209 38.4708 38.3853C38.146 38.1504 38.0725 37.6962 38.3053 37.3707L39.1265 36.2434L37.8028 35.8138C37.4167 35.6896 37.2083 35.2802 37.337 34.8983C37.4596 34.517 37.8703 34.3089 38.2503 34.4319L39.5802 34.8627V33.4693C39.5802 33.0685 39.9051 32.743 40.3034 32.743C40.3991 32.7428 40.4939 32.7614 40.5823 32.7978C40.6708 32.8342 40.7512 32.8876 40.8189 32.9551C40.8867 33.0226 40.9404 33.1027 40.9771 33.191C41.0138 33.2792 41.0327 33.3738 41.0327 33.4693V34.8627L42.3565 34.4319C42.7425 34.3089 43.1531 34.5171 43.2757 34.8983ZM42.2277 40.668C42.2277 41.0688 41.8967 41.3943 41.4984 41.3943H39.1143C39.0187 41.3946 38.9239 41.376 38.8354 41.3396C38.747 41.3032 38.6666 41.2497 38.5988 41.1822C38.5311 41.1148 38.4773 41.0346 38.4407 40.9464C38.404 40.8581 38.3851 40.7635 38.3851 40.668C38.385 40.5724 38.4038 40.4778 38.4404 40.3895C38.4771 40.3012 38.5308 40.221 38.5986 40.1535C38.6663 40.086 38.7468 40.0326 38.8353 39.9962C38.9238 39.9598 39.0186 39.9413 39.1143 39.9416H41.4984C41.8967 39.9415 42.2277 40.2659 42.2277 40.668ZM15.0591 25.5309C15.0885 25.6219 15.0996 25.7178 15.0917 25.8131C15.0839 25.9084 15.0573 26.0012 15.0135 26.0862C14.9696 26.1712 14.9094 26.2467 14.8363 26.3084C14.7631 26.3701 14.6785 26.4168 14.5873 26.4458L13.2634 26.8766L14.0847 28.0038C14.4319 28.4838 14.0705 29.1573 13.4963 29.1573C13.2695 29.1573 13.049 29.0538 12.9079 28.8581L12.0867 27.7309L11.2654 28.8581C11.0264 29.1825 10.5729 29.2541 10.248 29.019C9.92315 28.7822 9.84971 28.328 10.0887 28.0038L10.9099 26.8766L9.57998 26.4458C9.19998 26.3228 8.99161 25.9122 9.11422 25.5309C9.23682 25.149 9.64744 24.941 10.0335 25.0652L11.3573 25.4948V24.1025C11.3572 24.007 11.376 23.9123 11.4127 23.824C11.4493 23.7357 11.5031 23.6555 11.5708 23.588C11.6386 23.5205 11.7191 23.4671 11.8076 23.4307C11.8961 23.3944 11.991 23.3758 12.0867 23.3762C12.485 23.3762 12.8099 23.7006 12.8099 24.1025V25.4948L14.1398 25.0652C14.5198 24.941 14.9304 25.149 15.0591 25.5309ZM47.5474 41.6808V15.8735C47.5475 15.7595 47.5249 15.6467 47.4812 15.5414C47.4374 15.4361 47.3732 15.3405 47.2924 15.2601C47.2115 15.1796 47.1156 15.1159 47.01 15.0726C46.9044 15.0293 46.7913 15.0072 46.6771 15.0076H33.9294C33.4513 15.0076 33.0591 15.3962 33.0591 15.8735V41.6807C33.0591 42.1581 33.4513 42.5479 33.9294 42.5479H46.6771C46.7914 42.5482 46.9045 42.526 47.0101 42.4825C47.1157 42.4391 47.2117 42.3752 47.2925 42.2947C47.3734 42.2141 47.4375 42.1185 47.4812 42.0131C47.525 41.9078 47.5475 41.7948 47.5474 41.6808ZM31.6067 15.8735C31.6067 14.5952 32.6485 13.5553 33.9294 13.5553H40.7384V8.61496C40.7384 7.97366 40.2113 7.45283 39.574 7.45283H7.22064C6.57713 7.45283 6.05622 7.97366 6.05622 8.61496V30.8997H31.6068V15.8735H31.6067ZM19.5638 32.3519H26.3605L25.956 33.7417H19.9621L19.5638 32.3519ZM31.6067 36.5836V32.3519H27.8743L27.2063 34.6688C27.1143 34.9803 26.8324 35.1939 26.5076 35.1939H19.4167C19.0919 35.1939 18.8038 34.9803 18.7181 34.6688L18.05 32.3519H2.50149C2.80793 34.7429 4.60976 36.5836 6.77928 36.5836H31.6067ZM46.6771 13.5553H42.191V8.61496C42.191 7.17259 41.0143 6 39.574 6H7.22064C5.77429 6 4.60366 7.17259 4.60366 8.61496V30.8997H1.72317C1.32486 30.8997 1 31.2234 1 31.6255C1 35.1601 3.59246 38.0358 6.77939 38.0358H31.6068V41.6807C31.6068 42.959 32.6486 44 33.9295 44H46.6773C47.9582 44 49 42.959 49 41.6807V15.8735C48.9999 14.5952 47.9581 13.5553 46.6771 13.5553ZM19.2819 15.7236C19.2819 15.6385 19.3555 15.5664 19.4412 15.5664H27.3534C27.4392 15.5664 27.5066 15.6385 27.5066 15.7236V20.2118C27.5066 20.2963 27.4393 20.3679 27.3534 20.3679H19.4412C19.3555 20.3679 19.2819 20.2963 19.2819 20.2118V15.7236ZM21.5617 11.0193H25.2328V14.1141H21.5617V11.0193ZM19.4412 21.82C18.5526 21.82 17.8293 21.0985 17.8293 20.2118V15.7236C17.8293 14.8362 18.5525 14.1141 19.4412 14.1141H20.1093V10.8915C20.1093 10.1602 20.7037 9.56662 21.433 9.56662H25.3615C26.0908 9.56662 26.6853 10.1602 26.6853 10.8915V14.1141H27.3533C28.242 14.1141 28.9652 14.8362 28.9652 15.7236V20.2118C28.9652 21.0985 28.242 21.82 27.3533 21.82H19.4412ZM44.4157 28.9132C44.4157 28.9976 44.3421 29.0693 44.2624 29.0693H36.3502C36.2645 29.0693 36.1909 28.9977 36.1909 28.9132V24.4251C36.1909 24.3395 36.2645 24.2678 36.3502 24.2678H44.2624C44.3421 24.2678 44.4157 24.3395 44.4157 24.4251V28.9132ZM38.4708 19.7209H42.142V22.8157H38.4708V19.7209ZM44.2624 22.8156C45.1511 22.8156 45.8682 23.5377 45.8682 24.4251V28.9132C45.8682 29.8 45.1511 30.5215 44.2624 30.5215H36.3502C35.4616 30.5215 34.7385 29.8 34.7385 28.9132V24.4251C34.7385 23.5377 35.4616 22.8156 36.3502 22.8156H37.0122V19.593C37.0122 18.8617 37.6127 18.2681 38.3421 18.2681H42.2646C42.9999 18.2681 43.5945 18.8617 43.5945 19.593V22.8156H44.2624Z" fill="white" stroke="white"/>
<path fill-rule="evenodd" clip-rule="evenodd" d="M22.7323 25.5309C22.7617 25.6219 22.7728 25.7178 22.7649 25.8131C22.7571 25.9084 22.7305 26.0012 22.6867 26.0862C22.6428 26.1712 22.5826 26.2467 22.5095 26.3084C22.4363 26.3701 22.3517 26.4168 22.2605 26.4458L20.9366 26.8766L21.7518 28.0038C22.1055 28.4883 21.748 29.1573 21.1695 29.1573C20.9427 29.1573 20.7222 29.0538 20.5811 28.8581L19.7599 27.7309L18.9386 28.8581C18.6996 29.1825 18.2461 29.2541 17.9213 29.019C17.5965 28.7822 17.5229 28.328 17.762 28.0038L18.5833 26.8766L17.2533 26.4458C16.8733 26.3228 16.6649 25.9122 16.7875 25.5309C16.9101 25.149 17.3208 24.941 17.7069 25.0652L19.0307 25.4948V24.1025C19.0306 24.007 19.0494 23.9123 19.0861 23.824C19.1227 23.7358 19.1765 23.6556 19.2442 23.5881C19.312 23.5206 19.3924 23.4671 19.4809 23.4308C19.5695 23.3944 19.6643 23.3758 19.76 23.3762C20.1583 23.3762 20.4832 23.7006 20.4832 24.1025V25.4948L21.8131 25.0652C22.193 24.941 22.6036 25.149 22.7323 25.5309ZM30.3993 25.5309C30.43 25.6215 30.4422 25.7172 30.4352 25.8125C30.4283 25.9079 30.4024 26.0009 30.359 26.0861C30.3156 26.1713 30.2557 26.247 30.1826 26.3088C30.1096 26.3705 30.0249 26.4171 29.9336 26.4458L28.6097 26.8766L29.4249 28.0038C29.7786 28.4883 29.4211 29.1573 28.8426 29.1573C28.6158 29.1573 28.3952 29.0538 28.2542 28.8581L27.433 27.7309L26.6117 28.8581C26.3727 29.1825 25.9192 29.2541 25.5944 29.019C25.2696 28.7822 25.196 28.328 25.4351 28.0038L26.2563 26.8766L24.9264 26.4458C24.5464 26.3228 24.338 25.9122 24.4606 25.5309C24.5832 25.149 24.9938 24.941 25.3799 25.0652L26.7037 25.4948V24.1025C26.7036 24.007 26.7224 23.9123 26.7591 23.824C26.7957 23.7358 26.8494 23.6556 26.9172 23.5881C26.985 23.5206 27.0654 23.4671 27.1539 23.4308C27.2424 23.3944 27.3373 23.3758 27.433 23.3762C27.8314 23.3762 28.1561 23.7006 28.1561 24.1025V25.4948L29.4861 25.0652C29.5767 25.0357 29.6722 25.0243 29.7672 25.0317C29.8622 25.0391 29.9548 25.0652 30.0397 25.1085C30.1245 25.1518 30.2 25.2114 30.2617 25.2839C30.3234 25.3563 30.3702 25.4403 30.3993 25.5309ZM43.2757 34.8983C43.3984 35.2801 43.19 35.6896 42.81 35.8138L41.48 36.2434L42.3013 37.3707C42.6583 37.8578 42.2905 38.5242 41.7129 38.5242C41.5981 38.5247 41.4848 38.4978 41.3824 38.4457C41.2801 38.3937 41.1917 38.318 41.1245 38.225L40.3033 37.0977L39.482 38.225C39.2491 38.5494 38.7956 38.6209 38.4708 38.3853C38.146 38.1504 38.0725 37.6962 38.3053 37.3707L39.1265 36.2434L37.8028 35.8138C37.4167 35.6896 37.2083 35.2802 37.337 34.8983C37.4596 34.517 37.8703 34.3089 38.2503 34.4319L39.5802 34.8627V33.4693C39.5802 33.0685 39.9051 32.743 40.3034 32.743C40.3991 32.7428 40.4939 32.7614 40.5823 32.7978C40.6708 32.8342 40.7512 32.8876 40.8189 32.9551C40.8867 33.0226 40.9404 33.1027 40.9771 33.191C41.0138 33.2792 41.0327 33.3738 41.0327 33.4693V34.8627L42.3565 34.4319C42.7425 34.3089 43.1531 34.5171 43.2757 34.8983ZM42.2277 40.668C42.2277 41.0688 41.8967 41.3943 41.4984 41.3943H39.1143C39.0187 41.3946 38.9239 41.376 38.8354 41.3396C38.747 41.3032 38.6666 41.2497 38.5988 41.1822C38.5311 41.1148 38.4773 41.0346 38.4407 40.9464C38.404 40.8581 38.3851 40.7635 38.3851 40.668C38.385 40.5724 38.4038 40.4778 38.4404 40.3895C38.4771 40.3012 38.5308 40.221 38.5986 40.1535C38.6663 40.086 38.7468 40.0326 38.8353 39.9962C38.9238 39.9598 39.0186 39.9413 39.1143 39.9416H41.4984C41.8967 39.9415 42.2277 40.2659 42.2277 40.668ZM15.0591 25.5309C15.0885 25.6219 15.0996 25.7178 15.0917 25.8131C15.0839 25.9084 15.0573 26.0012 15.0135 26.0862C14.9696 26.1712 14.9094 26.2467 14.8363 26.3084C14.7631 26.3701 14.6785 26.4168 14.5873 26.4458L13.2634 26.8766L14.0847 28.0038C14.4319 28.4838 14.0705 29.1573 13.4963 29.1573C13.2695 29.1573 13.049 29.0538 12.9079 28.8581L12.0867 27.7309L11.2654 28.8581C11.0264 29.1825 10.5729 29.2541 10.248 29.019C9.92315 28.7822 9.84971 28.328 10.0887 28.0038L10.9099 26.8766L9.57998 26.4458C9.19998 26.3228 8.99161 25.9122 9.11422 25.5309C9.23682 25.149 9.64744 24.941 10.0335 25.0652L11.3573 25.4948V24.1025C11.3572 24.007 11.376 23.9123 11.4127 23.824C11.4493 23.7357 11.5031 23.6555 11.5708 23.588C11.6386 23.5205 11.7191 23.4671 11.8076 23.4307C11.8961 23.3944 11.991 23.3758 12.0867 23.3762C12.485 23.3762 12.8099 23.7006 12.8099 24.1025V25.4948L14.1398 25.0652C14.5198 24.941 14.9304 25.149 15.0591 25.5309ZM47.5474 41.6808V15.8735C47.5475 15.7595 47.5249 15.6467 47.4812 15.5414C47.4374 15.4361 47.3732 15.3405 47.2924 15.2601C47.2115 15.1796 47.1156 15.1159 47.01 15.0726C46.9044 15.0293 46.7913 15.0072 46.6771 15.0076H33.9294C33.4513 15.0076 33.0591 15.3962 33.0591 15.8735V41.6807C33.0591 42.1581 33.4513 42.5479 33.9294 42.5479H46.6771C46.7914 42.5482 46.9045 42.526 47.0101 42.4825C47.1157 42.4391 47.2117 42.3752 47.2925 42.2947C47.3734 42.2141 47.4375 42.1185 47.4812 42.0131C47.525 41.9078 47.5475 41.7948 47.5474 41.6808ZM31.6067 15.8735C31.6067 14.5952 32.6485 13.5553 33.9294 13.5553H40.7384V8.61496C40.7384 7.97366 40.2113 7.45283 39.574 7.45283H7.22064C6.57713 7.45283 6.05622 7.97366 6.05622 8.61496V30.8997H31.6068V15.8735H31.6067ZM19.5638 32.3519H26.3605L25.956 33.7417H19.9621L19.5638 32.3519ZM31.6067 36.5836V32.3519H27.8743L27.2063 34.6688C27.1143 34.9803 26.8324 35.1939 26.5076 35.1939H19.4167C19.0919 35.1939 18.8038 34.9803 18.7181 34.6688L18.05 32.3519H2.50149C2.80793 34.7429 4.60976 36.5836 6.77928 36.5836H31.6067ZM46.6771 13.5553H42.191V8.61496C42.191 7.17259 41.0143 6 39.574 6H7.22064C5.77429 6 4.60366 7.17259 4.60366 8.61496V30.8997H1.72317C1.32486 30.8997 1 31.2234 1 31.6255C1 35.1601 3.59246 38.0358 6.77939 38.0358H31.6068V41.6807C31.6068 42.959 32.6486 44 33.9295 44H46.6773C47.9582 44 49 42.959 49 41.6807V15.8735C48.9999 14.5952 47.9581 13.5553 46.6771 13.5553ZM19.2819 15.7236C19.2819 15.6385 19.3555 15.5664 19.4412 15.5664H27.3534C27.4392 15.5664 27.5066 15.6385 27.5066 15.7236V20.2118C27.5066 20.2963 27.4393 20.3679 27.3534 20.3679H19.4412C19.3555 20.3679 19.2819 20.2963 19.2819 20.2118V15.7236ZM21.5617 11.0193H25.2328V14.1141H21.5617V11.0193ZM19.4412 21.82C18.5526 21.82 17.8293 21.0985 17.8293 20.2118V15.7236C17.8293 14.8362 18.5525 14.1141 19.4412 14.1141H20.1093V10.8915C20.1093 10.1602 20.7037 9.56662 21.433 9.56662H25.3615C26.0908 9.56662 26.6853 10.1602 26.6853 10.8915V14.1141H27.3533C28.242 14.1141 28.9652 14.8362 28.9652 15.7236V20.2118C28.9652 21.0985 28.242 21.82 27.3533 21.82H19.4412ZM44.4157 28.9132C44.4157 28.9976 44.3421 29.0693 44.2624 29.0693H36.3502C36.2645 29.0693 36.1909 28.9977 36.1909 28.9132V24.4251C36.1909 24.3395 36.2645 24.2678 36.3502 24.2678H44.2624C44.3421 24.2678 44.4157 24.3395 44.4157 24.4251V28.9132ZM38.4708 19.7209H42.142V22.8157H38.4708V19.7209ZM44.2624 22.8156C45.1511 22.8156 45.8682 23.5377 45.8682 24.4251V28.9132C45.8682 29.8 45.1511 30.5215 44.2624 30.5215H36.3502C35.4616 30.5215 34.7385 29.8 34.7385 28.9132V24.4251C34.7385 23.5377 35.4616 22.8156 36.3502 22.8156H37.0122V19.593C37.0122 18.8617 37.6127 18.2681 38.3421 18.2681H42.2646C42.9999 18.2681 43.5945 18.8617 43.5945 19.593V22.8156H44.2624Z" fill="#000025"/>
</svg>
