<svg width="50" height="50" viewBox="0 0 50 50" fill="none" xmlns="http://www.w3.org/2000/svg">
<g clip-path="url(#clip0_349_242)">
<mask id="mask0_349_242" style="mask-type:luminance" maskUnits="userSpaceOnUse" x="0" y="0" width="50" height="50">
<path d="M50 0H0V50H50V0Z" fill="white"/>
</mask>
<g mask="url(#mask0_349_242)">
<path d="M14.8 14.8H14.817M14.8 35.2H14.817M13.44 21.6H36.56C38.4642 21.6 39.4163 21.6 40.1436 21.2294C40.7833 20.9035 41.3035 20.3833 41.6294 19.7436C42 19.0163 42 18.0642 42 16.16V13.44C42 11.5358 42 10.5837 41.6294 9.85643C41.3035 9.21667 40.7833 8.69654 40.1436 8.37058C39.4163 8 38.4642 8 36.56 8H13.44C11.5358 8 10.5837 8 9.85643 8.37058C9.21667 8.69654 8.69654 9.21667 8.37058 9.85643C8 10.5837 8 11.5358 8 13.44V16.16C8 18.0642 8 19.0163 8.37058 19.7436C8.69654 20.3833 9.21667 20.9035 9.85643 21.2294C10.5837 21.6 11.5358 21.6 13.44 21.6ZM13.44 42H36.56C38.4642 42 39.4163 42 40.1436 41.6294C40.7833 41.3035 41.3035 40.7833 41.6294 40.1436C42 39.4163 42 38.4642 42 36.56V33.84C42 31.9358 42 30.9837 41.6294 30.2564C41.3035 29.6167 40.7833 29.0965 40.1436 28.7706C39.4163 28.4 38.4642 28.4 36.56 28.4H13.44C11.5358 28.4 10.5837 28.4 9.85643 28.7706C9.21667 29.0965 8.69654 29.6167 8.37058 30.2564C8 30.9837 8 31.9358 8 33.84V36.56C8 38.4642 8 39.4163 8.37058 40.1436C8.69654 40.7833 9.21667 41.3035 9.85643 41.6294C10.5837 42 11.5358 42 13.44 42Z" stroke="white" stroke-width="5" stroke-linecap="round" stroke-linejoin="round"/>
<path d="M10 3H3V10" stroke="white" stroke-width="5" stroke-linecap="round" stroke-linejoin="round"/>
<path d="M40 3H47V10" stroke="white" stroke-width="5" stroke-linecap="round" stroke-linejoin="round"/>
<path d="M10 47H3V40" stroke="white" stroke-width="5" stroke-linecap="round" stroke-linejoin="round"/>
<path d="M40 47H47V40" stroke="white" stroke-width="5" stroke-linecap="round" stroke-linejoin="round"/>
</g>
</g>
<g clip-path="url(#clip1_349_242)">
<mask id="mask1_349_242" style="mask-type:luminance" maskUnits="userSpaceOnUse" x="0" y="0" width="50" height="50">
<path d="M50 0H0V50H50V0Z" fill="white"/>
</mask>
<g mask="url(#mask1_349_242)">
<path d="M14.8 14.8H14.817M14.8 35.2H14.817M13.44 21.6H36.56C38.4642 21.6 39.4163 21.6 40.1436 21.2294C40.7833 20.9035 41.3035 20.3833 41.6294 19.7436C42 19.0163 42 18.0642 42 16.16V13.44C42 11.5358 42 10.5837 41.6294 9.85643C41.3035 9.21667 40.7833 8.69654 40.1436 8.37058C39.4163 8 38.4642 8 36.56 8H13.44C11.5358 8 10.5837 8 9.85643 8.37058C9.21667 8.69654 8.69654 9.21667 8.37058 9.85643C8 10.5837 8 11.5358 8 13.44V16.16C8 18.0642 8 19.0163 8.37058 19.7436C8.69654 20.3833 9.21667 20.9035 9.85643 21.2294C10.5837 21.6 11.5358 21.6 13.44 21.6ZM13.44 42H36.56C38.4642 42 39.4163 42 40.1436 41.6294C40.7833 41.3035 41.3035 40.7833 41.6294 40.1436C42 39.4163 42 38.4642 42 36.56V33.84C42 31.9358 42 30.9837 41.6294 30.2564C41.3035 29.6167 40.7833 29.0965 40.1436 28.7706C39.4163 28.4 38.4642 28.4 36.56 28.4H13.44C11.5358 28.4 10.5837 28.4 9.85643 28.7706C9.21667 29.0965 8.69654 29.6167 8.37058 30.2564C8 30.9837 8 31.9358 8 33.84V36.56C8 38.4642 8 39.4163 8.37058 40.1436C8.69654 40.7833 9.21667 41.3035 9.85643 41.6294C10.5837 42 11.5358 42 13.44 42Z" stroke="#000025" stroke-width="3" stroke-linecap="round" stroke-linejoin="round"/>
<path d="M10 3H3V10" stroke="#000025" stroke-width="2.88462" stroke-linecap="round" stroke-linejoin="round"/>
<path d="M40 3H47V10" stroke="#000025" stroke-width="2.88462" stroke-linecap="round" stroke-linejoin="round"/>
<path d="M10 47H3V40" stroke="#000025" stroke-width="2.88462" stroke-linecap="round" stroke-linejoin="round"/>
<path d="M40 47H47V40" stroke="#000025" stroke-width="2.88462" stroke-linecap="round" stroke-linejoin="round"/>
</g>
</g>
<defs>
<clipPath id="clip0_349_242">
<rect width="50" height="50" fill="white"/>
</clipPath>
<clipPath id="clip1_349_242">
<rect width="50" height="50" fill="white"/>
</clipPath>
</defs>
</svg>
