<svg width="50" height="50" viewBox="0 0 50 50" fill="none" xmlns="http://www.w3.org/2000/svg">
<path d="M31.2281 43.6047C29.4035 45.4651 26.6667 45.4651 24.8421 43.6047L5 23.3721L5 5L23.0175 5L42.6316 25.4651C44.4561 27.3256 44.4561 30.1163 42.6316 31.9767" stroke="white" stroke-width="5" stroke-miterlimit="10" stroke-linecap="round" stroke-linejoin="round"/>
<circle cx="16" cy="16" r="4" stroke="white" stroke-width="5"/>
<path d="M40 35V47" stroke="white" stroke-width="5" stroke-linecap="round"/>
<path d="M46 41L34 41" stroke="white" stroke-width="5" stroke-linecap="round"/>
<path d="M31.2281 43.6047C29.4035 45.4651 26.6667 45.4651 24.8421 43.6047L5 23.3721L5 5L23.0175 5L42.6316 25.4651C44.4561 27.3256 44.4561 30.1163 42.6316 31.9767" stroke="#000025" stroke-width="3" stroke-miterlimit="10" stroke-linecap="round" stroke-linejoin="round"/>
<circle cx="16" cy="16" r="4" stroke="#000025" stroke-width="3"/>
<path d="M40 35V47" stroke="#000025" stroke-width="3" stroke-linecap="round"/>
<path d="M46 41L34 41" stroke="#000025" stroke-width="3" stroke-linecap="round"/>
</svg>
