<svg width="50" height="50" viewBox="0 0 50 50" fill="none" xmlns="http://www.w3.org/2000/svg">
<path d="M42.7369 38.0154C39.9155 41.8604 35.9324 44.67 31.4024 46.0478C30.3863 46.3569 29.3627 45.6839 29.1435 44.6447L26.5421 32.311C26.3229 31.2718 27.0184 30.2767 27.9213 29.7175C28.521 29.3462 29.0493 28.8608 29.4736 28.2827C30.2812 27.1821 30.6548 25.8224 30.5228 24.4636C30.3908 23.1049 29.7626 21.8425 28.7583 20.9178C27.754 19.9932 26.4441 19.4712 25.0791 19.4518C23.714 19.4323 22.3898 19.9168 21.3595 20.8124C20.3293 21.7081 19.6653 22.9521 19.4947 24.3065C19.3241 25.661 19.6588 27.0308 20.4347 28.1539C20.8423 28.7439 21.3566 29.2441 21.9454 29.6324C22.8321 30.217 23.499 31.2316 23.2503 32.2641L20.2985 44.5187C20.0498 45.5512 19.0074 46.1948 18.0005 45.8569C13.5116 44.3505 9.61019 41.4286 6.89945 37.5048C3.82295 33.0516 2.49603 27.6206 3.1725 22.2504C3.84896 16.8803 6.48132 11.948 10.5661 8.39691C14.6509 4.8458 19.9014 2.92512 25.3134 3.00223C30.7254 3.07934 35.9191 5.14882 39.9011 8.81487C43.883 12.4809 46.3738 17.4862 46.897 22.8734C47.4202 28.2606 45.9391 33.6517 42.7369 38.0154Z" stroke="white" stroke-width="5"/>
<path d="M42.7369 38.0154C39.9155 41.8604 35.9324 44.67 31.4024 46.0478C30.3863 46.3569 29.3627 45.6839 29.1435 44.6447L26.5421 32.311C26.3229 31.2718 27.0184 30.2767 27.9213 29.7175C28.521 29.3462 29.0493 28.8608 29.4736 28.2827C30.2812 27.1821 30.6548 25.8224 30.5228 24.4636C30.3908 23.1049 29.7626 21.8425 28.7583 20.9178C27.754 19.9932 26.4441 19.4712 25.0791 19.4518C23.714 19.4323 22.3898 19.9168 21.3595 20.8124C20.3293 21.7081 19.6653 22.9521 19.4947 24.3065C19.3241 25.661 19.6588 27.0308 20.4347 28.1539C20.8423 28.7439 21.3566 29.2441 21.9454 29.6324C22.8321 30.217 23.499 31.2316 23.2503 32.2641L20.2985 44.5187C20.0498 45.5512 19.0074 46.1948 18.0005 45.8569C13.5116 44.3505 9.61019 41.4286 6.89945 37.5048C3.82295 33.0516 2.49603 27.6206 3.1725 22.2504C3.84896 16.8803 6.48132 11.948 10.5661 8.39691C14.6509 4.8458 19.9014 2.92512 25.3134 3.00223C30.7254 3.07934 35.9191 5.14882 39.9011 8.81487C43.883 12.4809 46.3738 17.4862 46.897 22.8734C47.4202 28.2606 45.9391 33.6517 42.7369 38.0154Z" stroke="#000025" stroke-width="2.88462"/>
</svg>
