<svg width="50" height="50" viewBox="0 0 50 50" fill="none" xmlns="http://www.w3.org/2000/svg">
<rect x="3.84615" y="2.88452" width="43.2692" height="33.6538" rx="2.88462" stroke="white" stroke-width="4.88"/>
<path d="M21.1538 37.5L21.1538 46.1538" stroke="white" stroke-width="4.88" stroke-linecap="round"/>
<path d="M28.8462 37.5L28.8462 46.1538" stroke="white" stroke-width="4.88" stroke-linecap="round"/>
<path d="M14.4231 47.1155L35.5769 47.1155" stroke="white" stroke-width="4.88" stroke-linecap="round"/>
<path d="M10 14L20.002 20L24.5 17.5" stroke="white" stroke-width="4.88" stroke-linecap="round" stroke-linejoin="round"/>
<path d="M20 20V29" stroke="white" stroke-width="4.88" stroke-linecap="round" stroke-linejoin="round"/>
<path d="M28.8453 12.669L21.1547 8.30416C20.4401 7.89861 19.5598 7.89861 18.8453 8.30416L11.1547 12.669C10.4402 13.0746 10 13.8241 10 14.6351V23.3649C10 24.1759 10.4402 24.9255 11.1547 25.331L18.8453 29.6958C19.5598 30.1014 20.4401 30.1014 21.1547 29.6958L25 27.5" stroke="white" stroke-width="4.88" stroke-linecap="round" stroke-linejoin="round"/>
<path d="M42 23.5213C42 27.7772 37.2225 30.8612 35.5612 31.805C35.3816 31.9071 35.2917 31.9581 35.1671 31.9845C35.07 32.0052 34.93 32.0052 34.8329 31.9845C34.7083 31.9581 34.6184 31.9071 34.4388 31.805C32.7775 30.8612 28 27.7772 28 23.5213V19.9128C28 19.1501 28 18.7687 28.1144 18.4409C28.2155 18.1512 28.3797 17.8928 28.593 17.688C28.8343 17.4561 29.1618 17.3221 29.8168 17.0543L34.5084 15.1361C34.6903 15.0617 34.7813 15.0246 34.8749 15.0098C34.9578 14.9967 35.0422 14.9967 35.1251 15.0098C35.2187 15.0246 35.3097 15.0617 35.4916 15.1361L40.1831 17.0543C40.8382 17.3221 41.1657 17.4561 41.407 17.688C41.6202 17.8928 41.7845 18.1512 41.8855 18.4409C42 18.7687 42 19.1501 42 19.9128V23.5213Z" stroke="white" stroke-width="4.88" stroke-linecap="round" stroke-linejoin="round"/>
<rect x="3.84615" y="2.88452" width="43.2692" height="33.6538" rx="2.88462" stroke="#000025" stroke-width="2.88462"/>
<path d="M21.1538 37.5L21.1538 46.1538" stroke="#000025" stroke-width="2.88462" stroke-linecap="round"/>
<path d="M28.8462 37.5L28.8462 46.1538" stroke="#000025" stroke-width="2.88462" stroke-linecap="round"/>
<path d="M14.4231 47.1155L35.5769 47.1155" stroke="#000025" stroke-width="2.88462" stroke-linecap="round"/>
<path d="M10 14L20.002 20L24.5 17.5" stroke="#000025" stroke-width="2.88462" stroke-linecap="round" stroke-linejoin="round"/>
<path d="M20 20V29" stroke="#000025" stroke-width="2.88462" stroke-linecap="round" stroke-linejoin="round"/>
<path d="M28.8453 12.669L21.1547 8.30416C20.4401 7.89861 19.5598 7.89861 18.8453 8.30416L11.1547 12.669C10.4402 13.0746 10 13.8241 10 14.6351V23.3649C10 24.1759 10.4402 24.9255 11.1547 25.331L18.8453 29.6958C19.5598 30.1014 20.4401 30.1014 21.1547 29.6958L25 27.5" stroke="#000025" stroke-width="2.88462" stroke-linecap="round" stroke-linejoin="round"/>
<path d="M42 23.5213C42 27.7772 37.2225 30.8612 35.5612 31.805C35.3816 31.9071 35.2917 31.9581 35.1671 31.9845C35.07 32.0052 34.93 32.0052 34.8329 31.9845C34.7083 31.9581 34.6184 31.9071 34.4388 31.805C32.7775 30.8612 28 27.7772 28 23.5213V19.9128C28 19.1501 28 18.7687 28.1144 18.4409C28.2155 18.1512 28.3797 17.8928 28.593 17.688C28.8343 17.4561 29.1618 17.3221 29.8168 17.0543L34.5084 15.1361C34.6903 15.0617 34.7813 15.0246 34.8749 15.0098C34.9578 14.9967 35.0422 14.9967 35.1251 15.0098C35.2187 15.0246 35.3097 15.0617 35.4916 15.1361L40.1831 17.0543C40.8382 17.3221 41.1657 17.4561 41.407 17.688C41.6202 17.8928 41.7845 18.1512 41.8855 18.4409C42 18.7687 42 19.1501 42 19.9128V23.5213Z" stroke="#000025" stroke-width="2.88462" stroke-linecap="round" stroke-linejoin="round"/>
</svg>
