<svg width="50" height="50" viewBox="0 0 50 50" fill="none" xmlns="http://www.w3.org/2000/svg">
<path d="M43 18.5834V15.7155C43 13.7413 43 12.7542 42.7056 11.9058C42.4458 11.1562 42.0235 10.4874 41.4752 9.95709C40.8546 9.35685 40.0124 9.01027 38.3281 8.31708L26.2641 3.3523C25.7962 3.1598 25.5625 3.06355 25.3217 3.02538C25.1085 2.99154 24.8915 2.99154 24.6782 3.02538C24.4375 3.06355 24.2037 3.1598 23.7359 3.3523L11.6719 8.31708C9.98754 9.01027 9.14537 9.35685 8.52473 9.95709C7.97645 10.4874 7.5541 11.1562 7.2942 11.9058C7 12.7542 7 13.7413 7 15.7155V25.0551C7 36.0705 19.2849 44.0526 23.5569 46.4953C24.0188 46.7595 24.2499 46.8916 24.5703 46.96C24.82 47.0133 25.18 47.0133 25.4297 46.96C25.7501 46.8916 25.9812 46.7595 26.4431 46.4953" stroke="white" stroke-width="5" stroke-linecap="round" stroke-linejoin="round"/>
<path d="M32.6669 22.5554C32.1156 23.8784 30.5699 24.476 29.2686 23.8754C27.1155 22.8817 24.8817 25.1155 25.8753 27.2686C26.476 28.5699 25.8783 30.1157 24.5553 30.6669C22.4816 31.531 22.4816 34.469 24.5553 35.3331C25.8783 35.8843 26.476 37.4301 25.8753 38.7313C24.8817 40.8844 27.1155 43.1183 29.2686 42.1245C30.5699 41.5239 32.1156 42.1215 32.6669 43.4445C33.531 45.5185 36.469 45.5185 37.3331 43.4445C37.8843 42.1215 39.4302 41.5239 40.7313 42.1245C42.8845 43.1183 45.1183 40.8844 44.1245 38.7313C43.5239 37.4301 44.1216 35.8843 45.4445 35.3331C47.5185 34.469 47.5185 31.531 45.4445 30.6669C44.1216 30.1157 43.5239 28.5699 44.1245 27.2686C45.1183 25.1155 42.8845 22.8817 40.7313 23.8754C39.4302 24.476 37.8843 23.8784 37.3331 22.5554C36.469 20.4815 33.531 20.4815 32.6669 22.5554Z" stroke="white" stroke-width="5" stroke-linecap="round" stroke-linejoin="round"/>
<path d="M39 33C39 35.2092 37.2092 37 35 37C32.7908 37 31 35.2092 31 33C31 30.7908 32.7908 29 35 29C37.2092 29 39 30.7908 39 33Z" stroke="white" stroke-width="5"/>
<path d="M43 18.5834V15.7155C43 13.7413 43 12.7542 42.7056 11.9058C42.4458 11.1562 42.0235 10.4874 41.4752 9.95709C40.8546 9.35685 40.0124 9.01027 38.3281 8.31708L26.2641 3.3523C25.7962 3.1598 25.5625 3.06355 25.3217 3.02538C25.1085 2.99154 24.8915 2.99154 24.6782 3.02538C24.4375 3.06355 24.2037 3.1598 23.7359 3.3523L11.6719 8.31708C9.98754 9.01027 9.14537 9.35685 8.52473 9.95709C7.97645 10.4874 7.5541 11.1562 7.2942 11.9058C7 12.7542 7 13.7413 7 15.7155V25.0551C7 36.0705 19.2849 44.0526 23.5569 46.4953C24.0188 46.7595 24.2499 46.8916 24.5703 46.96C24.82 47.0133 25.18 47.0133 25.4297 46.96C25.7501 46.8916 25.9812 46.7595 26.4431 46.4953" stroke="#000025" stroke-width="2.88462" stroke-linecap="round" stroke-linejoin="round"/>
<path d="M32.6669 22.5554C32.1156 23.8784 30.5699 24.476 29.2686 23.8754C27.1155 22.8817 24.8817 25.1155 25.8753 27.2686C26.476 28.5699 25.8783 30.1157 24.5553 30.6669C22.4816 31.531 22.4816 34.469 24.5553 35.3331C25.8783 35.8843 26.476 37.4301 25.8753 38.7313C24.8817 40.8844 27.1155 43.1183 29.2686 42.1245C30.5699 41.5239 32.1156 42.1215 32.6669 43.4445C33.531 45.5185 36.469 45.5185 37.3331 43.4445C37.8843 42.1215 39.4302 41.5239 40.7313 42.1245C42.8845 43.1183 45.1183 40.8844 44.1245 38.7313C43.5239 37.4301 44.1216 35.8843 45.4445 35.3331C47.5185 34.469 47.5185 31.531 45.4445 30.6669C44.1216 30.1157 43.5239 28.5699 44.1245 27.2686C45.1183 25.1155 42.8845 22.8817 40.7313 23.8754C39.4302 24.476 37.8843 23.8784 37.3331 22.5554C36.469 20.4815 33.531 20.4815 32.6669 22.5554Z" stroke="#000025" stroke-width="2.88462" stroke-linecap="round" stroke-linejoin="round"/>
<path d="M39 33C39 35.2092 37.2092 37 35 37C32.7908 37 31 35.2092 31 33C31 30.7908 32.7908 29 35 29C37.2092 29 39 30.7908 39 33Z" stroke="#000025" stroke-width="2.88462"/>
</svg>
