<svg width="50" height="50" viewBox="0 0 50 50" fill="none" xmlns="http://www.w3.org/2000/svg">
<path d="M2.88462 14.423L24.7336 2.88452L47.1154 14.423" stroke="white" stroke-width="4.88" stroke-linecap="round" stroke-linejoin="round"/>
<path d="M6.73077 12.5L6.73077 46.1538" stroke="white" stroke-width="4.88" stroke-linecap="round"/>
<path d="M43.2692 12.5L43.2692 46.1538" stroke="white" stroke-width="4.88" stroke-linecap="round"/>
<path d="M35.5769 28.3955C35.5769 34.4136 28.6863 38.7743 26.2902 40.1089C26.0311 40.2533 25.9015 40.3254 25.7218 40.3628C25.5817 40.3919 25.3798 40.3919 25.2397 40.3628C25.06 40.3254 24.9304 40.2533 24.6713 40.1089C22.2752 38.7743 15.3846 34.4136 15.3846 28.3955V23.293C15.3846 22.2145 15.3846 21.6752 15.5496 21.2117C15.6954 20.8021 15.9323 20.4367 16.2398 20.147C16.5879 19.8191 17.0603 19.6298 18.0051 19.2511L24.7718 16.5387C25.0341 16.4335 25.1653 16.3809 25.3003 16.3601C25.4199 16.3416 25.5416 16.3416 25.6612 16.3601C25.7963 16.3809 25.9274 16.4335 26.1898 16.5387L32.9565 19.2511C33.9012 19.6298 34.3736 19.8191 34.7217 20.147C35.0292 20.4367 35.2661 20.8021 35.4118 21.2117C35.5769 21.6752 35.5769 22.2145 35.5769 23.293V28.3955Z" stroke="white" stroke-width="4.88" stroke-linecap="round" stroke-linejoin="round"/>
<path d="M2.88462 14.423L24.7336 2.88452L47.1154 14.423" stroke="#000025" stroke-width="2.88462" stroke-linecap="round" stroke-linejoin="round"/>
<path d="M6.73077 12.5L6.73077 46.1538" stroke="#000025" stroke-width="2.88462" stroke-linecap="round"/>
<path d="M43.2692 12.5L43.2692 46.1538" stroke="#000025" stroke-width="2.88462" stroke-linecap="round"/>
<path d="M35.5769 28.3955C35.5769 34.4136 28.6863 38.7743 26.2902 40.1089C26.0311 40.2533 25.9015 40.3254 25.7218 40.3628C25.5817 40.3919 25.3798 40.3919 25.2397 40.3628C25.06 40.3254 24.9304 40.2533 24.6713 40.1089C22.2752 38.7743 15.3846 34.4136 15.3846 28.3955V23.293C15.3846 22.2145 15.3846 21.6752 15.5496 21.2117C15.6954 20.8021 15.9323 20.4367 16.2398 20.147C16.5879 19.8191 17.0603 19.6298 18.0051 19.2511L24.7718 16.5387C25.0341 16.4335 25.1653 16.3809 25.3003 16.3601C25.4199 16.3416 25.5416 16.3416 25.6612 16.3601C25.7963 16.3809 25.9274 16.4335 26.1898 16.5387L32.9565 19.2511C33.9012 19.6298 34.3736 19.8191 34.7217 20.147C35.0292 20.4367 35.2661 20.8021 35.4118 21.2117C35.5769 21.6752 35.5769 22.2145 35.5769 23.293V28.3955Z" stroke="#000025" stroke-width="2.88462" stroke-linecap="round" stroke-linejoin="round"/>
</svg>
