<svg width="50" height="50" viewBox="0 0 50 50" fill="none" xmlns="http://www.w3.org/2000/svg">
<path d="M43.2692 11.0576V3.84606C43.2692 3.31502 42.8387 2.88452 42.3077 2.88452H5.76923C5.23819 2.88452 4.80769 3.31502 4.80769 3.84606V46.1538C4.80769 46.6848 5.23819 47.1153 5.76923 47.1153H42.3077C42.8387 47.1153 43.2692 46.6848 43.2692 46.1538V30.2884" stroke="white" stroke-width="4.88" stroke-linecap="round"/>
<line x1="12.44" y1="17.56" x2="29.56" y2="17.56" stroke="white" stroke-width="4.88" stroke-linecap="round"/>
<line x1="12.44" y1="10.56" x2="37.56" y2="10.56" stroke="white" stroke-width="4.88" stroke-linecap="round"/>
<line x1="11.44" y1="24.56" x2="21.56" y2="24.56" stroke="white" stroke-width="4.88" stroke-linecap="round"/>
<path d="M40.1288 19.1909L43.7784 22.8057M24 39L24.0612 38.5754C24.2779 37.0734 24.3862 36.3223 24.6326 35.621C24.8513 34.9988 25.15 34.407 25.5214 33.8606C25.9399 33.2445 26.4815 32.708 27.5648 31.6351L42.5945 16.7487C43.6024 15.7504 45.2363 15.7504 46.2442 16.7487C47.2519 17.7469 47.2519 19.3653 46.2442 20.3635L30.9387 35.523C29.9559 36.4965 29.4645 36.9831 28.9048 37.3701C28.408 37.7137 27.8722 37.9983 27.3084 38.2181C26.6732 38.4658 25.9919 38.6019 24.6296 38.8741L24 39Z" stroke="white" stroke-width="4.88" stroke-linecap="round" stroke-linejoin="round"/>
<path d="M43.2692 11.0576V3.84606C43.2692 3.31502 42.8387 2.88452 42.3077 2.88452H5.76923C5.23819 2.88452 4.80769 3.31502 4.80769 3.84606V46.1538C4.80769 46.6848 5.23819 47.1153 5.76923 47.1153H42.3077C42.8387 47.1153 43.2692 46.6848 43.2692 46.1538V30.2884" stroke="#000025" stroke-width="2.88462" stroke-linecap="round"/>
<line x1="12.0192" y1="17.7884" x2="29.3269" y2="17.7884" stroke="#000025" stroke-width="2.88462" stroke-linecap="round"/>
<line x1="12.0192" y1="10.0963" x2="37.0192" y2="10.0963" stroke="#000025" stroke-width="2.88462" stroke-linecap="round"/>
<line x1="12.0192" y1="24.5191" x2="20.6731" y2="24.5191" stroke="#000025" stroke-width="2.88462" stroke-linecap="round"/>
<path d="M40.1288 19.1909L43.7784 22.8057M24 39L24.0612 38.5754C24.2779 37.0734 24.3862 36.3223 24.6326 35.621C24.8513 34.9988 25.15 34.407 25.5214 33.8606C25.9399 33.2445 26.4815 32.708 27.5648 31.6351L42.5945 16.7487C43.6024 15.7504 45.2363 15.7504 46.2442 16.7487C47.2519 17.7469 47.2519 19.3653 46.2442 20.3635L30.9387 35.523C29.9559 36.4965 29.4645 36.9831 28.9048 37.3701C28.408 37.7137 27.8722 37.9983 27.3084 38.2181C26.6732 38.4658 25.9919 38.6019 24.6296 38.8741L24 39Z" stroke="#000025" stroke-width="2.88462" stroke-linecap="round" stroke-linejoin="round"/>
</svg>
