<svg width="51" height="50" viewBox="0 0 51 50" fill="none" xmlns="http://www.w3.org/2000/svg">
<path d="M24.5192 46.1539H7.69231C7.16127 46.1539 6.73077 45.7234 6.73077 45.1924V5.76928C6.73077 5.23824 7.16127 4.80774 7.69231 4.80774H41.3462C41.8772 4.80774 42.3077 5.23823 42.3077 5.76928V27.4039" stroke="white" stroke-width="4.88" stroke-linecap="round"/>
<line x1="15.44" y1="14.56" x2="32.56" y2="14.56" stroke="white" stroke-width="4.88" stroke-linecap="round"/>
<line x1="14.44" y1="21.56" x2="23.56" y2="21.56" stroke="white" stroke-width="4.88" stroke-linecap="round"/>
<path d="M26.9231 37.9808L33.6538 44.7116L47.5962 30.7693" stroke="white" stroke-width="4.88" stroke-linecap="round" stroke-linejoin="round"/>
<path d="M24.5192 46.1539H7.69231C7.16127 46.1539 6.73077 45.7234 6.73077 45.1924V5.76928C6.73077 5.23824 7.16127 4.80774 7.69231 4.80774H41.3462C41.8772 4.80774 42.3077 5.23823 42.3077 5.76928V27.4039" stroke="#000025" stroke-width="2.88462" stroke-linecap="round"/>
<line x1="14.9038" y1="14.9039" x2="32.2115" y2="14.9039" stroke="#000025" stroke-width="2.88462" stroke-linecap="round"/>
<line x1="14.9038" y1="21.6346" x2="23.5577" y2="21.6346" stroke="#000025" stroke-width="2.88462" stroke-linecap="round"/>
<path d="M26.9231 37.9808L33.6538 44.7116L47.5962 30.7693" stroke="#000025" stroke-width="2.88462" stroke-linecap="round" stroke-linejoin="round"/>
</svg>
