<svg width="50" height="50" viewBox="0 0 50 50" fill="none" xmlns="http://www.w3.org/2000/svg">
<path d="M20.4301 16C16.4219 18.7114 16 24.8922 16 24.8922C17.6569 28.3568 17.8689 30.3157 17.2363 33.841C20.1859 36.2135 21.3385 37.7268 22.6346 41L21.0192 24.8922H29.6731L26.8214 41C28.8389 37.5029 29.5035 35.9688 32.7637 33.841C32.4338 30.4284 32.6555 28.4726 34 24.8922C34 24.8922 33.2466 18.7114 29.093 16" stroke="white" stroke-width="4" stroke-linecap="round" stroke-linejoin="round"/>
<path d="M23.6486 5.30767C24.5026 4.89744 25.4974 4.89744 26.3514 5.30767L40.6943 12.1975C41.5483 12.6078 42.1685 13.3836 42.3795 14.3053L45.9219 29.7868C46.1328 30.7085 45.9114 31.6759 45.3205 32.4151L35.3948 44.8303C34.8039 45.5695 33.9076 46 32.9597 46H17.0403C16.0924 46 15.1961 45.5695 14.6052 44.8303L4.67954 32.4151C4.08856 31.6759 3.8672 30.7085 4.07812 29.7868L7.62053 14.3053C7.83145 13.3836 8.45169 12.6078 9.30567 12.1975L23.6486 5.30767Z" stroke="white" stroke-width="5"/>
<path d="M26.75 20.087L24.75 22L22.75 20.087L21.75 11H27.75L26.75 20.087Z" stroke="white" stroke-width="4" stroke-linecap="round" stroke-linejoin="round"/>
<path d="M20.4301 16C16.4219 18.7114 16 24.8922 16 24.8922C17.6569 28.3568 17.8689 30.3157 17.2363 33.841C20.1859 36.2135 21.3385 37.7268 22.6346 41L21.0192 24.8922H29.6731L26.8214 41C28.8389 37.5029 29.5035 35.9688 32.7637 33.841C32.4338 30.4284 32.6555 28.4726 34 24.8922C34 24.8922 33.2466 18.7114 29.093 16" stroke="#000025" stroke-width="2" stroke-linecap="round" stroke-linejoin="round"/>
<path d="M23.6486 5.30767C24.5026 4.89744 25.4974 4.89744 26.3514 5.30767L40.6943 12.1975C41.5483 12.6078 42.1685 13.3836 42.3795 14.3053L45.9219 29.7868C46.1328 30.7085 45.9114 31.6759 45.3205 32.4151L35.3948 44.8303C34.8039 45.5695 33.9076 46 32.9597 46H17.0403C16.0924 46 15.1961 45.5695 14.6052 44.8303L4.67954 32.4151C4.08856 31.6759 3.8672 30.7085 4.07812 29.7868L7.62053 14.3053C7.83145 13.3836 8.45169 12.6078 9.30567 12.1975L23.6486 5.30767Z" stroke="#000025" stroke-width="2.88462"/>
<path d="M26.75 20.087L24.75 22L22.75 20.087L21.75 11H27.75L26.75 20.087Z" stroke="#000025" stroke-width="2" stroke-linecap="round" stroke-linejoin="round"/>
</svg>
