<svg width="50" height="50" viewBox="0 0 50 50" fill="none" xmlns="http://www.w3.org/2000/svg">
<path d="M35.6805 38C38.3197 37.9388 40.8406 36.8709 42.7465 35.0072C44.6526 33.1437 45.8053 30.6191 45.9775 27.9314C46.1498 25.2439 45.3291 22.5879 43.6772 20.4869C42.0254 18.3859 39.6621 16.9923 37.0533 16.5807C36.0539 13.7254 34.1026 11.3197 31.5407 9.78328C28.9788 8.24689 25.9691 7.67754 23.0376 8.17559C20.1063 8.67361 17.4397 10.2073 15.504 12.5079C13.5683 14.8084 12.4867 17.7298 12.4481 20.7614C10.2075 20.7614 8.05873 21.6693 6.47439 23.2856C4.89005 24.9021 4 27.0949 4 29.3807C4 31.6668 4.89005 33.8591 6.47439 35.4754C8.05873 37.092 10.2075 38 12.4481 38H35.6805Z" stroke="white" stroke-width="5" stroke-linecap="round" stroke-linejoin="round"/>
<path d="M20.9799 21.9524V18.9728C20.9799 16.7787 22.7586 15 24.9527 15C27.1468 15 28.9255 16.7787 28.9255 18.9728V21.9524" stroke="white" stroke-width="5" stroke-linecap="round"/>
<path d="M18 21.9524H31.9048V30.8912C31.9048 31.9883 31.0155 32.8776 29.9184 32.8776H19.9864C18.8893 32.8776 18 31.9883 18 30.8912V21.9524Z" stroke="white" stroke-width="5" stroke-linejoin="round"/>
<circle cx="25" cy="27.5" r="2" stroke="white" stroke-width="2"/>
<path d="M35.6805 38C38.3197 37.9388 40.8406 36.8709 42.7465 35.0072C44.6526 33.1437 45.8053 30.6191 45.9775 27.9314C46.1498 25.2439 45.3291 22.5879 43.6772 20.4869C42.0254 18.3859 39.6621 16.9923 37.0533 16.5807C36.0539 13.7254 34.1026 11.3197 31.5407 9.78328C28.9788 8.24689 25.9691 7.67754 23.0376 8.17559C20.1063 8.67361 17.4397 10.2073 15.504 12.5079C13.5683 14.8084 12.4867 17.7298 12.4481 20.7614C10.2075 20.7614 8.05873 21.6693 6.47439 23.2856C4.89005 24.9021 4 27.0949 4 29.3807C4 31.6668 4.89005 33.8591 6.47439 35.4754C8.05873 37.092 10.2075 38 12.4481 38H35.6805Z" stroke="#000025" stroke-width="2.88462" stroke-linecap="round" stroke-linejoin="round"/>
<path d="M20.9799 21.9524V18.9728C20.9799 16.7787 22.7586 15 24.9527 15C27.1468 15 28.9255 16.7787 28.9255 18.9728V21.9524" stroke="#000025" stroke-width="2.88462" stroke-linecap="round"/>
<path d="M18 21.9524H31.9048V30.8912C31.9048 31.9883 31.0155 32.8776 29.9184 32.8776H19.9864C18.8893 32.8776 18 31.9883 18 30.8912V21.9524Z" stroke="#000025" stroke-width="2.88462" stroke-linejoin="round"/>
<circle cx="25" cy="27.5" r="2" fill="#000025"/>
</svg>
