<svg width="50" height="50" viewBox="0 0 50 50" fill="none" xmlns="http://www.w3.org/2000/svg">
<path d="M42.9785 21.6026C43.1427 19.0943 42.361 16.6153 40.7879 14.6544C39.2147 12.6935 36.9639 11.3928 34.4793 11.0087C33.5275 8.34372 31.6691 6.09837 29.2292 4.66439C26.7893 3.23043 23.923 2.69904 21.1311 3.16388C18.3393 3.6287 15.7997 5.06017 13.9562 7.20733C12.1127 9.35449 11.0826 12.0812 11.0458 14.9107C8.91194 14.9107 6.86546 15.758 5.35656 17.2665C3.84767 18.7753 3 20.8219 3 22.9553C3 25.089 3.84767 27.1351 5.35656 28.6437C6.86546 30.1525 8.91194 31 11.0458 31" stroke="white" stroke-width="5" stroke-linecap="round" stroke-linejoin="round"/>
<path d="M17 34.5H42M17 34.5C17 41.4036 22.5964 47 29.5 47M17 34.5C17 27.5964 22.5964 22 29.5 22M42 34.5C42 41.4036 36.4036 47 29.5 47M42 34.5C42 27.5964 36.4036 22 29.5 22M29.5 47C19.4383 36 25.3077 25.75 29.5 22M29.5 47C39.5617 36 33.6924 25.75 29.5 22" stroke="white" stroke-width="5" stroke-linecap="round" stroke-linejoin="round"/>
<path d="M42.9785 21.6026C43.1427 19.0943 42.361 16.6153 40.7879 14.6544C39.2147 12.6935 36.9639 11.3928 34.4793 11.0087C33.5275 8.34372 31.6691 6.09837 29.2292 4.66439C26.7893 3.23043 23.923 2.69904 21.1311 3.16388C18.3393 3.6287 15.7997 5.06017 13.9562 7.20733C12.1127 9.35449 11.0826 12.0812 11.0458 14.9107C8.91194 14.9107 6.86546 15.758 5.35656 17.2665C3.84767 18.7753 3 20.8219 3 22.9553C3 25.089 3.84767 27.1351 5.35656 28.6437C6.86546 30.1525 8.91194 31 11.0458 31" stroke="#000025" stroke-width="3" stroke-linecap="round" stroke-linejoin="round"/>
<path d="M17 34.5H42M17 34.5C17 41.4036 22.5964 47 29.5 47M17 34.5C17 27.5964 22.5964 22 29.5 22M42 34.5C42 41.4036 36.4036 47 29.5 47M42 34.5C42 27.5964 36.4036 22 29.5 22M29.5 47C19.4383 36 25.3077 25.75 29.5 22M29.5 47C39.5617 36 33.6924 25.75 29.5 22" stroke="#000025" stroke-width="3" stroke-linecap="round" stroke-linejoin="round"/>
</svg>
