<svg width="52" height="51" viewBox="0 0 52 51" fill="none" xmlns="http://www.w3.org/2000/svg">
<path d="M46.5988 19.5805C44.7629 17.3173 42.1362 15.816 39.2367 15.3727C38.1259 12.2968 35.9572 9.70525 33.1098 8.05017C30.2624 6.39511 26.9173 5.78179 23.6592 6.3183C20.4011 6.85479 17.4374 8.50697 15.286 10.9852C13.1346 13.4634 11.9324 16.6105 11.8896 19.8763C9.39929 19.8763 7.01103 20.8542 5.25013 22.5954C3.48923 24.3368 2.5 26.6989 2.5 29.1613C2.5 31.6239 3.48923 33.9856 5.25013 35.7268C7.01103 37.4682 9.39929 38.4464 11.8896 38.4464H20.2308" stroke="white" stroke-width="4.88" stroke-linecap="round" stroke-linejoin="round"/>
<path d="M34.7209 25.5963C34.1687 26.9214 32.6205 27.52 31.3171 26.9185C29.1606 25.9232 26.9232 28.1606 27.9185 30.3171C28.52 31.6205 27.9214 33.1687 26.5964 33.7209C24.5192 34.5864 24.5192 37.529 26.5964 38.3945C27.9214 38.9466 28.52 40.4949 27.9185 41.7982C26.9232 43.9548 29.1606 46.1922 31.3171 45.1968C32.6205 44.5953 34.1687 45.1939 34.7209 46.519C35.5864 48.5962 38.529 48.5962 39.3945 46.519C39.9466 45.1939 41.4949 44.5953 42.7982 45.1968C44.9548 46.1922 47.1922 43.9548 46.1968 41.7982C45.5953 40.4949 46.1939 38.9466 47.519 38.3945C49.5962 37.529 49.5962 34.5864 47.519 33.7209C46.1939 33.1687 45.5953 31.6205 46.1968 30.3171C47.1922 28.1606 44.9548 25.9232 42.7982 26.9185C41.4949 27.52 39.9466 26.9214 39.3945 25.5963C38.529 23.5192 35.5864 23.5192 34.7209 25.5963Z" stroke="white" stroke-width="4.88" stroke-linecap="round" stroke-linejoin="round"/>
<path d="M40.4231 36.0578C40.4231 37.9165 38.9164 39.4232 37.0577 39.4232C35.199 39.4232 33.6923 37.9165 33.6923 36.0578C33.6923 34.1991 35.199 32.6924 37.0577 32.6924C38.9164 32.6924 40.4231 34.1991 40.4231 36.0578Z" stroke="white" stroke-width="4.88"/>
<path d="M46.5988 19.5805C44.7629 17.3173 42.1362 15.816 39.2367 15.3727C38.1259 12.2968 35.9572 9.70525 33.1098 8.05017C30.2624 6.39511 26.9173 5.78179 23.6592 6.3183C20.4011 6.85479 17.4374 8.50697 15.286 10.9852C13.1346 13.4634 11.9324 16.6105 11.8896 19.8763C9.39929 19.8763 7.01103 20.8542 5.25013 22.5954C3.48923 24.3368 2.5 26.6989 2.5 29.1613C2.5 31.6239 3.48923 33.9856 5.25013 35.7268C7.01103 37.4682 9.39929 38.4464 11.8896 38.4464H20.2308" stroke="#000025" stroke-width="2.88462" stroke-linecap="round" stroke-linejoin="round"/>
<path d="M34.7209 25.5963C34.1687 26.9214 32.6205 27.52 31.3171 26.9185C29.1606 25.9232 26.9232 28.1606 27.9185 30.3171C28.52 31.6205 27.9214 33.1687 26.5964 33.7209C24.5192 34.5864 24.5192 37.529 26.5964 38.3945C27.9214 38.9466 28.52 40.4949 27.9185 41.7982C26.9232 43.9548 29.1606 46.1922 31.3171 45.1968C32.6205 44.5953 34.1687 45.1939 34.7209 46.519C35.5864 48.5962 38.529 48.5962 39.3945 46.519C39.9466 45.1939 41.4949 44.5953 42.7982 45.1968C44.9548 46.1922 47.1922 43.9548 46.1968 41.7982C45.5953 40.4949 46.1939 38.9466 47.519 38.3945C49.5962 37.529 49.5962 34.5864 47.519 33.7209C46.1939 33.1687 45.5953 31.6205 46.1968 30.3171C47.1922 28.1606 44.9548 25.9232 42.7982 26.9185C41.4949 27.52 39.9466 26.9214 39.3945 25.5963C38.529 23.5192 35.5864 23.5192 34.7209 25.5963Z" stroke="#000025" stroke-width="2.88462" stroke-linecap="round" stroke-linejoin="round"/>
<path d="M40.4231 36.0578C40.4231 37.9165 38.9164 39.4232 37.0577 39.4232C35.199 39.4232 33.6923 37.9165 33.6923 36.0578C33.6923 34.1991 35.199 32.6924 37.0577 32.6924C38.9164 32.6924 40.4231 34.1991 40.4231 36.0578Z" stroke="#000025" stroke-width="2.88462"/>
</svg>
