<svg width="50" height="50" viewBox="0 0 50 50" fill="none" xmlns="http://www.w3.org/2000/svg">
<g clip-path="url(#clip0_349_137)">
<path d="M19.4191 41.3826C16.5914 44.1704 11.8043 42.1593 11.816 38.1885C11.8234 35.6555 9.71388 33.6235 7.18246 33.7114C2.99394 33.8568 0.883267 28.6878 3.97633 25.8597C5.84564 24.1507 5.93001 21.2228 4.15174 19.419C1.3641 16.5914 3.37523 11.8043 7.34589 11.816C9.87887 11.8234 11.9108 9.71383 11.823 7.1824C11.6777 2.99392 16.8467 0.883242 19.6746 3.97628C21.3838 5.84567 24.3116 5.92998 26.1154 4.15172C28.943 1.36408 33.7301 3.37521 33.7184 7.34587C33.711 9.87884 35.8207 11.9109 38.352 11.8229C42.5405 11.6776 44.6512 16.8467 41.558 19.6746" stroke="white" stroke-width="5" stroke-linecap="round" stroke-linejoin="round"/>
<path d="M23 29C19.1339 29 16 26.09 16 22.5C16 18.91 19.1339 16 23 16C24.9852 16 26.7774 16.7673 28.0513 18" stroke="white" stroke-width="5" stroke-linecap="round"/>
<path d="M28 46.28V23.72C28 23.3224 28.319 23 28.7125 23H42.5487C42.7376 23 42.9188 23.0759 43.0524 23.2109L46.7914 26.9891C46.925 27.1241 47 27.3073 47 27.4982V46.28C47 46.6777 46.681 47 46.2875 47H28.7125C28.319 47 28 46.6777 28 46.28Z" stroke="white" stroke-width="5" stroke-linecap="round" stroke-linejoin="round"/>
<path d="M42 28.1V23.5303C42 23.2374 42.1979 23 42.442 23C42.5591 23 42.6715 23.0559 42.7545 23.1553L46.8705 28.0947C46.9535 28.1941 47 28.329 47 28.4697C47 28.7626 46.8021 29 46.558 29H42.75C42.3358 29 42 28.5971 42 28.1Z" stroke="white" stroke-width="5" stroke-linecap="round" stroke-linejoin="round"/>
<path d="M32.5 35H42" stroke="white" stroke-width="5" stroke-linecap="round" stroke-linejoin="round"/>
<path d="M33 40H40" stroke="white" stroke-width="5" stroke-linecap="round" stroke-linejoin="round"/>
<path d="M32.5 29H37.5" stroke="white" stroke-width="5" stroke-linecap="round" stroke-linejoin="round"/>
</g>
<path d="M19.4191 41.3826C16.5914 44.1704 11.8043 42.1593 11.816 38.1885C11.8234 35.6555 9.71388 33.6235 7.18246 33.7114C2.99394 33.8568 0.883267 28.6878 3.97633 25.8597C5.84564 24.1507 5.93001 21.2228 4.15174 19.419C1.3641 16.5914 3.37523 11.8043 7.34589 11.816C9.87887 11.8234 11.9108 9.71383 11.823 7.1824C11.6777 2.99392 16.8467 0.883242 19.6746 3.97628C21.3838 5.84567 24.3116 5.92998 26.1154 4.15172C28.943 1.36408 33.7301 3.37521 33.7184 7.34587C33.711 9.87884 35.8207 11.9109 38.352 11.8229C42.5405 11.6776 44.6512 16.8467 41.558 19.6746" stroke="#000025" stroke-width="2.88462" stroke-linecap="round" stroke-linejoin="round"/>
<path d="M23 29C19.1339 29 16 26.09 16 22.5C16 18.91 19.1339 16 23 16C24.9852 16 26.7774 16.7673 28.0513 18" stroke="#000025" stroke-width="2.88462" stroke-linecap="round"/>
<path d="M28 46.28V23.72C28 23.3224 28.319 23 28.7125 23H42.5487C42.7376 23 42.9188 23.0759 43.0524 23.2109L46.7914 26.9891C46.925 27.1241 47 27.3073 47 27.4982V46.28C47 46.6777 46.681 47 46.2875 47H28.7125C28.319 47 28 46.6777 28 46.28Z" stroke="#000025" stroke-width="2.5" stroke-linecap="round" stroke-linejoin="round"/>
<path d="M42 28.1V23.5303C42 23.2374 42.1979 23 42.442 23C42.5591 23 42.6715 23.0559 42.7545 23.1553L46.8705 28.0947C46.9535 28.1941 47 28.329 47 28.4697C47 28.7626 46.8021 29 46.558 29H42.75C42.3358 29 42 28.5971 42 28.1Z" stroke="#000025" stroke-width="2.5" stroke-linecap="round" stroke-linejoin="round"/>
<path d="M32.5 35H42" stroke="#000025" stroke-width="2.5" stroke-linecap="round" stroke-linejoin="round"/>
<path d="M33 40H40" stroke="#000025" stroke-width="2.5" stroke-linecap="round" stroke-linejoin="round"/>
<path d="M32.5 29H37.5" stroke="#000025" stroke-width="2.5" stroke-linecap="round" stroke-linejoin="round"/>
<defs>
<clipPath id="clip0_349_137">
<rect width="50" height="50" fill="white"/>
</clipPath>
</defs>
</svg>
