<svg width="50" height="50" viewBox="0 0 50 50" fill="none" xmlns="http://www.w3.org/2000/svg">
<path d="M36.1891 39C38.954 38.9368 41.5949 37.8332 43.5916 35.9074C45.5884 33.9818 46.7961 31.3731 46.9764 28.5958C47.1569 25.8186 46.2971 23.0741 44.5666 20.9031C42.8361 18.7321 40.3602 17.292 37.6273 16.8668C36.5803 13.9162 34.536 11.4303 31.8521 9.84272C29.1683 8.25511 26.0153 7.66679 22.9442 8.18144C19.8733 8.69606 17.0797 10.2809 15.0518 12.6581C13.024 15.0353 11.8908 18.0542 11.8504 21.1868C9.50313 21.1868 7.252 22.1249 5.59222 23.7951C3.93243 25.4656 3 27.7313 3 30.0934C3 32.4557 3.93243 34.7211 5.59222 36.3913C7.252 38.0617 9.50313 39 11.8504 39H36.1891Z" stroke="white" stroke-width="5" stroke-linecap="round" stroke-linejoin="round"/>
<path d="M20.1923 30.7692L30.7692 20.1923" stroke="white" stroke-width="5" stroke-linecap="round"/>
<path d="M30.7692 30.7692L20.1923 20.1923" stroke="white" stroke-width="5" stroke-linecap="round"/>
<path d="M36.1891 39C38.954 38.9368 41.5949 37.8332 43.5916 35.9074C45.5884 33.9818 46.7961 31.3731 46.9764 28.5958C47.1569 25.8186 46.2971 23.0741 44.5666 20.9031C42.8361 18.7321 40.3602 17.292 37.6273 16.8668C36.5803 13.9162 34.536 11.4303 31.8521 9.84272C29.1683 8.25511 26.0153 7.66679 22.9442 8.18144C19.8733 8.69606 17.0797 10.2809 15.0518 12.6581C13.024 15.0353 11.8908 18.0542 11.8504 21.1868C9.50313 21.1868 7.252 22.1249 5.59222 23.7951C3.93243 25.4656 3 27.7313 3 30.0934C3 32.4557 3.93243 34.7211 5.59222 36.3913C7.252 38.0617 9.50313 39 11.8504 39H36.1891Z" stroke="#000025" stroke-width="2.88462" stroke-linecap="round" stroke-linejoin="round"/>
<path d="M20.1923 30.7692L30.7692 20.1923" stroke="#000025" stroke-width="2.88462" stroke-linecap="round"/>
<path d="M30.7692 30.7692L20.1923 20.1923" stroke="#000025" stroke-width="2.88462" stroke-linecap="round"/>
</svg>
