<svg width="50" height="50" viewBox="0 0 50 50" fill="none" xmlns="http://www.w3.org/2000/svg">
<g clip-path="url(#clip0_349_191)">
<path d="M25 33.1154C29.482 33.1154 33.1154 29.482 33.1154 25C33.1154 20.518 29.482 16.8846 25 16.8846C20.518 16.8846 16.8846 20.518 16.8846 25C16.8846 29.482 20.518 33.1154 25 33.1154Z" stroke="white" stroke-width="5"/>
<path d="M25 11C27.3578 11 29.2692 9.08861 29.2692 6.73078C29.2692 4.37295 27.3578 2.46155 25 2.46155C22.6422 2.46155 20.7308 4.37295 20.7308 6.73078C20.7308 9.08861 22.6422 11 25 11Z" stroke="white" stroke-width="5"/>
<path d="M25 47.5385C27.3578 47.5385 29.2692 45.6271 29.2692 43.2692C29.2692 40.9114 27.3578 39 25 39C22.6422 39 20.7308 40.9114 20.7308 43.2692C20.7308 45.6271 22.6422 47.5385 25 47.5385Z" stroke="white" stroke-width="5"/>
<path d="M42.3077 40.8077C44.6655 40.8077 46.5769 38.8963 46.5769 36.5385C46.5769 34.1807 44.6655 32.2693 42.3077 32.2693C39.9499 32.2693 38.0385 34.1807 38.0385 36.5385C38.0385 38.8963 39.9499 40.8077 42.3077 40.8077Z" stroke="white" stroke-width="5"/>
<path d="M42.3077 17.7308C44.6655 17.7308 46.5769 15.8194 46.5769 13.4616C46.5769 11.1038 44.6655 9.19238 42.3077 9.19238C39.9499 9.19238 38.0385 11.1038 38.0385 13.4616C38.0385 15.8194 39.9499 17.7308 42.3077 17.7308Z" stroke="white" stroke-width="5"/>
<path d="M7.69231 17.7308C10.0501 17.7308 11.9615 15.8194 11.9615 13.4616C11.9615 11.1038 10.0501 9.19238 7.69231 9.19238C5.33448 9.19238 3.42308 11.1038 3.42308 13.4616C3.42308 15.8194 5.33448 17.7308 7.69231 17.7308Z" stroke="white" stroke-width="5"/>
<path d="M7.69231 40.8077C10.0501 40.8077 11.9615 38.8963 11.9615 36.5385C11.9615 34.1807 10.0501 32.2693 7.69231 32.2693C5.33448 32.2693 3.42308 34.1807 3.42308 36.5385C3.42308 38.8963 5.33448 40.8077 7.69231 40.8077Z" stroke="white" stroke-width="5"/>
<path d="M25 16.3461V10.5769" stroke="white" stroke-width="5"/>
<path d="M25 38.4616V32.6923" stroke="white" stroke-width="5"/>
<path d="M11.5385 34.6154L17.8824 30.7692" stroke="white" stroke-width="5"/>
<path d="M11.5385 15.3846L19.2308 19.2308" stroke="white" stroke-width="5"/>
<path d="M39.0362 34.6154L30.7692 28.8461" stroke="white" stroke-width="5"/>
<path d="M38.4615 17.3077L32.6923 21.1539" stroke="white" stroke-width="5"/>
</g>
<path d="M25 33.1154C29.482 33.1154 33.1154 29.482 33.1154 25C33.1154 20.518 29.482 16.8846 25 16.8846C20.518 16.8846 16.8846 20.518 16.8846 25C16.8846 29.482 20.518 33.1154 25 33.1154Z" stroke="#000025" stroke-width="3"/>
<path d="M25 11C27.3578 11 29.2692 9.08861 29.2692 6.73078C29.2692 4.37295 27.3578 2.46155 25 2.46155C22.6422 2.46155 20.7308 4.37295 20.7308 6.73078C20.7308 9.08861 22.6422 11 25 11Z" stroke="#000025" stroke-width="3"/>
<path d="M25 47.5385C27.3578 47.5385 29.2692 45.6271 29.2692 43.2692C29.2692 40.9114 27.3578 39 25 39C22.6422 39 20.7308 40.9114 20.7308 43.2692C20.7308 45.6271 22.6422 47.5385 25 47.5385Z" stroke="#000025" stroke-width="3"/>
<path d="M42.3077 40.8077C44.6655 40.8077 46.5769 38.8963 46.5769 36.5385C46.5769 34.1807 44.6655 32.2693 42.3077 32.2693C39.9499 32.2693 38.0385 34.1807 38.0385 36.5385C38.0385 38.8963 39.9499 40.8077 42.3077 40.8077Z" stroke="#000025" stroke-width="3"/>
<path d="M42.3077 17.7308C44.6655 17.7308 46.5769 15.8194 46.5769 13.4616C46.5769 11.1038 44.6655 9.19238 42.3077 9.19238C39.9499 9.19238 38.0385 11.1038 38.0385 13.4616C38.0385 15.8194 39.9499 17.7308 42.3077 17.7308Z" stroke="#000025" stroke-width="3"/>
<path d="M7.69231 17.7308C10.0501 17.7308 11.9615 15.8194 11.9615 13.4616C11.9615 11.1038 10.0501 9.19238 7.69231 9.19238C5.33448 9.19238 3.42308 11.1038 3.42308 13.4616C3.42308 15.8194 5.33448 17.7308 7.69231 17.7308Z" stroke="#000025" stroke-width="3"/>
<path d="M7.69231 40.8077C10.0501 40.8077 11.9615 38.8963 11.9615 36.5385C11.9615 34.1807 10.0501 32.2693 7.69231 32.2693C5.33448 32.2693 3.42308 34.1807 3.42308 36.5385C3.42308 38.8963 5.33448 40.8077 7.69231 40.8077Z" stroke="#000025" stroke-width="3"/>
<path d="M25 16.3461V10.5769" stroke="#000025" stroke-width="3"/>
<path d="M25 38.4616V32.6923" stroke="#000025" stroke-width="3"/>
<path d="M11.5385 34.6154L17.8824 30.7692" stroke="#000025" stroke-width="3"/>
<path d="M11.5385 15.3846L19.2308 19.2308" stroke="#000025" stroke-width="3"/>
<path d="M39.0362 34.6154L30.7692 28.8461" stroke="#000025" stroke-width="3"/>
<path d="M38.4615 17.3077L32.6923 21.1539" stroke="#000025" stroke-width="3"/>
<defs>
<clipPath id="clip0_349_191">
<rect width="50" height="50" fill="white"/>
</clipPath>
</defs>
</svg>
