<svg width="50" height="50" viewBox="0 0 50 50" fill="none" xmlns="http://www.w3.org/2000/svg">
<ellipse cx="16.8212" cy="44.1667" rx="3.33328" ry="3.3333" stroke="white" stroke-width="4.88"/>
<ellipse cx="33.4878" cy="5.83394" rx="3.33328" ry="3.3333" transform="rotate(180 33.4878 5.83394)" stroke="white" stroke-width="4.88"/>
<path d="M32.1086 32.4623C33.6877 32.4268 35.196 31.8075 36.3363 30.7267C37.4768 29.6461 38.1665 28.182 38.2695 26.6234C38.3726 25.0649 37.8815 23.5246 36.8932 22.3063C35.9049 21.0879 34.4908 20.2797 32.93 20.041C32.332 18.3852 31.1645 16.9901 29.6317 16.0991C28.0988 15.2081 26.2981 14.8779 24.5441 15.1668C22.7902 15.4556 21.1948 16.345 20.0366 17.6791C18.8785 19.0132 18.2313 20.7074 18.2082 22.4655C16.8676 22.4655 15.582 22.9919 14.634 23.9292C13.6861 24.8667 13.1535 26.1383 13.1535 27.4639C13.1535 28.7896 13.6861 30.061 14.634 30.9983C15.582 31.9357 16.8676 32.4623 18.2082 32.4623H32.1086Z" stroke="white" stroke-width="4.88" stroke-linecap="round" stroke-linejoin="round"/>
<path d="M30.0078 4.25576C25.8347 3.40221 21.4986 3.89018 17.6196 5.6499C13.7405 7.40961 10.5174 10.3509 8.41098 14.0531C6.3046 17.7554 5.42293 22.0289 5.89207 26.2625C6.36121 30.4961 8.15713 34.4729 11.023 37.6241" stroke="white" stroke-width="4.88" stroke-linecap="round" stroke-linejoin="round"/>
<path d="M20.7854 44.5493C25.1121 45.6412 29.6732 45.3369 33.8165 43.6799C37.9598 42.0229 41.473 39.0981 43.8536 35.3239C46.2342 31.5496 47.3603 27.1192 47.0708 22.6662C46.7814 18.2133 45.0911 13.966 42.2419 10.5317" stroke="white" stroke-width="4.88" stroke-linecap="round" stroke-linejoin="round"/>
<ellipse cx="16.8212" cy="44.1667" rx="3.33328" ry="3.3333" stroke="#000025" stroke-width="2.88462"/>
<ellipse cx="33.4878" cy="5.83394" rx="3.33328" ry="3.3333" transform="rotate(180 33.4878 5.83394)" stroke="#000025" stroke-width="2.88462"/>
<path d="M32.1086 32.4623C33.6877 32.4268 35.196 31.8075 36.3363 30.7267C37.4768 29.6461 38.1665 28.182 38.2695 26.6234C38.3726 25.0649 37.8815 23.5246 36.8932 22.3063C35.9049 21.0879 34.4908 20.2797 32.93 20.041C32.332 18.3852 31.1645 16.9901 29.6317 16.0991C28.0988 15.2081 26.2981 14.8779 24.5441 15.1668C22.7902 15.4556 21.1948 16.345 20.0366 17.6791C18.8785 19.0132 18.2313 20.7074 18.2082 22.4655C16.8676 22.4655 15.582 22.9919 14.634 23.9292C13.6861 24.8667 13.1535 26.1383 13.1535 27.4639C13.1535 28.7896 13.6861 30.061 14.634 30.9983C15.582 31.9357 16.8676 32.4623 18.2082 32.4623H32.1086Z" stroke="#000025" stroke-width="2.88462" stroke-linecap="round" stroke-linejoin="round"/>
<path d="M30.0078 4.25576C25.8347 3.40221 21.4986 3.89018 17.6196 5.6499C13.7405 7.40961 10.5174 10.3509 8.41098 14.0531C6.3046 17.7554 5.42293 22.0289 5.89207 26.2625C6.36121 30.4961 8.15713 34.4729 11.023 37.6241" stroke="#000025" stroke-width="2.88462" stroke-linecap="round" stroke-linejoin="round"/>
<path d="M20.7854 44.5493C25.1121 45.6412 29.6732 45.3369 33.8165 43.6799C37.9598 42.0229 41.473 39.0981 43.8536 35.3239C46.2342 31.5496 47.3603 27.1192 47.0708 22.6662C46.7814 18.2133 45.0911 13.966 42.2419 10.5317" stroke="#000025" stroke-width="2.88462" stroke-linecap="round" stroke-linejoin="round"/>
</svg>
