<svg width="50" height="50" viewBox="0 0 50 50" fill="none" xmlns="http://www.w3.org/2000/svg">
<path d="M4.0902 4.33762L24.1097 46.4493C24.4589 47.1836 25.5412 47.1836 25.8903 46.4493L45.9098 4.33762C46.2071 3.71219 45.7331 3 45.0195 3H4.9805C4.2669 3 3.79288 3.71219 4.0902 4.33762Z" stroke="white" stroke-width="5"/>
<path d="M22.1154 9.61536H17.3077C16.7767 9.61536 16.3462 10.0459 16.3462 10.5769V15.3846C16.3462 15.9156 16.7767 16.3461 17.3077 16.3461H22.1154C22.6465 16.3461 23.077 15.9156 23.077 15.3846V10.5769C23.077 10.0459 22.6465 9.61536 22.1154 9.61536Z" stroke="white" stroke-width="5"/>
<path d="M27.8846 21.1539H23.0769C22.5459 21.1539 22.1154 21.5844 22.1154 22.1155V26.9232C22.1154 27.4542 22.5459 27.8847 23.0769 27.8847H27.8846C28.4157 27.8847 28.8462 27.4542 28.8462 26.9232V22.1155C28.8462 21.5844 28.4157 21.1539 27.8846 21.1539Z" stroke="white" stroke-width="5"/>
<path d="M33.6538 9.61536H28.8461C28.3151 9.61536 27.8846 10.0459 27.8846 10.5769V15.3846C27.8846 15.9156 28.3151 16.3461 28.8461 16.3461H33.6538C34.1849 16.3461 34.6154 15.9156 34.6154 15.3846V10.5769C34.6154 10.0459 34.1849 9.61536 33.6538 9.61536Z" stroke="white" stroke-width="5"/>
<path d="M4.0902 4.33762L24.1097 46.4493C24.4589 47.1836 25.5412 47.1836 25.8903 46.4493L45.9098 4.33762C46.2071 3.71219 45.7331 3 45.0195 3H4.9805C4.2669 3 3.79288 3.71219 4.0902 4.33762Z" stroke="#000025" stroke-width="3"/>
<path d="M22.1154 9.61536H17.3077C16.7767 9.61536 16.3462 10.0459 16.3462 10.5769V15.3846C16.3462 15.9156 16.7767 16.3461 17.3077 16.3461H22.1154C22.6465 16.3461 23.077 15.9156 23.077 15.3846V10.5769C23.077 10.0459 22.6465 9.61536 22.1154 9.61536Z" stroke="#000025" stroke-width="3"/>
<path d="M27.8846 21.1539H23.0769C22.5459 21.1539 22.1154 21.5844 22.1154 22.1155V26.9232C22.1154 27.4542 22.5459 27.8847 23.0769 27.8847H27.8846C28.4157 27.8847 28.8462 27.4542 28.8462 26.9232V22.1155C28.8462 21.5844 28.4157 21.1539 27.8846 21.1539Z" stroke="#000025" stroke-width="3"/>
<path d="M33.6538 9.61536H28.8461C28.3151 9.61536 27.8846 10.0459 27.8846 10.5769V15.3846C27.8846 15.9156 28.3151 16.3461 28.8461 16.3461H33.6538C34.1849 16.3461 34.6154 15.9156 34.6154 15.3846V10.5769C34.6154 10.0459 34.1849 9.61536 33.6538 9.61536Z" stroke="#000025" stroke-width="3"/>
</svg>
