<svg width="50" height="50" viewBox="0 0 50 50" fill="none" xmlns="http://www.w3.org/2000/svg">
<path d="M30.3971 8.05397C25.594 13.2271 24.8736 21.5846 25.1137 25.1166H14.1868C14.6191 14.2922 18.4095 8.86907 20.2506 7.51057C21.0111 6.84038 23.1204 5.5 25.4739 5.5C27.8274 5.5 29.7366 7.20264 30.3971 8.05397ZM30.3971 8.05397C35.2001 13.2271 35.9206 21.5846 35.6804 25.1166H46.6073C46.175 14.2922 42.3846 8.86907 40.5434 7.51057C39.783 6.84038 37.6736 5.5 35.3201 5.5C32.9666 5.5 31.0575 7.20264 30.3971 8.05397ZM19.7103 42.2337C14.9073 37.0605 14.1867 28.7031 14.4269 25.171H3.5C3.93227 35.9955 7.72265 41.4186 9.56385 42.7771C10.3243 43.4473 12.4337 44.7877 14.7872 44.7877C17.1407 44.7877 19.0499 43.085 19.7103 42.2337ZM19.7103 42.2337C24.5133 37.0605 25.2338 28.7031 24.9936 25.171H35.9206C35.4883 35.9955 31.6979 41.4186 29.8567 42.7771C29.0962 43.4473 26.9869 44.7877 24.6334 44.7877C22.2799 44.7877 20.3707 43.085 19.7103 42.2337Z" stroke="white" stroke-width="5"/>
<path d="M30.3971 8.05397C25.594 13.2271 24.8736 21.5846 25.1137 25.1166H14.1868C14.6191 14.2922 18.4095 8.86907 20.2506 7.51057C21.0111 6.84038 23.1204 5.5 25.4739 5.5C27.8274 5.5 29.7366 7.20264 30.3971 8.05397ZM30.3971 8.05397C35.2001 13.2271 35.9206 21.5846 35.6804 25.1166H46.6073C46.175 14.2922 42.3846 8.86907 40.5434 7.51057C39.783 6.84038 37.6736 5.5 35.3201 5.5C32.9666 5.5 31.0575 7.20264 30.3971 8.05397ZM19.7103 42.2337C14.9073 37.0605 14.1867 28.7031 14.4269 25.171H3.5C3.93227 35.9955 7.72265 41.4186 9.56385 42.7771C10.3243 43.4473 12.4337 44.7877 14.7872 44.7877C17.1407 44.7877 19.0499 43.085 19.7103 42.2337ZM19.7103 42.2337C24.5133 37.0605 25.2338 28.7031 24.9936 25.171H35.9206C35.4883 35.9955 31.6979 41.4186 29.8567 42.7771C29.0962 43.4473 26.9869 44.7877 24.6334 44.7877C22.2799 44.7877 20.3707 43.085 19.7103 42.2337Z" stroke="#000025" stroke-width="3"/>
</svg>
