<svg width="50" height="50" viewBox="0 0 50 50" fill="none" xmlns="http://www.w3.org/2000/svg">
<path d="M14.6635 12.7138H4.80768M14.6635 25H4.80768M14.6635 37.2864H4.80768M24.5192 2.88464V47.1154M17.6202 47.1154H36.3462C39.106 47.1154 40.4861 47.1154 41.5401 46.5797C42.4673 46.1087 43.2213 45.3567 43.6936 44.4321C44.2308 43.3809 44.2308 42.0045 44.2308 39.2522V10.748C44.2308 7.99558 44.2308 6.61937 43.6936 5.5681C43.2213 4.64338 42.4673 3.89156 41.5401 3.42038C40.4861 2.88472 39.106 2.88472 36.3462 2.88472H17.6202C14.8603 2.88472 13.4804 2.88472 12.4263 3.42038C11.499 3.89156 10.7451 4.64338 10.2727 5.5681C9.73557 6.61937 9.73557 7.99558 9.73557 10.748V39.2522C9.73557 42.0045 9.73557 43.3809 10.2727 44.4321C10.7451 45.3567 11.499 46.1087 12.4263 46.5797C13.4804 47.1154 14.8603 47.1154 17.6202 47.1154Z" stroke="white" stroke-width="5" stroke-linecap="round" stroke-linejoin="round"/>
<path d="M14.6635 12.7138H4.80768M14.6635 25H4.80768M14.6635 37.2864H4.80768M24.5192 2.88464V47.1154M17.6202 47.1154H36.3462C39.106 47.1154 40.4861 47.1154 41.5401 46.5797C42.4673 46.1087 43.2213 45.3567 43.6936 44.4321C44.2308 43.3809 44.2308 42.0045 44.2308 39.2522V10.748C44.2308 7.99558 44.2308 6.61937 43.6936 5.5681C43.2213 4.64338 42.4673 3.89156 41.5401 3.42038C40.4861 2.88472 39.106 2.88472 36.3462 2.88472H17.6202C14.8603 2.88472 13.4804 2.88472 12.4263 3.42038C11.499 3.89156 10.7451 4.64338 10.2727 5.5681C9.73557 6.61937 9.73557 7.99558 9.73557 10.748V39.2522C9.73557 42.0045 9.73557 43.3809 10.2727 44.4321C10.7451 45.3567 11.499 46.1087 12.4263 46.5797C13.4804 47.1154 14.8603 47.1154 17.6202 47.1154Z" stroke="#000025" stroke-width="2.88462" stroke-linecap="round" stroke-linejoin="round"/>
</svg>
