<svg width="50" height="50" viewBox="0 0 50 50" fill="none" xmlns="http://www.w3.org/2000/svg">
<g clip-path="url(#clip0_387_359)">
<mask id="mask0_387_359" style="mask-type:luminance" maskUnits="userSpaceOnUse" x="0" y="0" width="50" height="50">
<path d="M50 0H0V50H50V0Z" fill="white"/>
</mask>
<g mask="url(#mask0_387_359)">
<path d="M19.2439 40.1176C17.8522 40.1176 13.5162 40.1176 10.3037 40.1176C8.59201 40.1176 7.48085 38.323 8.24631 36.7976L10.2129 32.8788C10.8523 31.6046 11.1852 30.2011 11.1852 28.7764C11.1852 27.0107 11.1852 24.3878 11.1852 21.7647C11.1852 17.1765 13.4877 8 25.0001 8C36.5126 8 38.8151 17.1765 38.8151 21.7647C38.8151 24.3878 38.8151 27.0107 38.8151 28.7764C38.8151 30.2011 39.1481 31.6046 39.7875 32.8788L41.754 36.7976C42.5194 38.323 41.4061 40.1176 39.6947 40.1176H30.7564M19.2439 40.1176C19.2439 44.7059 21.5464 47 25.0001 47C28.4539 47 30.7564 44.7059 30.7564 40.1176M19.2439 40.1176C22.8406 40.1176 30.7564 40.1176 30.7564 40.1176" stroke="white" stroke-width="5" stroke-linejoin="round"/>
<path d="M25 8V3" stroke="white" stroke-width="5" stroke-linecap="round" stroke-linejoin="round"/>
</g>
</g>
<g clip-path="url(#clip1_387_359)">
<mask id="mask1_387_359" style="mask-type:luminance" maskUnits="userSpaceOnUse" x="0" y="0" width="50" height="50">
<path d="M50 0H0V50H50V0Z" fill="white"/>
</mask>
<g mask="url(#mask1_387_359)">
<path d="M19.2439 40.1176C17.8522 40.1176 13.5162 40.1176 10.3037 40.1176C8.59201 40.1176 7.48085 38.323 8.24631 36.7976L10.2129 32.8788C10.8523 31.6046 11.1852 30.2011 11.1852 28.7764C11.1852 27.0107 11.1852 24.3878 11.1852 21.7647C11.1852 17.1765 13.4877 8 25.0001 8C36.5126 8 38.8151 17.1765 38.8151 21.7647C38.8151 24.3878 38.8151 27.0107 38.8151 28.7764C38.8151 30.2011 39.1481 31.6046 39.7875 32.8788L41.754 36.7976C42.5194 38.323 41.4061 40.1176 39.6947 40.1176H30.7564M19.2439 40.1176C19.2439 44.7059 21.5464 47 25.0001 47C28.4539 47 30.7564 44.7059 30.7564 40.1176M19.2439 40.1176C22.8406 40.1176 30.7564 40.1176 30.7564 40.1176" stroke="#000025" stroke-width="3" stroke-linejoin="round"/>
<path d="M25 8V3" stroke="#000025" stroke-width="3" stroke-linecap="round" stroke-linejoin="round"/>
</g>
</g>
<defs>
<clipPath id="clip0_387_359">
<rect width="50" height="50" fill="white"/>
</clipPath>
<clipPath id="clip1_387_359">
<rect width="50" height="50" fill="white"/>
</clipPath>
</defs>
</svg>
