<svg width="50" height="50" viewBox="0 0 50 50" fill="none" xmlns="http://www.w3.org/2000/svg">
<path d="M20.3333 8H8.66667C6.08934 8 4 10.1746 4 12.8571V20.1429C5.19429 20.1429 6.38861 20.6172 7.29982 21.5655C9.12227 23.4622 9.12227 26.5378 7.29982 28.4345C6.38861 29.3828 5.19429 29.8571 4 29.8571V37.1429C4 39.8255 6.08934 42 8.66667 42H20.3333M20.3333 8H41.3333C43.9107 8 46 10.1746 46 12.8571V20.1429C44.8058 20.1429 43.6114 20.6172 42.7002 21.5655C40.8776 23.4622 40.8776 26.5378 42.7002 28.4345C43.6114 29.3828 44.8058 29.8571 46 29.8571C46 31.6786 46 34.4197 46 37.1429C46 39.8255 43.9107 42 41.3333 42H20.3333M20.3333 8V42" stroke="white" stroke-width="5" stroke-linejoin="round"/>
<path d="M20.3333 8H8.66667C6.08934 8 4 10.1746 4 12.8571V20.1429C5.19429 20.1429 6.38861 20.6172 7.29982 21.5655C9.12227 23.4622 9.12227 26.5378 7.29982 28.4345C6.38861 29.3828 5.19429 29.8571 4 29.8571V37.1429C4 39.8255 6.08934 42 8.66667 42H20.3333M20.3333 8H41.3333C43.9107 8 46 10.1746 46 12.8571V20.1429C44.8058 20.1429 43.6114 20.6172 42.7002 21.5655C40.8776 23.4622 40.8776 26.5378 42.7002 28.4345C43.6114 29.3828 44.8058 29.8571 46 29.8571C46 31.6786 46 34.4197 46 37.1429C46 39.8255 43.9107 42 41.3333 42H20.3333M20.3333 8V42" stroke="#000025" stroke-width="3" stroke-linejoin="round"/>
</svg>
