<svg width="50" height="50" viewBox="0 0 50 50" fill="none" xmlns="http://www.w3.org/2000/svg">
<path d="M25.5 23.7408L15.0991 19.9479M25.5 23.7408L35.9041 19.9604M25.5 23.7408V36.3329M17.4908 33.6107L24.2575 36.0315C24.718 36.1962 24.9482 36.2785 25.1843 36.3113C25.3938 36.3403 25.6062 36.3403 25.8157 36.3113C26.0518 36.2785 26.282 36.1962 26.7425 36.0315L33.5092 33.6107C34.406 33.2899 34.8543 33.1295 35.1854 32.8418C35.4777 32.5878 35.7036 32.2644 35.8426 31.9004C36 31.4882 36 31.0062 36 30.0422V21.6237C36 20.6598 36 20.1778 35.8426 19.7657C35.7036 19.4017 35.4777 19.0782 35.1854 18.8242C34.8543 18.5365 34.406 18.3761 33.5092 18.0553L26.7425 15.6345C26.282 15.4698 26.0518 15.3874 25.8157 15.3548C25.6062 15.3258 25.3938 15.3258 25.1843 15.3548C24.9482 15.3874 24.718 15.4698 24.2575 15.6345L17.4908 18.0553C16.594 18.3761 16.1456 18.5365 15.8146 18.8242C15.5223 19.0782 15.2965 19.4017 15.1574 19.7657C15 20.1778 15 20.6598 15 21.6237V30.0422C15 31.0062 15 31.4882 15.1574 31.9004C15.2965 32.2644 15.5223 32.5878 15.8146 32.8418C16.1456 33.1295 16.594 33.2899 17.4908 33.6107Z" stroke="white" stroke-width="5"/>
<path d="M23.6984 5.6301C24.5209 5.23398 25.4791 5.23398 26.3017 5.6301L40.1168 12.2831C40.9394 12.6793 41.5368 13.4284 41.74 14.3185L45.152 29.2677C45.3552 30.1578 45.142 31.0919 44.5727 31.8057L35.0123 43.7941C34.4431 44.5079 33.5798 44.9236 32.6668 44.9236H17.3332C16.4202 44.9236 15.5569 44.5079 14.9877 43.7941L5.4273 31.8057C4.85807 31.0919 4.64485 30.1578 4.84801 29.2677L8.26007 14.3185C8.46323 13.4284 9.06064 12.6793 9.8832 12.2831L23.6984 5.6301Z" stroke="white" stroke-width="5"/>
<path d="M25.5 23.7408L15.0991 19.9479M25.5 23.7408L35.9041 19.9604M25.5 23.7408V36.3329M17.4908 33.6107L24.2575 36.0315C24.718 36.1962 24.9482 36.2785 25.1843 36.3113C25.3938 36.3403 25.6062 36.3403 25.8157 36.3113C26.0518 36.2785 26.282 36.1962 26.7425 36.0315L33.5092 33.6107C34.406 33.2899 34.8543 33.1295 35.1854 32.8418C35.4777 32.5878 35.7036 32.2644 35.8426 31.9004C36 31.4882 36 31.0062 36 30.0422V21.6237C36 20.6598 36 20.1778 35.8426 19.7657C35.7036 19.4017 35.4777 19.0782 35.1854 18.8242C34.8543 18.5365 34.406 18.3761 33.5092 18.0553L26.7425 15.6345C26.282 15.4698 26.0518 15.3874 25.8157 15.3548C25.6062 15.3258 25.3938 15.3258 25.1843 15.3548C24.9482 15.3874 24.718 15.4698 24.2575 15.6345L17.4908 18.0553C16.594 18.3761 16.1456 18.5365 15.8146 18.8242C15.5223 19.0782 15.2965 19.4017 15.1574 19.7657C15 20.1778 15 20.6598 15 21.6237V30.0422C15 31.0062 15 31.4882 15.1574 31.9004C15.2965 32.2644 15.5223 32.5878 15.8146 32.8418C16.1456 33.1295 16.594 33.2899 17.4908 33.6107Z" stroke="#000025" stroke-width="2.88462"/>
<path d="M23.6984 5.6301C24.5209 5.23398 25.4791 5.23398 26.3017 5.6301L40.1168 12.2831C40.9394 12.6793 41.5368 13.4284 41.74 14.3185L45.152 29.2677C45.3552 30.1578 45.142 31.0919 44.5727 31.8057L35.0123 43.7941C34.4431 44.5079 33.5798 44.9236 32.6668 44.9236H17.3332C16.4202 44.9236 15.5569 44.5079 14.9877 43.7941L5.4273 31.8057C4.85807 31.0919 4.64485 30.1578 4.84801 29.2677L8.26007 14.3185C8.46323 13.4284 9.06064 12.6793 9.8832 12.2831L23.6984 5.6301Z" stroke="#000025" stroke-width="2.88462"/>
</svg>
