<svg width="50" height="50" viewBox="0 0 50 50" fill="none" xmlns="http://www.w3.org/2000/svg">
<path d="M44 25.0551C44 36.0705 31.0325 44.0525 26.5233 46.4953C26.0357 46.7595 25.7918 46.8916 25.4536 46.96C25.19 47.0133 24.81 47.0133 24.5464 46.96C24.2082 46.8916 23.9643 46.7595 23.4767 46.4953C18.9674 44.0525 6 36.0705 6 25.0551V15.7155C6 13.7413 6 12.7542 6.31056 11.9057C6.58489 11.1562 7.0307 10.4873 7.60944 9.95708C8.26456 9.35684 9.15352 9.01026 10.9314 8.31708L23.6657 3.3523C24.1595 3.1598 24.4063 3.06355 24.6604 3.02537C24.8855 2.99154 25.1145 2.99154 25.3396 3.02537C25.5937 3.06355 25.8405 3.1598 26.3343 3.3523L39.0685 8.31708C40.8465 9.01026 41.7354 9.35684 42.3905 9.95708C42.9693 10.4873 43.415 11.1562 43.6893 11.9057C44 12.7542 44 13.7413 44 15.7155V25.0551Z" stroke="white" stroke-width="5" stroke-linecap="round" stroke-linejoin="round"/>
<path fill-rule="evenodd" clip-rule="evenodd" d="M21.8903 20.778C20.9312 22.2173 20.0685 23.658 19.5387 24.603L18.2084 23.2217C17.3809 22.3476 17.3809 20.9792 18.2084 20.1051C18.6001 19.6942 19.1424 19.4609 19.7101 19.4591H22.8054C22.4966 19.8827 22.1892 20.3247 21.8903 20.778Z" stroke="white" stroke-width="4" stroke-linecap="round" stroke-linejoin="round"/>
<path fill-rule="evenodd" clip-rule="evenodd" d="M29.2217 28.1093C27.7823 29.0683 26.3416 29.9311 25.3967 30.4609L26.7779 31.7912C27.652 32.6186 29.0205 32.6186 29.8946 31.7912C30.3056 31.3995 30.5387 30.8572 30.5406 30.2895V27.1941C30.117 27.5029 29.675 27.8103 29.2217 28.1093Z" stroke="white" stroke-width="4" stroke-linecap="round" stroke-linejoin="round"/>
<path d="M19.12 27.4507C19.5349 27.0358 19.5347 26.363 19.1197 25.9482C18.7047 25.5333 18.032 25.5334 17.6171 25.9485L19.12 27.4507ZM14.3319 29.2352C13.917 29.6501 13.9172 30.3229 14.3322 30.7377C14.7472 31.1526 15.4199 31.1525 15.8348 30.7374L14.3319 29.2352ZM21.5838 29.917C21.9986 29.5019 21.9983 28.8291 21.5831 28.4143C21.168 27.9997 20.4953 28 20.0805 28.4151L21.5838 29.917ZM18.44 30.057C18.0253 30.4721 18.0256 31.1448 18.4407 31.5596C18.8558 31.9743 19.5285 31.974 19.9433 31.5589L18.44 30.057ZM20.2891 23.845C19.8737 23.4307 19.201 23.4315 18.7865 23.8469C18.3721 24.2624 18.3729 24.935 18.7884 25.3495L20.2891 23.845ZM22.4741 27.5255L23.2263 26.7751L23.2245 26.7733L22.4741 27.5255ZM24.6501 31.2113C25.0646 31.6266 25.7372 31.6275 26.1527 31.2131C26.5681 30.7986 26.569 30.126 26.1546 29.7105L24.6501 31.2113ZM21.9237 18.8579C21.5964 19.345 21.7259 20.0051 22.213 20.3324C22.7 20.6597 23.1266 20.3522 23.4538 19.8651L21.9237 18.8579ZM25.3811 16.4316L24.7019 15.6145C24.6866 15.6273 24.6716 15.6405 24.6569 15.6541L25.3811 16.4316ZM34.7835 15.2161L35.8408 15.1108C35.7906 14.6073 35.3924 14.209 34.8889 14.1588L34.7835 15.2161ZM33.568 24.6199L34.3455 25.3441C34.3592 25.3294 34.3725 25.3143 34.3854 25.2988L33.568 24.6199ZM30.1344 26.5C29.6474 26.8273 29.34 27.301 29.6672 27.788C29.9945 28.2751 30.6546 28.4046 31.1417 28.0773L30.1344 26.5ZM24.0511 32.3824C24.4662 31.9676 24.4663 31.2949 24.0514 30.8799C23.6366 30.4648 22.9638 30.4647 22.5489 30.8796L24.0511 32.3824ZM19.2622 34.1649C18.8472 34.5797 18.847 35.2525 19.2619 35.6674C19.6767 36.0825 20.3495 36.0826 20.7645 35.6677L19.2622 34.1649ZM31.8868 19.6153C32.3018 19.2004 32.3018 18.5277 31.8868 18.1127C31.4719 17.6978 30.7993 17.6978 30.3843 18.1127L31.8868 19.6153ZM28.6319 19.8651C28.217 20.2801 28.217 20.9528 28.6319 21.3677C29.0468 21.7827 29.7195 21.7827 30.1344 21.3677L28.6319 19.8651ZM17.6171 25.9485L14.3319 29.2352L15.8348 30.7374L19.12 27.4507L17.6171 25.9485ZM20.0805 28.4151L18.44 30.057L19.9433 31.5589L21.5838 29.917L20.0805 28.4151ZM18.7884 25.3495L21.7237 28.2778L23.2245 26.7733L20.2891 23.845L18.7884 25.3495ZM21.7219 28.2759L24.6501 31.2113L26.1546 29.7105L23.2263 26.7751L21.7219 28.2759ZM23.4538 19.8651C24.1487 18.8311 25.1935 18.0582 26.1053 17.2091L24.6569 15.6541C23.6263 16.614 22.7093 17.6889 21.9237 18.8579L23.4538 19.8651ZM26.0602 17.2487C26.3505 17.0074 26.8496 16.7741 27.5688 16.5864C28.2714 16.4031 29.1003 16.2844 29.9743 16.217C31.7231 16.0822 33.5462 16.1606 34.6781 16.2734L34.8889 14.1588C33.6607 14.0365 31.7098 13.9519 29.811 14.0983C28.8613 14.1715 27.8979 14.3044 27.0323 14.5303C26.1836 14.7518 25.3389 15.0852 24.7019 15.6145L26.0602 17.2487ZM33.7262 15.3215C33.839 16.4535 33.9173 18.2765 33.7826 20.0255C33.7152 20.8997 33.5965 21.7286 33.4132 22.4313C33.2255 23.1509 32.9921 23.6504 32.7506 23.9411L34.3854 25.2988C34.9145 24.6616 35.2479 23.8167 35.4693 22.9678C35.6951 22.1021 35.828 21.1386 35.9012 20.1888C36.0477 18.2899 35.9632 16.3389 35.8408 15.1108L33.7262 15.3215ZM32.7905 23.8957C31.9414 24.8075 31.1685 25.8052 30.1344 26.5L31.1417 28.0773C32.3107 27.2918 33.3857 26.3748 34.3455 25.3441L32.7905 23.8957ZM22.5489 30.8796L19.2622 34.1649L20.7645 35.6677L24.0511 32.3824L22.5489 30.8796ZM30.3843 18.1127L28.6319 19.8651L30.1344 21.3677L31.8868 19.6153L30.3843 18.1127Z" fill="white"/>
<path d="M19.12 27.4507C19.5349 27.0358 19.5347 26.363 19.1197 25.9482C18.7047 25.5333 18.032 25.5334 17.6171 25.9485M19.12 27.4507L17.6171 25.9485M19.12 27.4507L15.8348 30.7374M17.6171 25.9485L14.3319 29.2352M14.3319 29.2352C13.917 29.6501 13.9172 30.3229 14.3322 30.7377C14.7472 31.1526 15.4199 31.1525 15.8348 30.7374M14.3319 29.2352L15.8348 30.7374M21.5838 29.917C21.9986 29.5019 21.9983 28.8291 21.5831 28.4143C21.168 27.9997 20.4953 28 20.0805 28.4151M21.5838 29.917L20.0805 28.4151M21.5838 29.917L19.9433 31.5589M20.0805 28.4151L18.44 30.057M18.44 30.057C18.0253 30.4721 18.0256 31.1448 18.4407 31.5596C18.8558 31.9743 19.5285 31.974 19.9433 31.5589M18.44 30.057L19.9433 31.5589M20.2891 23.845C19.8737 23.4307 19.201 23.4315 18.7865 23.8469C18.3721 24.2624 18.3729 24.935 18.7884 25.3495M20.2891 23.845L18.7884 25.3495M20.2891 23.845L23.2245 26.7733M18.7884 25.3495L21.7237 28.2778L23.2245 26.7733M23.2263 26.7751L22.4741 27.5255L23.2245 26.7733M23.2263 26.7751L23.2245 26.7733M23.2263 26.7751L26.1546 29.7105M23.2263 26.7751L21.7219 28.2759L24.6501 31.2113M24.6501 31.2113C25.0646 31.6266 25.7372 31.6275 26.1527 31.2131C26.5681 30.7986 26.569 30.126 26.1546 29.7105M24.6501 31.2113L26.1546 29.7105M21.9237 18.8579C21.5964 19.345 21.7259 20.0051 22.213 20.3324C22.7 20.6597 23.1266 20.3522 23.4538 19.8651M21.9237 18.8579L23.4538 19.8651M21.9237 18.8579C22.7093 17.6889 23.6263 16.614 24.6569 15.6541M23.4538 19.8651C24.1487 18.8311 25.1935 18.0582 26.1053 17.2091L24.6569 15.6541M24.7019 15.6145L25.3811 16.4316L24.6569 15.6541M24.7019 15.6145C24.6866 15.6273 24.6716 15.6405 24.6569 15.6541M24.7019 15.6145C25.3389 15.0852 26.1836 14.7518 27.0323 14.5303C27.8979 14.3044 28.8613 14.1715 29.811 14.0983C31.7098 13.9519 33.6607 14.0365 34.8889 14.1588M24.7019 15.6145L26.0602 17.2487C26.3505 17.0074 26.8496 16.7741 27.5688 16.5864C28.2714 16.4031 29.1003 16.2844 29.9743 16.217C31.7231 16.0822 33.5462 16.1606 34.6781 16.2734L34.8889 14.1588M35.8408 15.1108L34.7835 15.2161L34.8889 14.1588M35.8408 15.1108C35.7906 14.6073 35.3924 14.209 34.8889 14.1588M35.8408 15.1108C35.9632 16.3389 36.0477 18.2899 35.9012 20.1888C35.828 21.1386 35.6951 22.1021 35.4693 22.9678C35.2479 23.8167 34.9145 24.6616 34.3854 25.2988M35.8408 15.1108L33.7262 15.3215C33.839 16.4535 33.9173 18.2765 33.7826 20.0255C33.7152 20.8997 33.5965 21.7286 33.4132 22.4313C33.2255 23.1509 32.9921 23.6504 32.7506 23.9411L34.3854 25.2988M34.3455 25.3441L33.568 24.6199L34.3854 25.2988M34.3455 25.3441C34.3592 25.3294 34.3725 25.3143 34.3854 25.2988M34.3455 25.3441C33.3857 26.3748 32.3107 27.2918 31.1417 28.0773M34.3455 25.3441L32.7905 23.8957C31.9414 24.8075 31.1685 25.8052 30.1344 26.5M30.1344 26.5C29.6474 26.8273 29.34 27.301 29.6672 27.788C29.9945 28.2751 30.6546 28.4046 31.1417 28.0773M30.1344 26.5L31.1417 28.0773M24.0511 32.3824C24.4662 31.9676 24.4663 31.2949 24.0514 30.8799C23.6366 30.4648 22.9638 30.4647 22.5489 30.8796M24.0511 32.3824L22.5489 30.8796M24.0511 32.3824L20.7645 35.6677M22.5489 30.8796L19.2622 34.1649M19.2622 34.1649C18.8472 34.5797 18.847 35.2525 19.2619 35.6674C19.6767 36.0825 20.3495 36.0826 20.7645 35.6677M19.2622 34.1649L20.7645 35.6677M31.8868 19.6153C32.3018 19.2004 32.3018 18.5277 31.8868 18.1127C31.4719 17.6978 30.7993 17.6978 30.3843 18.1127M31.8868 19.6153L30.3843 18.1127M31.8868 19.6153L30.1344 21.3677M30.3843 18.1127L28.6319 19.8651M28.6319 19.8651C28.217 20.2801 28.217 20.9528 28.6319 21.3677C29.0468 21.7827 29.7195 21.7827 30.1344 21.3677M28.6319 19.8651L30.1344 21.3677" stroke="white" stroke-width="2"/>
<path d="M44 25.0551C44 36.0705 31.0325 44.0525 26.5233 46.4953C26.0357 46.7595 25.7918 46.8916 25.4536 46.96C25.19 47.0133 24.81 47.0133 24.5464 46.96C24.2082 46.8916 23.9643 46.7595 23.4767 46.4953C18.9674 44.0525 6 36.0705 6 25.0551V15.7155C6 13.7413 6 12.7542 6.31056 11.9057C6.58489 11.1562 7.0307 10.4873 7.60944 9.95708C8.26456 9.35684 9.15352 9.01026 10.9314 8.31708L23.6657 3.3523C24.1595 3.1598 24.4063 3.06355 24.6604 3.02537C24.8855 2.99154 25.1145 2.99154 25.3396 3.02537C25.5937 3.06355 25.8405 3.1598 26.3343 3.3523L39.0685 8.31708C40.8465 9.01026 41.7354 9.35684 42.3905 9.95708C42.9693 10.4873 43.415 11.1562 43.6893 11.9057C44 12.7542 44 13.7413 44 15.7155V25.0551Z" stroke="#000025" stroke-width="3" stroke-linecap="round" stroke-linejoin="round"/>
<path fill-rule="evenodd" clip-rule="evenodd" d="M21.8903 20.778C20.9312 22.2173 20.0685 23.658 19.5387 24.603L18.2084 23.2217C17.3809 22.3476 17.3809 20.9792 18.2084 20.1051C18.6001 19.6942 19.1424 19.4609 19.7101 19.4591H22.8054C22.4966 19.8827 22.1892 20.3247 21.8903 20.778Z" stroke="#000025" stroke-width="1.5" stroke-linecap="round" stroke-linejoin="round"/>
<path fill-rule="evenodd" clip-rule="evenodd" d="M29.2217 28.1093C27.7823 29.0683 26.3416 29.9311 25.3967 30.4609L26.7779 31.7912C27.652 32.6186 29.0205 32.6186 29.8946 31.7912C30.3056 31.3995 30.5387 30.8572 30.5406 30.2895V27.1941C30.117 27.5029 29.675 27.8103 29.2217 28.1093Z" stroke="#000025" stroke-width="1.5" stroke-linecap="round" stroke-linejoin="round"/>
<path d="M19.12 27.4507C19.5349 27.0358 19.5347 26.363 19.1197 25.9482C18.7047 25.5333 18.032 25.5334 17.6171 25.9485L19.12 27.4507ZM14.3319 29.2352C13.917 29.6501 13.9172 30.3229 14.3322 30.7377C14.7472 31.1526 15.4199 31.1525 15.8348 30.7374L14.3319 29.2352ZM21.5838 29.917C21.9986 29.5019 21.9983 28.8291 21.5831 28.4143C21.168 27.9997 20.4953 28 20.0805 28.4151L21.5838 29.917ZM18.44 30.057C18.0253 30.4721 18.0256 31.1448 18.4407 31.5596C18.8558 31.9743 19.5285 31.974 19.9433 31.5589L18.44 30.057ZM20.2891 23.845C19.8737 23.4307 19.201 23.4315 18.7865 23.8469C18.3721 24.2624 18.3729 24.935 18.7884 25.3495L20.2891 23.845ZM22.4741 27.5255L23.2263 26.7751L23.2245 26.7733L22.4741 27.5255ZM24.6501 31.2113C25.0646 31.6266 25.7372 31.6275 26.1527 31.2131C26.5681 30.7986 26.569 30.126 26.1546 29.7105L24.6501 31.2113ZM21.9237 18.8579C21.5964 19.345 21.7259 20.0051 22.213 20.3324C22.7 20.6597 23.1266 20.3522 23.4538 19.8651L21.9237 18.8579ZM25.3811 16.4316L24.7019 15.6145C24.6866 15.6273 24.6716 15.6405 24.6569 15.6541L25.3811 16.4316ZM34.7835 15.2161L35.8408 15.1108C35.7906 14.6073 35.3924 14.209 34.8889 14.1588L34.7835 15.2161ZM33.568 24.6199L34.3455 25.3441C34.3592 25.3294 34.3725 25.3143 34.3854 25.2988L33.568 24.6199ZM30.1344 26.5C29.6474 26.8273 29.34 27.301 29.6672 27.788C29.9945 28.2751 30.6546 28.4046 31.1417 28.0773L30.1344 26.5ZM24.0511 32.3824C24.4662 31.9676 24.4663 31.2949 24.0514 30.8799C23.6366 30.4648 22.9638 30.4647 22.5489 30.8796L24.0511 32.3824ZM19.2622 34.1649C18.8472 34.5797 18.847 35.2525 19.2619 35.6674C19.6767 36.0825 20.3495 36.0826 20.7645 35.6677L19.2622 34.1649ZM31.8868 19.6153C32.3018 19.2004 32.3018 18.5277 31.8868 18.1127C31.4719 17.6978 30.7993 17.6978 30.3843 18.1127L31.8868 19.6153ZM28.6319 19.8651C28.217 20.2801 28.217 20.9528 28.6319 21.3677C29.0468 21.7827 29.7195 21.7827 30.1344 21.3677L28.6319 19.8651ZM17.6171 25.9485L14.3319 29.2352L15.8348 30.7374L19.12 27.4507L17.6171 25.9485ZM20.0805 28.4151L18.44 30.057L19.9433 31.5589L21.5838 29.917L20.0805 28.4151ZM18.7884 25.3495L21.7237 28.2778L23.2245 26.7733L20.2891 23.845L18.7884 25.3495ZM21.7219 28.2759L24.6501 31.2113L26.1546 29.7105L23.2263 26.7751L21.7219 28.2759ZM23.4538 19.8651C24.1487 18.8311 25.1935 18.0582 26.1053 17.2091L24.6569 15.6541C23.6263 16.614 22.7093 17.6889 21.9237 18.8579L23.4538 19.8651ZM26.0602 17.2487C26.3505 17.0074 26.8496 16.7741 27.5688 16.5864C28.2714 16.4031 29.1003 16.2844 29.9743 16.217C31.7231 16.0822 33.5462 16.1606 34.6781 16.2734L34.8889 14.1588C33.6607 14.0365 31.7098 13.9519 29.811 14.0983C28.8613 14.1715 27.8979 14.3044 27.0323 14.5303C26.1836 14.7518 25.3389 15.0852 24.7019 15.6145L26.0602 17.2487ZM33.7262 15.3215C33.839 16.4535 33.9173 18.2765 33.7826 20.0255C33.7152 20.8997 33.5965 21.7286 33.4132 22.4313C33.2255 23.1509 32.9921 23.6504 32.7506 23.9411L34.3854 25.2988C34.9145 24.6616 35.2479 23.8167 35.4693 22.9678C35.6951 22.1021 35.828 21.1386 35.9012 20.1888C36.0477 18.2899 35.9632 16.3389 35.8408 15.1108L33.7262 15.3215ZM32.7905 23.8957C31.9414 24.8075 31.1685 25.8052 30.1344 26.5L31.1417 28.0773C32.3107 27.2918 33.3857 26.3748 34.3455 25.3441L32.7905 23.8957ZM22.5489 30.8796L19.2622 34.1649L20.7645 35.6677L24.0511 32.3824L22.5489 30.8796ZM30.3843 18.1127L28.6319 19.8651L30.1344 21.3677L31.8868 19.6153L30.3843 18.1127Z" fill="#000025"/>
</svg>
