<svg width="52" height="50" viewBox="0 0 52 50" fill="none" xmlns="http://www.w3.org/2000/svg">
<path d="M22.2973 29.072L20.7921 31.2724C19.6095 32.7897 17.9975 33.901 16.1597 34.4659C14.3219 35.0308 12.3408 35.0238 10.4669 34.446C8.59287 33.8682 6.91005 32.7454 5.63103 31.2194C4.35202 29.6935 3.53421 27.833 3.28095 25.873C3.0277 23.9129 3.35036 21.9413 4.20816 20.2073C5.06596 18.4733 6.42041 17.0547 8.10035 16.1308C9.78029 15.2068 11.7103 14.819 13.6466 15.0163C15.5829 15.2136 17.4384 15.9872 18.9789 17.2393L33.0211 30.0815C34.5615 31.3336 36.4171 32.1072 38.3534 32.3045C40.2896 32.5018 42.2197 32.114 43.8996 31.19C45.5796 30.2661 46.934 28.8475 47.7918 27.1134C48.6496 25.3794 48.9723 23.4078 48.719 21.4478C48.4658 19.4878 47.648 17.6272 46.3689 16.1013C45.0899 14.5754 43.4071 13.4526 41.5331 12.8748C39.6591 12.2969 37.6781 12.29 35.8403 12.8549C34.0025 13.4197 32.3905 14.531 31.2079 16.0483L29.7026 18.2488" stroke="white" stroke-width="5" stroke-linecap="round" stroke-linejoin="round"/>
<path d="M35.4923 19.7227L29.0077 19.8523L27.6811 13.4563" stroke="white" stroke-width="5" stroke-linecap="round" stroke-linejoin="round"/>
<path d="M22.2973 29.072L20.7921 31.2724C19.6095 32.7897 17.9975 33.901 16.1597 34.4659C14.3219 35.0308 12.3408 35.0238 10.4669 34.446C8.59287 33.8682 6.91005 32.7454 5.63103 31.2194C4.35202 29.6935 3.53421 27.833 3.28095 25.873C3.0277 23.9129 3.35036 21.9413 4.20816 20.2073C5.06596 18.4733 6.42041 17.0547 8.10035 16.1308C9.78029 15.2068 11.7103 14.819 13.6466 15.0163C15.5829 15.2136 17.4384 15.9872 18.9789 17.2393L33.0211 30.0815C34.5615 31.3336 36.4171 32.1072 38.3534 32.3045C40.2896 32.5018 42.2197 32.114 43.8996 31.19C45.5796 30.2661 46.934 28.8475 47.7918 27.1134C48.6496 25.3794 48.9723 23.4078 48.719 21.4478C48.4658 19.4878 47.648 17.6272 46.3689 16.1013C45.0899 14.5754 43.4071 13.4526 41.5331 12.8748C39.6591 12.2969 37.6781 12.29 35.8403 12.8549C34.0025 13.4197 32.3905 14.531 31.2079 16.0483L29.7026 18.2488" stroke="#000025" stroke-width="3" stroke-linecap="round" stroke-linejoin="round"/>
<path d="M35.4923 19.7227L29.0077 19.8523L27.6811 13.4563" stroke="#000025" stroke-width="3" stroke-linecap="round" stroke-linejoin="round"/>
</svg>
