<svg width="50" height="50" viewBox="0 0 50 50" fill="none" xmlns="http://www.w3.org/2000/svg">
<path d="M15.625 19.7274L24.5404 14.7541C24.7081 14.6606 24.7919 14.6138 24.8807 14.5955C24.9595 14.5793 25.0405 14.5793 25.1193 14.5955C25.2081 14.6138 25.2919 14.6606 25.4596 14.7541L34.375 19.7274M15.625 19.7274V29.6431C15.625 29.8412 15.625 29.9401 15.6543 30.0285C15.6802 30.1067 15.7226 30.1785 15.7786 30.2392C15.8419 30.3079 15.9289 30.3565 16.1029 30.4535L25 35.4166M15.625 19.7274L25 24.3761M34.375 19.7274V29.6431C34.375 29.8412 34.375 29.9401 34.3457 30.0285C34.3198 30.1067 34.2774 30.1785 34.2214 30.2392C34.1581 30.3079 34.0711 30.3565 33.8971 30.4535L25 35.4166M34.375 19.7274L25 24.3761M25 35.4166V24.3761" stroke="white" stroke-width="5" stroke-linecap="round" stroke-linejoin="round"/>
<path d="M44 25.055C44 36.0706 31.0325 44.0525 26.5233 46.4953C26.0357 46.7595 25.7918 46.8916 25.4537 46.96C25.19 47.0133 24.81 47.0133 24.5463 46.96C24.2082 46.8916 23.9643 46.7595 23.4767 46.4953C18.9674 44.0525 6 36.0706 6 25.055V15.7155C6 13.7413 6 12.7543 6.31056 11.9057C6.5849 11.1562 7.0307 10.4873 7.60945 9.95709C8.26457 9.35684 9.15352 9.01026 10.9315 8.31709L23.6657 3.3523C24.1594 3.1598 24.4063 3.06355 24.6603 3.02537C24.8855 2.99154 25.1145 2.99154 25.3397 3.02537C25.5937 3.06355 25.8406 3.1598 26.3343 3.3523L39.0685 8.31709C40.8465 9.01026 41.7354 9.35684 42.3904 9.95709C42.9692 10.4873 43.415 11.1562 43.6893 11.9057C44 12.7543 44 13.7413 44 15.7155V25.055Z" stroke="white" stroke-width="5" stroke-linecap="round" stroke-linejoin="round"/>
<path d="M15.625 19.7274L24.5404 14.7541C24.7081 14.6606 24.7919 14.6138 24.8807 14.5955C24.9595 14.5793 25.0405 14.5793 25.1193 14.5955C25.2081 14.6138 25.2919 14.6606 25.4596 14.7541L34.375 19.7274M15.625 19.7274V29.6431C15.625 29.8412 15.625 29.9401 15.6543 30.0285C15.6802 30.1067 15.7226 30.1785 15.7786 30.2392C15.8419 30.3079 15.9289 30.3565 16.1029 30.4535L25 35.4166M15.625 19.7274L25 24.3761M34.375 19.7274V29.6431C34.375 29.8412 34.375 29.9401 34.3457 30.0285C34.3198 30.1067 34.2774 30.1785 34.2214 30.2392C34.1581 30.3079 34.0711 30.3565 33.8971 30.4535L25 35.4166M34.375 19.7274L25 24.3761M25 35.4166V24.3761" stroke="#000025" stroke-width="3" stroke-linecap="round" stroke-linejoin="round"/>
<path d="M44 25.055C44 36.0706 31.0325 44.0525 26.5233 46.4953C26.0357 46.7595 25.7918 46.8916 25.4537 46.96C25.19 47.0133 24.81 47.0133 24.5463 46.96C24.2082 46.8916 23.9643 46.7595 23.4767 46.4953C18.9674 44.0525 6 36.0706 6 25.055V15.7155C6 13.7413 6 12.7543 6.31056 11.9057C6.5849 11.1562 7.0307 10.4873 7.60945 9.95709C8.26457 9.35684 9.15352 9.01026 10.9315 8.31709L23.6657 3.3523C24.1594 3.1598 24.4063 3.06355 24.6603 3.02537C24.8855 2.99154 25.1145 2.99154 25.3397 3.02537C25.5937 3.06355 25.8406 3.1598 26.3343 3.3523L39.0685 8.31709C40.8465 9.01026 41.7354 9.35684 42.3904 9.95709C42.9692 10.4873 43.415 11.1562 43.6893 11.9057C44 12.7543 44 13.7413 44 15.7155V25.055Z" stroke="#000025" stroke-width="3" stroke-linecap="round" stroke-linejoin="round"/>
</svg>
