<svg width="50" height="50" viewBox="0 0 50 50" fill="none" xmlns="http://www.w3.org/2000/svg">
<path d="M34.5844 34.5984L46 46M39.8537 21.9132C39.8537 31.8064 31.8275 39.8265 21.9268 39.8265C12.0261 39.8265 4 31.8064 4 21.9132C4 12.02 12.0261 4 21.9268 4C31.8275 4 39.8537 12.02 39.8537 21.9132Z" stroke="white" stroke-width="5" stroke-linecap="round" stroke-linejoin="round"/>
<path d="M34.5844 34.5984L46 46M39.8537 21.9132C39.8537 31.8064 31.8275 39.8265 21.9268 39.8265C12.0261 39.8265 4 31.8064 4 21.9132C4 12.02 12.0261 4 21.9268 4C31.8275 4 39.8537 12.02 39.8537 21.9132Z" stroke="#000025" stroke-width="3" stroke-linecap="round" stroke-linejoin="round"/>
<path d="M29.5379 23.086L28.7454 20.1283C28.4747 19.12 27.8148 18.2603 26.9106 17.7381C26.0065 17.216 24.9321 17.074 23.9234 17.3435L18.0051 18.9293C16.9971 19.2005 16.1378 19.8607 15.6161 20.7649C15.0944 21.6691 14.9528 22.7433 15.2225 23.7518L16.015 26.7095C16.2529 27.5974 16.6634 28.4298 17.223 29.1591C17.7826 29.8884 18.4804 30.5003 19.2765 30.9599C20.0726 31.4195 20.9514 31.7179 21.8628 31.8379C22.7742 31.9578 23.7003 31.8971 24.5882 31.6592C25.4761 31.4213 26.3085 31.0108 27.0378 30.4512C27.7671 29.8916 28.379 29.1938 28.8386 28.3977C29.2983 27.6016 29.5966 26.7228 29.7166 25.8114C29.8366 24.9 29.7759 23.9739 29.5379 23.086Z" stroke="white" stroke-width="3.5"/>
<path d="M25.4408 17.4547L25.182 16.4887C24.8731 15.3359 24.1189 14.353 23.0853 13.7563C22.0517 13.1596 20.8234 12.9979 19.6706 13.3067C18.5178 13.6156 17.5349 14.3698 16.9382 15.4034C16.3415 16.437 16.1798 17.6653 16.4887 18.8181L16.7475 19.784" stroke="white" stroke-width="3.5"/>
<path d="M29.2791 22.1201L32.1769 21.3437M15.7562 25.7436L12.8584 26.5201M22.2149 13.1426L24.2415 11.0467M17.3852 14.4367L14.5822 13.6349M32.2809 27.5275L30.142 27.2724M29.1751 15.9364L27.4503 17.2267M15.8602 31.9274L17.585 30.637M12.7544 20.3363L14.8933 20.5914M24.4588 31.1763L22.7765 24.8978" stroke="white" stroke-width="3.5" stroke-linecap="round"/>
<path d="M29.5379 23.086L28.7454 20.1283C28.4747 19.12 27.8148 18.2603 26.9106 17.7381C26.0065 17.216 24.9321 17.074 23.9234 17.3435L18.0051 18.9293C16.9971 19.2005 16.1378 19.8607 15.6161 20.7649C15.0944 21.6691 14.9528 22.7433 15.2225 23.7518L16.015 26.7095C16.2529 27.5974 16.6634 28.4298 17.223 29.1591C17.7826 29.8884 18.4804 30.5003 19.2765 30.9599C20.0726 31.4195 20.9514 31.7179 21.8628 31.8379C22.7742 31.9578 23.7003 31.8971 24.5882 31.6592C25.4761 31.4213 26.3085 31.0108 27.0378 30.4512C27.7671 29.8916 28.379 29.1938 28.8386 28.3977C29.2983 27.6016 29.5966 26.7228 29.7166 25.8114C29.8366 24.9 29.7759 23.9739 29.5379 23.086Z" stroke="#000025" stroke-width="1.5"/>
<path d="M25.4408 17.4547L25.182 16.4887C24.8731 15.3359 24.1189 14.353 23.0853 13.7563C22.0517 13.1596 20.8234 12.9979 19.6706 13.3067C18.5178 13.6156 17.5349 14.3698 16.9382 15.4034C16.3415 16.437 16.1798 17.6653 16.4887 18.8181L16.7475 19.784" stroke="#000025" stroke-width="1.5"/>
<path d="M29.2791 22.1201L32.1769 21.3437M15.7562 25.7436L12.8584 26.5201M22.2149 13.1426L24.2415 11.0467M17.3852 14.4367L14.5822 13.6349M32.2809 27.5275L30.142 27.2724M29.1751 15.9364L27.4503 17.2267M15.8602 31.9274L17.585 30.637M12.7544 20.3363L14.8933 20.5914M24.4588 31.1763L22.7765 24.8978" stroke="#000025" stroke-width="1.5" stroke-linecap="round"/>
</svg>
