<svg width="50" height="50" viewBox="0 0 50 50" fill="none" xmlns="http://www.w3.org/2000/svg">
<path d="M34.5844 34.5984L46 46M39.8537 21.9132C39.8537 31.8064 31.8275 39.8265 21.9268 39.8265C12.0261 39.8265 4 31.8064 4 21.9132C4 12.02 12.0261 4 21.9268 4C31.8275 4 39.8537 12.02 39.8537 21.9132Z" stroke="white" stroke-width="5" stroke-linecap="round" stroke-linejoin="round"/>
<path d="M22 17V21" stroke="white" stroke-width="5" stroke-linecap="round" stroke-linejoin="round"/>
<path d="M22.0009 30L15.94 29.9899C12.4695 29.9899 11.0193 27.4872 12.6995 24.4294L15.82 18.7579L18.7604 13.4296C20.5407 10.1901 23.4611 10.1901 25.2413 13.4296L28.1817 18.768L31.3022 24.4395C32.9824 27.4973 31.5222 30 28.0617 30H22.0009Z" stroke="white" stroke-width="5" stroke-linecap="round" stroke-linejoin="round"/>
<circle cx="22" cy="25.5" r="1.5" stroke="white" stroke-width="2"/>
<path d="M34.5844 34.5984L46 46M39.8537 21.9132C39.8537 31.8064 31.8275 39.8265 21.9268 39.8265C12.0261 39.8265 4 31.8064 4 21.9132C4 12.02 12.0261 4 21.9268 4C31.8275 4 39.8537 12.02 39.8537 21.9132Z" stroke="#000025" stroke-width="3" stroke-linecap="round" stroke-linejoin="round"/>
<path d="M22 17V21" stroke="#000025" stroke-width="3" stroke-linecap="round" stroke-linejoin="round"/>
<path d="M22.0009 30L15.94 29.9899C12.4695 29.9899 11.0193 27.4872 12.6995 24.4294L15.82 18.7579L18.7604 13.4296C20.5407 10.1901 23.4611 10.1901 25.2413 13.4296L28.1817 18.768L31.3022 24.4395C32.9824 27.4973 31.5222 30 28.0617 30H22.0009Z" stroke="#000025" stroke-width="3" stroke-linecap="round" stroke-linejoin="round"/>
<circle cx="22" cy="25.5" r="1.5" fill="#000025"/>
</svg>
