<svg width="50" height="50" viewBox="0 0 50 50" fill="none" xmlns="http://www.w3.org/2000/svg">
<path d="M6 45.68V4.32C6 3.59099 6.60442 3 7.35 3H33.5659C33.9238 3 34.2672 3.13906 34.5203 3.38663L41.6047 10.3134C41.8578 10.5609 42 10.8967 42 11.2468V45.68C42 46.4091 41.3956 47 40.65 47H7.35C6.60442 47 6 46.4091 6 45.68Z" stroke="white" stroke-width="5" stroke-linecap="round" stroke-linejoin="round"/>
<path d="M33 11.1731V3.84988C33 3.3805 33.3425 3 33.765 3C33.9677 3 34.1622 3.08954 34.3059 3.24892L41.4297 11.1645C41.5734 11.3239 41.6538 11.5401 41.6538 11.7655C41.6538 12.2349 41.3114 12.6154 40.8888 12.6154H34.2981C33.5811 12.6154 33 11.9696 33 11.1731Z" stroke="white" stroke-width="5" stroke-linecap="round" stroke-linejoin="round"/>
<path d="M12 25H33" stroke="white" stroke-width="5" stroke-linecap="round" stroke-linejoin="round"/>
<path d="M12 40H33" stroke="white" stroke-width="5" stroke-linecap="round" stroke-linejoin="round"/>
<path d="M12 33H23" stroke="white" stroke-width="5" stroke-linecap="round" stroke-linejoin="round"/>
<path d="M12 19L16.3243 13.7059L18.9189 16.8824L24.5405 10L28 14.2353" stroke="white" stroke-width="5" stroke-linecap="round" stroke-linejoin="round"/>
<path d="M6 45.68V4.32C6 3.59099 6.60442 3 7.35 3H33.5659C33.9238 3 34.2672 3.13906 34.5203 3.38663L41.6047 10.3134C41.8578 10.5609 42 10.8967 42 11.2468V45.68C42 46.4091 41.3956 47 40.65 47H7.35C6.60442 47 6 46.4091 6 45.68Z" stroke="#000025" stroke-width="2.88462" stroke-linecap="round" stroke-linejoin="round"/>
<path d="M33 11.1731V3.84988C33 3.3805 33.3425 3 33.765 3C33.9677 3 34.1622 3.08954 34.3059 3.24892L41.4297 11.1645C41.5734 11.3239 41.6538 11.5401 41.6538 11.7655C41.6538 12.2349 41.3114 12.6154 40.8888 12.6154H34.2981C33.5811 12.6154 33 11.9696 33 11.1731Z" stroke="#000025" stroke-width="2.88462" stroke-linecap="round" stroke-linejoin="round"/>
<path d="M12 25H33" stroke="#000025" stroke-width="2.88462" stroke-linecap="round" stroke-linejoin="round"/>
<path d="M12 40H33" stroke="#000025" stroke-width="2.88462" stroke-linecap="round" stroke-linejoin="round"/>
<path d="M12 33H23" stroke="#000025" stroke-width="2.88462" stroke-linecap="round" stroke-linejoin="round"/>
<path d="M12 19L16.3243 13.7059L18.9189 16.8824L24.5405 10L28 14.2353" stroke="#000025" stroke-width="3" stroke-linecap="round" stroke-linejoin="round"/>
</svg>
