<svg width="50" height="50" viewBox="0 0 50 50" fill="none" xmlns="http://www.w3.org/2000/svg">
<path d="M5 11.8571L22.5347 23.8809C24.0276 24.9047 25.9724 24.9047 27.4653 23.8809L45 11.8571M19.5 37H9.44444C6.98984 37 5 34.9534 5 32.4286V9.57143C5 7.0467 6.98984 5 9.44444 5H40.5556C43.0102 5 45 7.0467 45 9.57143V23" stroke="white" stroke-width="5" stroke-linecap="round" stroke-linejoin="round"/>
<path d="M33.8613 26.4258C33.356 27.6385 31.9391 28.1863 30.7462 27.6358C28.7726 26.7249 26.7249 28.7726 27.6358 30.7462C28.1863 31.9391 27.6385 33.356 26.4258 33.8613C24.5247 34.6534 24.5247 37.3465 26.4258 38.1386C27.6385 38.644 28.1863 40.061 27.6358 41.2537C26.7249 43.2274 28.7726 45.2751 30.7462 44.3641C31.9391 43.8136 33.356 44.3614 33.8613 45.5742C34.6534 47.4753 37.3465 47.4753 38.1386 45.5742C38.644 44.3614 40.061 43.8136 41.2537 44.3641C43.2274 45.2751 45.2751 43.2274 44.3641 41.2537C43.8136 40.061 44.3614 38.644 45.5742 38.1386C47.4753 37.3465 47.4753 34.6534 45.5742 33.8613C44.3614 33.356 43.8136 31.9391 44.3641 30.7462C45.2751 28.7726 43.2274 26.7249 41.2537 27.6358C40.061 28.1863 38.644 27.6385 38.1386 26.4258C37.3465 24.5247 34.6534 24.5247 33.8613 26.4258Z" stroke="white" stroke-width="5" stroke-linecap="round" stroke-linejoin="round"/>
<path d="M40 36C40 38.2092 38.2092 40 36 40C33.7908 40 32 38.2092 32 36C32 33.7908 33.7908 32 36 32C38.2092 32 40 33.7908 40 36Z" stroke="white" stroke-width="5"/>
<path d="M5 11.8571L22.5347 23.8809C24.0276 24.9047 25.9724 24.9047 27.4653 23.8809L45 11.8571M19.5 37H9.44444C6.98984 37 5 34.9534 5 32.4286V9.57143C5 7.0467 6.98984 5 9.44444 5H40.5556C43.0102 5 45 7.0467 45 9.57143V23" stroke="#000025" stroke-width="3" stroke-linecap="round" stroke-linejoin="round"/>
<path d="M33.8613 26.4258C33.356 27.6385 31.9391 28.1863 30.7462 27.6358C28.7726 26.7249 26.7249 28.7726 27.6358 30.7462C28.1863 31.9391 27.6385 33.356 26.4258 33.8613C24.5247 34.6534 24.5247 37.3465 26.4258 38.1386C27.6385 38.644 28.1863 40.061 27.6358 41.2537C26.7249 43.2274 28.7726 45.2751 30.7462 44.3641C31.9391 43.8136 33.356 44.3614 33.8613 45.5742C34.6534 47.4753 37.3465 47.4753 38.1386 45.5742C38.644 44.3614 40.061 43.8136 41.2537 44.3641C43.2274 45.2751 45.2751 43.2274 44.3641 41.2537C43.8136 40.061 44.3614 38.644 45.5742 38.1386C47.4753 37.3465 47.4753 34.6534 45.5742 33.8613C44.3614 33.356 43.8136 31.9391 44.3641 30.7462C45.2751 28.7726 43.2274 26.7249 41.2537 27.6358C40.061 28.1863 38.644 27.6385 38.1386 26.4258C37.3465 24.5247 34.6534 24.5247 33.8613 26.4258Z" stroke="#000025" stroke-width="2.88462" stroke-linecap="round" stroke-linejoin="round"/>
<path d="M40 36C40 38.2092 38.2092 40 36 40C33.7908 40 32 38.2092 32 36C32 33.7908 33.7908 32 36 32C38.2092 32 40 33.7908 40 36Z" stroke="#000025" stroke-width="2.88462"/>
</svg>
