<svg width="50" height="50" viewBox="0 0 50 50" fill="none" xmlns="http://www.w3.org/2000/svg">
<circle cx="24.5747" cy="25.4132" r="17.2152" stroke="white" stroke-width="4.88"/>
<circle cx="24.9076" cy="25.869" r="17.2152" stroke="white" stroke-width="4.88"/>
<circle cx="24.6672" cy="25.4132" r="5.43639" stroke="white" stroke-width="4.88"/>
<line x1="24.56" y1="18.56" x2="24.56" y2="2.44" stroke="white" stroke-width="4.88" stroke-linecap="round"/>
<line x1="2.62393" y1="31.9553" x2="17.6713" y2="27.3761" stroke="white" stroke-width="4.88" stroke-linecap="round"/>
<line x1="13.789" y1="46.7688" x2="20.8644" y2="31.211" stroke="white" stroke-width="4.88" stroke-linecap="round"/>
<line x1="36.6658" y1="47.1109" x2="28.1109" y2="32.3342" stroke="white" stroke-width="4.88" stroke-linecap="round"/>
<line x1="5.43822" y1="9.70703" x2="19.0162" y2="21.1528" stroke="white" stroke-width="4.88" stroke-linecap="round"/>
<line x1="47.225" y1="29.0511" x2="32.0511" y2="26.775" stroke="white" stroke-width="4.88" stroke-linecap="round"/>
<line x1="42.1928" y1="8.45059" x2="30.4506" y2="20.0249" stroke="white" stroke-width="4.88" stroke-linecap="round"/>
<circle cx="24.5747" cy="25.4132" r="17.2152" stroke="#000025" stroke-width="2.88462"/>
<circle cx="24.9076" cy="25.869" r="17.2152" stroke="#000025" stroke-width="2.88462"/>
<circle cx="24.6672" cy="25.4132" r="5.43639" stroke="#000025" stroke-width="2.88462"/>
<line x1="24.5192" y1="19.4404" x2="24.5192" y2="2.39157" stroke="#000025" stroke-width="2.88462" stroke-linecap="round"/>
<line x1="2.87634" y1="32.0994" x2="18.8358" y2="27.1782" stroke="#000025" stroke-width="2.88462" stroke-linecap="round"/>
<line x1="13.9411" y1="46.7319" x2="21.7759" y2="30.6103" stroke="#000025" stroke-width="2.88462" stroke-linecap="round"/>
<line x1="36.4907" y1="46.5898" x2="27.3591" y2="30.817" stroke="#000025" stroke-width="2.88462" stroke-linecap="round"/>
<line x1="5.76649" y1="9.82546" x2="19.8596" y2="21.5698" stroke="#000025" stroke-width="2.88462" stroke-linecap="round"/>
<line x1="47.3997" y1="29.0742" x2="31.0222" y2="26.6388" stroke="#000025" stroke-width="2.88462" stroke-linecap="round"/>
<line x1="42.45" y1="8.4247" x2="29.3314" y2="20.7899" stroke="#000025" stroke-width="2.88462" stroke-linecap="round"/>
</svg>
