<svg width="50" height="50" viewBox="0 0 50 50" fill="none" xmlns="http://www.w3.org/2000/svg">
<path d="M36.1891 39C38.9539 38.9368 41.5949 37.8332 43.5915 35.9074C45.5884 33.9818 46.7961 31.3731 46.9764 28.5958C47.1569 25.8187 46.2971 23.0741 44.5666 20.9031C42.8362 18.7321 40.3603 17.292 37.6272 16.8668C36.5802 13.9163 34.536 11.4303 31.8521 9.84272C29.1682 8.25512 26.0153 7.66679 22.9442 8.18144C19.8732 8.69606 17.0797 10.2809 15.0518 12.6581C13.024 15.0353 11.8908 18.0542 11.8504 21.1868C9.50313 21.1868 7.25201 22.1249 5.59222 23.7951C3.93244 25.4655 3 27.7314 3 30.0934C3 32.4557 3.93244 34.721 5.59222 36.3913C7.25201 38.0617 9.50313 39 11.8504 39H36.1891Z" stroke="white" stroke-width="5" stroke-linecap="round" stroke-linejoin="round"/>
<path d="M21.6375 24.6087C21.6375 24.855 21.6625 25.055 21.71 25.2025C21.7625 25.3487 21.83 25.5087 21.9225 25.6825C21.952 25.7284 21.9681 25.7817 21.9688 25.8362C21.9688 25.9025 21.9288 25.97 21.8438 26.0363L21.4238 26.3163C21.3733 26.3526 21.3134 26.3735 21.2513 26.3763C21.1838 26.3763 21.1175 26.3438 21.0513 26.2838C20.9614 26.1871 20.8811 26.082 20.8113 25.97C20.7373 25.8417 20.6689 25.7104 20.6063 25.5763C20.0863 26.19 19.435 26.4975 18.65 26.4975C18.0913 26.4975 17.645 26.3362 17.32 26.0162C16.9938 25.6962 16.8275 25.2688 16.8275 24.735C16.8275 24.1675 17.0275 23.7075 17.4325 23.36C17.8388 23.0125 18.3775 22.84 19.0625 22.84C19.2875 22.84 19.5213 22.86 19.7675 22.8925C20.0138 22.9263 20.2675 22.98 20.5325 23.04V22.5525C20.5325 22.045 20.4263 21.6913 20.22 21.485C20.0075 21.2775 19.6475 21.1775 19.135 21.1775C18.9025 21.1775 18.6638 21.205 18.4175 21.265C18.1729 21.3232 17.9327 21.3988 17.6988 21.4913C17.6232 21.5254 17.5456 21.5547 17.4663 21.5788C17.4319 21.5901 17.3962 21.5968 17.36 21.5987C17.2663 21.5987 17.22 21.5313 17.22 21.3913V21.0638C17.22 20.9575 17.2325 20.8763 17.2663 20.8313C17.3166 20.7699 17.3809 20.7215 17.4538 20.69C17.685 20.57 17.965 20.47 18.2913 20.39C18.6163 20.3025 18.9625 20.2638 19.3288 20.2638C20.12 20.2638 20.6988 20.4438 21.0713 20.8038C21.4375 21.1638 21.6238 21.7112 21.6238 22.4462V24.6087H21.6363H21.6375ZM18.9363 25.6225C19.155 25.6225 19.3813 25.5825 19.6213 25.5025C19.8613 25.4225 20.0738 25.275 20.2525 25.075C20.3597 24.9522 20.4371 24.8063 20.4788 24.6488C20.5188 24.4875 20.5463 24.295 20.5463 24.0675V23.7875C20.3444 23.7385 20.1399 23.701 19.9338 23.675C19.7265 23.6482 19.5178 23.6344 19.3088 23.6338C18.8625 23.6338 18.5375 23.7213 18.3175 23.9013C18.0975 24.0812 17.9925 24.335 17.9925 24.6688C17.9925 24.9813 18.0713 25.215 18.2375 25.3762C18.3975 25.5425 18.63 25.6225 18.9363 25.6225ZM24.2775 26.3438C24.1575 26.3438 24.0775 26.3238 24.025 26.2763C23.9713 26.2363 23.925 26.1437 23.885 26.0162L22.3225 20.8575C22.2921 20.771 22.272 20.6812 22.2625 20.59C22.2625 20.4838 22.315 20.4238 22.4213 20.4238H23.0738C23.1988 20.4238 23.2863 20.4438 23.3325 20.49C23.3863 20.53 23.4263 20.6238 23.4663 20.75L24.5838 25.1688L25.6213 20.75C25.6538 20.6175 25.6938 20.53 25.7475 20.49C25.8274 20.4411 25.9203 20.418 26.0138 20.4238H26.5463C26.6713 20.4238 26.7588 20.4438 26.8113 20.49C26.865 20.53 26.9113 20.6238 26.9388 20.75L27.9888 25.2225L29.1388 20.75C29.1601 20.6532 29.2062 20.5637 29.2725 20.49C29.35 20.441 29.441 20.4178 29.5325 20.4238H30.1513C30.2575 20.4238 30.3175 20.4775 30.3175 20.59C30.3175 20.6238 30.31 20.6575 30.305 20.6975C30.2942 20.7542 30.2783 20.8099 30.2575 20.8638L28.6538 26.0225C28.615 26.1563 28.5675 26.2438 28.515 26.2838C28.4395 26.332 28.3507 26.3552 28.2613 26.35H27.69C27.5638 26.35 27.4775 26.33 27.4238 26.2838C27.37 26.2363 27.3238 26.15 27.2975 26.0162L26.2663 21.7125L25.2413 26.0113C25.2088 26.145 25.1688 26.2313 25.1163 26.2775C25.0625 26.325 24.9688 26.345 24.85 26.345H24.2775V26.3438ZM32.825 26.5238C32.4798 26.5242 32.1358 26.4839 31.8 26.4038C31.4675 26.3238 31.2088 26.2363 31.035 26.1363C30.9288 26.0763 30.8563 26.01 30.8288 25.9488C30.8034 25.8899 30.7902 25.8266 30.79 25.7625V25.4225C30.79 25.2825 30.8425 25.215 30.9425 25.215C30.9833 25.2151 31.0239 25.2218 31.0625 25.235C31.1025 25.2487 31.1625 25.275 31.2288 25.3025C31.4538 25.4025 31.7013 25.4825 31.96 25.5363C32.2263 25.5888 32.485 25.6163 32.7513 25.6163C33.1713 25.6163 33.4963 25.5425 33.7225 25.3963C33.8312 25.3305 33.9205 25.237 33.9813 25.1255C34.0422 25.0139 34.0723 24.8883 34.0688 24.7613C34.071 24.6755 34.0563 24.5902 34.0254 24.5101C33.9945 24.4301 33.948 24.357 33.8888 24.295C33.77 24.1675 33.5438 24.0538 33.2175 23.9475L32.2525 23.6475C31.7675 23.4938 31.4075 23.2663 31.1888 22.9663C30.9746 22.6891 30.8578 22.349 30.8563 21.9988C30.8563 21.7188 30.9163 21.4713 31.035 21.2575C31.155 21.045 31.315 20.8575 31.515 20.71C31.715 20.5575 31.94 20.4438 32.2063 20.3638C32.4725 20.2838 32.7513 20.25 33.0438 20.25C33.1913 20.25 33.3438 20.2563 33.49 20.2763C33.6425 20.2963 33.7825 20.3238 33.9225 20.3513C34.055 20.3838 34.1825 20.4163 34.3013 20.4575C34.4213 20.4975 34.5138 20.5375 34.5813 20.5775C34.6597 20.617 34.7281 20.6738 34.7813 20.7437C34.8241 20.8088 34.8447 20.886 34.84 20.9638V21.2775C34.84 21.4175 34.7875 21.4913 34.6875 21.4913C34.599 21.4811 34.5132 21.454 34.435 21.4113C34.033 21.2331 33.5972 21.1444 33.1575 21.1513C32.7788 21.1513 32.4788 21.2113 32.2725 21.3388C32.0663 21.4638 31.96 21.6588 31.96 21.9325C31.96 22.1188 32.0263 22.2788 32.16 22.4063C32.2925 22.5325 32.5388 22.6588 32.8913 22.7725L33.8363 23.0725C34.315 23.2263 34.6613 23.44 34.8675 23.7138C35.0738 23.9875 35.1725 24.3013 35.1725 24.6488C35.1725 24.9363 35.1138 25.195 35 25.4225C34.8823 25.6508 34.7169 25.8512 34.515 26.01C34.3088 26.1762 34.0625 26.2975 33.7763 26.3838C33.4763 26.4775 33.1638 26.5238 32.825 26.5238Z" fill="white" stroke="white"/>
<path fill-rule="evenodd" clip-rule="evenodd" d="M34.0813 29.7664C31.8938 31.3876 28.7138 32.2489 25.98 32.2489C22.1488 32.2489 18.6963 30.8276 16.0888 28.4651C15.8825 28.2776 16.0688 28.0239 16.3138 28.1714C19.135 29.8126 22.6138 30.8076 26.2138 30.8076C28.64 30.8076 31.3075 30.3001 33.7625 29.2589C34.1288 29.0926 34.4413 29.4989 34.0813 29.7664Z" fill="white" stroke="white"/>
<path fill-rule="evenodd" clip-rule="evenodd" d="M34.9925 28.725C34.7137 28.3662 33.1437 28.5525 32.4325 28.6387C32.22 28.6662 32.1862 28.4787 32.3787 28.3387C33.6287 27.4575 35.685 27.7112 35.9237 28.005C36.1637 28.305 35.8575 30.3675 34.6862 31.355C34.5075 31.5087 34.335 31.43 34.415 31.23C34.68 30.5675 35.2725 29.08 34.9925 28.7262V28.725Z" fill="white" stroke="white"/>
<path d="M36.1891 39C38.9539 38.9368 41.5949 37.8332 43.5915 35.9074C45.5884 33.9818 46.7961 31.3731 46.9764 28.5958C47.1569 25.8187 46.2971 23.0741 44.5666 20.9031C42.8362 18.7321 40.3603 17.292 37.6272 16.8668C36.5802 13.9163 34.536 11.4303 31.8521 9.84272C29.1682 8.25512 26.0153 7.66679 22.9442 8.18144C19.8732 8.69606 17.0797 10.2809 15.0518 12.6581C13.024 15.0353 11.8908 18.0542 11.8504 21.1868C9.50313 21.1868 7.25201 22.1249 5.59222 23.7951C3.93244 25.4655 3 27.7314 3 30.0934C3 32.4557 3.93244 34.721 5.59222 36.3913C7.25201 38.0617 9.50313 39 11.8504 39H36.1891Z" stroke="#000025" stroke-width="2.88462" stroke-linecap="round" stroke-linejoin="round"/>
<path d="M21.6375 24.6087C21.6375 24.855 21.6625 25.055 21.71 25.2025C21.7625 25.3487 21.83 25.5087 21.9225 25.6825C21.952 25.7284 21.9681 25.7817 21.9688 25.8362C21.9688 25.9025 21.9288 25.97 21.8438 26.0363L21.4238 26.3163C21.3733 26.3526 21.3134 26.3735 21.2513 26.3763C21.1838 26.3763 21.1175 26.3438 21.0513 26.2838C20.9614 26.1871 20.8811 26.082 20.8113 25.97C20.7373 25.8417 20.6689 25.7104 20.6063 25.5763C20.0863 26.19 19.435 26.4975 18.65 26.4975C18.0913 26.4975 17.645 26.3362 17.32 26.0162C16.9938 25.6962 16.8275 25.2688 16.8275 24.735C16.8275 24.1675 17.0275 23.7075 17.4325 23.36C17.8388 23.0125 18.3775 22.84 19.0625 22.84C19.2875 22.84 19.5213 22.86 19.7675 22.8925C20.0138 22.9263 20.2675 22.98 20.5325 23.04V22.5525C20.5325 22.045 20.4263 21.6913 20.22 21.485C20.0075 21.2775 19.6475 21.1775 19.135 21.1775C18.9025 21.1775 18.6638 21.205 18.4175 21.265C18.1729 21.3232 17.9327 21.3988 17.6988 21.4913C17.6232 21.5254 17.5456 21.5547 17.4663 21.5788C17.4319 21.5901 17.3962 21.5968 17.36 21.5987C17.2663 21.5987 17.22 21.5313 17.22 21.3913V21.0638C17.22 20.9575 17.2325 20.8763 17.2663 20.8313C17.3166 20.7699 17.3809 20.7215 17.4538 20.69C17.685 20.57 17.965 20.47 18.2913 20.39C18.6163 20.3025 18.9625 20.2638 19.3288 20.2638C20.12 20.2638 20.6988 20.4438 21.0713 20.8038C21.4375 21.1638 21.6238 21.7112 21.6238 22.4462V24.6087H21.6363H21.6375ZM18.9363 25.6225C19.155 25.6225 19.3813 25.5825 19.6213 25.5025C19.8613 25.4225 20.0738 25.275 20.2525 25.075C20.3597 24.9522 20.4371 24.8063 20.4788 24.6488C20.5188 24.4875 20.5463 24.295 20.5463 24.0675V23.7875C20.3444 23.7385 20.1399 23.701 19.9338 23.675C19.7265 23.6482 19.5178 23.6344 19.3088 23.6338C18.8625 23.6338 18.5375 23.7213 18.3175 23.9013C18.0975 24.0812 17.9925 24.335 17.9925 24.6688C17.9925 24.9813 18.0713 25.215 18.2375 25.3762C18.3975 25.5425 18.63 25.6225 18.9363 25.6225ZM24.2775 26.3438C24.1575 26.3438 24.0775 26.3238 24.025 26.2763C23.9713 26.2363 23.925 26.1437 23.885 26.0162L22.3225 20.8575C22.2921 20.771 22.272 20.6812 22.2625 20.59C22.2625 20.4838 22.315 20.4238 22.4213 20.4238H23.0738C23.1988 20.4238 23.2863 20.4438 23.3325 20.49C23.3863 20.53 23.4263 20.6238 23.4663 20.75L24.5838 25.1688L25.6213 20.75C25.6538 20.6175 25.6938 20.53 25.7475 20.49C25.8274 20.4411 25.9203 20.418 26.0138 20.4238H26.5463C26.6713 20.4238 26.7588 20.4438 26.8113 20.49C26.865 20.53 26.9113 20.6238 26.9388 20.75L27.9888 25.2225L29.1388 20.75C29.1601 20.6532 29.2062 20.5637 29.2725 20.49C29.35 20.441 29.441 20.4178 29.5325 20.4238H30.1513C30.2575 20.4238 30.3175 20.4775 30.3175 20.59C30.3175 20.6238 30.31 20.6575 30.305 20.6975C30.2942 20.7542 30.2783 20.8099 30.2575 20.8638L28.6538 26.0225C28.615 26.1563 28.5675 26.2438 28.515 26.2838C28.4395 26.332 28.3507 26.3552 28.2613 26.35H27.69C27.5638 26.35 27.4775 26.33 27.4238 26.2838C27.37 26.2363 27.3238 26.15 27.2975 26.0162L26.2663 21.7125L25.2413 26.0113C25.2088 26.145 25.1688 26.2313 25.1163 26.2775C25.0625 26.325 24.9688 26.345 24.85 26.345H24.2775V26.3438ZM32.825 26.5238C32.4798 26.5242 32.1358 26.4839 31.8 26.4038C31.4675 26.3238 31.2088 26.2363 31.035 26.1363C30.9288 26.0763 30.8563 26.01 30.8288 25.9488C30.8034 25.8899 30.7902 25.8266 30.79 25.7625V25.4225C30.79 25.2825 30.8425 25.215 30.9425 25.215C30.9833 25.2151 31.0239 25.2218 31.0625 25.235C31.1025 25.2487 31.1625 25.275 31.2288 25.3025C31.4538 25.4025 31.7013 25.4825 31.96 25.5363C32.2263 25.5888 32.485 25.6163 32.7513 25.6163C33.1713 25.6163 33.4963 25.5425 33.7225 25.3963C33.8312 25.3305 33.9205 25.237 33.9813 25.1255C34.0422 25.0139 34.0723 24.8883 34.0688 24.7613C34.071 24.6755 34.0563 24.5902 34.0254 24.5101C33.9945 24.4301 33.948 24.357 33.8888 24.295C33.77 24.1675 33.5438 24.0538 33.2175 23.9475L32.2525 23.6475C31.7675 23.4938 31.4075 23.2663 31.1888 22.9663C30.9746 22.6891 30.8578 22.349 30.8563 21.9988C30.8563 21.7188 30.9163 21.4713 31.035 21.2575C31.155 21.045 31.315 20.8575 31.515 20.71C31.715 20.5575 31.94 20.4438 32.2063 20.3638C32.4725 20.2838 32.7513 20.25 33.0438 20.25C33.1913 20.25 33.3438 20.2563 33.49 20.2763C33.6425 20.2963 33.7825 20.3238 33.9225 20.3513C34.055 20.3838 34.1825 20.4163 34.3013 20.4575C34.4213 20.4975 34.5138 20.5375 34.5813 20.5775C34.6597 20.617 34.7281 20.6738 34.7813 20.7437C34.8241 20.8088 34.8447 20.886 34.84 20.9638V21.2775C34.84 21.4175 34.7875 21.4913 34.6875 21.4913C34.599 21.4811 34.5132 21.454 34.435 21.4113C34.033 21.2331 33.5972 21.1444 33.1575 21.1513C32.7788 21.1513 32.4788 21.2113 32.2725 21.3388C32.0663 21.4638 31.96 21.6588 31.96 21.9325C31.96 22.1188 32.0263 22.2788 32.16 22.4063C32.2925 22.5325 32.5388 22.6588 32.8913 22.7725L33.8363 23.0725C34.315 23.2263 34.6613 23.44 34.8675 23.7138C35.0738 23.9875 35.1725 24.3013 35.1725 24.6488C35.1725 24.9363 35.1138 25.195 35 25.4225C34.8823 25.6508 34.7169 25.8512 34.515 26.01C34.3088 26.1762 34.0625 26.2975 33.7763 26.3838C33.4763 26.4775 33.1638 26.5238 32.825 26.5238Z" fill="#000025" stroke="#000025" stroke-width="0.00016"/>
<path fill-rule="evenodd" clip-rule="evenodd" d="M34.0813 29.7664C31.8938 31.3876 28.7138 32.2489 25.98 32.2489C22.1488 32.2489 18.6963 30.8276 16.0888 28.4651C15.8825 28.2776 16.0688 28.0239 16.3138 28.1714C19.135 29.8126 22.6138 30.8076 26.2138 30.8076C28.64 30.8076 31.3075 30.3001 33.7625 29.2589C34.1288 29.0926 34.4413 29.4989 34.0813 29.7664Z" fill="#000025" stroke="#000025" stroke-width="0.00016"/>
<path fill-rule="evenodd" clip-rule="evenodd" d="M34.9925 28.725C34.7137 28.3662 33.1437 28.5525 32.4325 28.6387C32.22 28.6662 32.1862 28.4787 32.3787 28.3387C33.6287 27.4575 35.685 27.7112 35.9237 28.005C36.1637 28.305 35.8575 30.3675 34.6862 31.355C34.5075 31.5087 34.335 31.43 34.415 31.23C34.68 30.5675 35.2725 29.08 34.9925 28.7262V28.725Z" fill="#000025" stroke="#000025" stroke-width="0.00016"/>
</svg>
