<svg width="50" height="50" viewBox="0 0 50 50" fill="none" xmlns="http://www.w3.org/2000/svg">
<path d="M36.1891 39C38.9539 38.9368 41.5949 37.8332 43.5915 35.9074C45.5884 33.9818 46.7961 31.3731 46.9764 28.5958C47.1569 25.8187 46.2971 23.0741 44.5666 20.9031C42.8362 18.7321 40.3603 17.292 37.6272 16.8668C36.5802 13.9163 34.536 11.4303 31.8521 9.84272C29.1682 8.25512 26.0153 7.66679 22.9442 8.18144C19.8732 8.69606 17.0797 10.2809 15.0518 12.6581C13.024 15.0353 11.8908 18.0542 11.8504 21.1868C9.50313 21.1868 7.25201 22.1249 5.59222 23.7951C3.93244 25.4655 3 27.7314 3 30.0934C3 32.4557 3.93244 34.721 5.59222 36.3913C7.25201 38.0617 9.50313 39 11.8504 39H36.1891Z" stroke="white" stroke-width="5" stroke-linecap="round" stroke-linejoin="round"/>
<path d="M25.2535 31.1982L29.969 30.3909L30.0127 30.3814L27.5873 27.5873C26.774 26.6554 25.965 25.72 25.1606 24.7809C25.1606 24.7673 27.6662 18.0868 27.6803 18.0636C29.0666 20.3614 30.444 22.6642 31.8127 24.9718L35.9676 31.9468L36 32L20.5803 31.9986L25.2535 31.1982ZM16 30.3473C16 30.3432 17.1423 28.4218 18.5394 26.0777L21.0803 21.8136L24.0408 19.4082C25.669 18.0868 27.0056 17 27.0099 17C26.9994 17.0403 26.9837 17.0793 26.9634 17.1159L23.7465 23.7923L20.5915 30.3486L18.2958 30.3514C17.0324 30.3527 16 30.3514 16 30.3473Z" stroke="white" stroke-width="1.5"/>
<path d="M36.1891 39C38.9539 38.9368 41.5949 37.8332 43.5915 35.9074C45.5884 33.9818 46.7961 31.3731 46.9764 28.5958C47.1569 25.8187 46.2971 23.0741 44.5666 20.9031C42.8362 18.7321 40.3603 17.292 37.6272 16.8668C36.5802 13.9163 34.536 11.4303 31.8521 9.84272C29.1682 8.25512 26.0153 7.66679 22.9442 8.18144C19.8732 8.69606 17.0797 10.2809 15.0518 12.6581C13.024 15.0353 11.8908 18.0542 11.8504 21.1868C9.50313 21.1868 7.25201 22.1249 5.59222 23.7951C3.93244 25.4655 3 27.7314 3 30.0934C3 32.4557 3.93244 34.721 5.59222 36.3913C7.25201 38.0617 9.50313 39 11.8504 39H36.1891Z" stroke="#000025" stroke-width="2.88462" stroke-linecap="round" stroke-linejoin="round"/>
<path d="M25.2535 31.1982L29.969 30.3909L30.0127 30.3814L27.5873 27.5873C26.774 26.6554 25.965 25.72 25.1606 24.7809C25.1606 24.7673 27.6662 18.0868 27.6803 18.0636C29.0666 20.3614 30.444 22.6642 31.8127 24.9718L35.9676 31.9468L36 32L20.5803 31.9986L25.2535 31.1982ZM16 30.3473C16 30.3432 17.1423 28.4218 18.5394 26.0777L21.0803 21.8136L24.0408 19.4082C25.669 18.0868 27.0056 17 27.0099 17C26.9994 17.0403 26.9837 17.0793 26.9634 17.1159L23.7465 23.7923L20.5915 30.3486L18.2958 30.3514C17.0324 30.3527 16 30.3514 16 30.3473Z" fill="#000025"/>
</svg>
