<svg width="50" height="50" viewBox="0 0 50 50" fill="none" xmlns="http://www.w3.org/2000/svg">
<path d="M25 31.7308C26.0621 31.7308 26.9231 32.5917 26.9231 33.6538C26.9231 34.7159 26.0621 35.5769 25 35.5769C23.9379 35.5769 23.0769 34.7159 23.0769 33.6538C23.0769 32.5917 23.9379 31.7308 25 31.7308Z" stroke="white" stroke-width="2.88"/>
<path d="M38.4615 20.4929C36.9553 18.3497 34.9611 16.5921 32.6422 15.3638C30.3235 14.1354 27.7456 13.4713 25.1198 13.4256C22.4939 13.38 19.8945 13.9541 17.534 15.101C15.1735 16.248 13.119 17.9352 11.5385 20.0248M34.3719 25.0039C33.3175 23.5036 31.9216 22.2732 30.2983 21.4134C28.6752 20.5536 26.8707 20.0886 25.0326 20.0567C23.1945 20.0247 21.3749 20.4266 19.7226 21.2294C18.0702 22.0323 16.6321 23.2135 15.5257 24.6761M28.919 28.8077C28.467 28.1648 27.8689 27.6374 27.1731 27.269C26.4775 26.9004 25.7041 26.7011 24.9165 26.6875C24.1286 26.6738 23.3488 26.846 22.6407 27.19C21.9326 27.5342 21.3162 28.0404 20.8421 28.6673" stroke="white" stroke-width="4.88" stroke-linecap="round" stroke-linejoin="round"/>
<path d="M43 25.0551C43 36.0705 30.715 44.0525 26.4432 46.4953C25.9812 46.7595 25.7501 46.8916 25.4297 46.96C25.18 47.0133 24.82 47.0133 24.5702 46.96C24.2498 46.8916 24.0188 46.7595 23.5568 46.4953C19.2849 44.0525 7 36.0705 7 25.0551V15.7155C7 13.7413 7 12.7542 7.29421 11.9057C7.55411 11.1562 7.97645 10.4873 8.52473 9.95708C9.14537 9.35684 9.98755 9.01026 11.6719 8.31708L23.7359 3.3523C24.2037 3.1598 24.4375 3.06355 24.6783 3.02537C24.8916 2.99154 25.1084 2.99154 25.3217 3.02537C25.5625 3.06355 25.7963 3.1598 26.264 3.3523L38.3281 8.31708C40.0124 9.01026 40.8546 9.35684 41.4752 9.95708C42.0235 10.4873 42.4458 11.1562 42.7057 11.9057C43 12.7542 43 13.7413 43 15.7155V25.0551Z" stroke="white" stroke-width="4.88" stroke-linecap="round" stroke-linejoin="round"/>
<path d="M25 31.7308C26.0621 31.7308 26.9231 32.5917 26.9231 33.6538C26.9231 34.7159 26.0621 35.5769 25 35.5769C23.9379 35.5769 23.0769 34.7159 23.0769 33.6538C23.0769 32.5917 23.9379 31.7308 25 31.7308Z" fill="#000025"/>
<path d="M38.4615 20.4929C36.9553 18.3497 34.9611 16.5921 32.6422 15.3638C30.3235 14.1354 27.7456 13.4713 25.1198 13.4256C22.4939 13.38 19.8945 13.9541 17.534 15.101C15.1735 16.248 13.119 17.9352 11.5385 20.0248M34.3719 25.0039C33.3175 23.5036 31.9216 22.2732 30.2983 21.4134C28.6752 20.5536 26.8707 20.0886 25.0326 20.0567C23.1945 20.0247 21.3749 20.4266 19.7226 21.2294C18.0702 22.0323 16.6321 23.2135 15.5257 24.6761M28.919 28.8077C28.467 28.1648 27.8689 27.6374 27.1731 27.269C26.4775 26.9004 25.7041 26.7011 24.9165 26.6875C24.1286 26.6738 23.3488 26.846 22.6407 27.19C21.9326 27.5342 21.3162 28.0404 20.8421 28.6673" stroke="#000025" stroke-width="2.88462" stroke-linecap="round" stroke-linejoin="round"/>
<path d="M43 25.0551C43 36.0705 30.715 44.0525 26.4432 46.4953C25.9812 46.7595 25.7501 46.8916 25.4297 46.96C25.18 47.0133 24.82 47.0133 24.5702 46.96C24.2498 46.8916 24.0188 46.7595 23.5568 46.4953C19.2849 44.0525 7 36.0705 7 25.0551V15.7155C7 13.7413 7 12.7542 7.29421 11.9057C7.55411 11.1562 7.97645 10.4873 8.52473 9.95708C9.14537 9.35684 9.98755 9.01026 11.6719 8.31708L23.7359 3.3523C24.2037 3.1598 24.4375 3.06355 24.6783 3.02537C24.8916 2.99154 25.1084 2.99154 25.3217 3.02537C25.5625 3.06355 25.7963 3.1598 26.264 3.3523L38.3281 8.31708C40.0124 9.01026 40.8546 9.35684 41.4752 9.95708C42.0235 10.4873 42.4458 11.1562 42.7057 11.9057C43 12.7542 43 13.7413 43 15.7155V25.0551Z" stroke="#000025" stroke-width="2.88462" stroke-linecap="round" stroke-linejoin="round"/>
</svg>
