<svg width="50" height="50" viewBox="0 0 50 50" fill="none" xmlns="http://www.w3.org/2000/svg">
<path d="M35.9543 16.6931C35.9543 22.743 31.0498 27.6475 24.9999 27.6475C18.95 27.6475 14.0455 22.743 14.0455 16.6931C14.0455 10.6431 18.95 5.73868 24.9999 5.73868C31.0498 5.73868 35.9543 10.6431 35.9543 16.6931Z" stroke="white" stroke-width="3.73911" stroke-miterlimit="10" stroke-linecap="round" stroke-linejoin="round"/>
<path d="M8.47707 16.693C8.47707 18.2055 7.25091 19.4316 5.73848 19.4316C4.22604 19.4316 2.99988 18.2055 2.99988 16.693C2.99988 15.1806 4.22604 13.9544 5.73848 13.9544C7.25091 13.9544 8.47707 15.1806 8.47707 16.693Z" stroke="white" stroke-width="3.73911" stroke-miterlimit="10" stroke-linecap="round" stroke-linejoin="round"/>
<path d="M8.47707 5.73858C8.47707 7.25101 7.25091 8.47717 5.73848 8.47717C4.22604 8.47717 2.99988 7.25101 2.99988 5.73858C2.99988 4.22614 4.22604 2.99998 5.73848 2.99998C7.25091 2.99998 8.47707 4.22614 8.47707 5.73858Z" stroke="white" stroke-width="3.73911" stroke-miterlimit="10" stroke-linecap="round" stroke-linejoin="round"/>
<path d="M8.47707 27.6474C8.47707 29.1598 7.25091 30.386 5.73848 30.386C4.22604 30.386 2.99988 29.1598 2.99988 27.6474C2.99988 26.135 4.22604 24.9088 5.73848 24.9088C7.25091 24.9088 8.47707 26.135 8.47707 27.6474Z" stroke="white" stroke-width="3.73911" stroke-miterlimit="10" stroke-linecap="round" stroke-linejoin="round"/>
<path d="M47 27.6474C47 29.1598 45.7739 30.386 44.2614 30.386C42.749 30.386 41.5228 29.1598 41.5228 27.6474C41.5228 26.135 42.749 24.9088 44.2614 24.9088C45.7739 24.9088 47 26.135 47 27.6474Z" stroke="white" stroke-width="3.73911" stroke-miterlimit="10" stroke-linecap="round" stroke-linejoin="round"/>
<path d="M47 16.693C47 18.2055 45.7739 19.4316 44.2614 19.4316C42.749 19.4316 41.5228 18.2055 41.5228 16.693C41.5228 15.1806 42.749 13.9544 44.2614 13.9544C45.7739 13.9544 47 15.1806 47 16.693Z" stroke="white" stroke-width="3.73911" stroke-miterlimit="10" stroke-linecap="round" stroke-linejoin="round"/>
<path d="M47 5.73858C47 7.25101 45.7739 8.47717 44.2614 8.47717C42.749 8.47717 41.5228 7.25101 41.5228 5.73858C41.5228 4.22614 42.749 2.99998 44.2614 2.99998C45.7739 2.99998 47 4.22614 47 5.73858Z" stroke="white" stroke-width="3.73911" stroke-miterlimit="10" stroke-linecap="round" stroke-linejoin="round"/>
<path d="M24.9999 33.1246V27.6474" stroke="white" stroke-width="3.73911" stroke-miterlimit="10" stroke-linecap="round" stroke-linejoin="round"/>
<path d="M27.7385 33.1246H22.2613V47.0001H27.7385V33.1246Z" stroke="white" stroke-width="3.73911" stroke-miterlimit="10" stroke-linecap="round" stroke-linejoin="round"/>
<path d="M27.7385 38.6018H22.2613" stroke="white" stroke-width="3.73911" stroke-miterlimit="10" stroke-linecap="round" stroke-linejoin="round"/>
<path d="M8.47705 16.693H14.0455" stroke="white" stroke-width="3.73911" stroke-miterlimit="10" stroke-linecap="round" stroke-linejoin="round"/>
<path d="M35.9543 16.693H41.5228" stroke="white" stroke-width="3.73911" stroke-miterlimit="10" stroke-linecap="round" stroke-linejoin="round"/>
<path d="M8.47705 27.6475H14.0455L16.7841 23.9389" stroke="white" stroke-width="3.73911" stroke-miterlimit="10" stroke-linecap="round" stroke-linejoin="round"/>
<path d="M16.7841 9.44714L14.0455 5.73863H8.47705" stroke="white" stroke-width="3.73911" stroke-miterlimit="10" stroke-linecap="round" stroke-linejoin="round"/>
<path d="M41.5228 5.73863H35.9543L33.2157 9.44714" stroke="white" stroke-width="3.73911" stroke-miterlimit="10" stroke-linecap="round" stroke-linejoin="round"/>
<path d="M33.2157 23.9389L35.9543 27.6475H41.5228" stroke="white" stroke-width="3.73911" stroke-miterlimit="10" stroke-linecap="round" stroke-linejoin="round"/>
<path d="M35.9543 16.6931C35.9543 22.743 31.0498 27.6475 24.9999 27.6475C18.95 27.6475 14.0455 22.743 14.0455 16.6931C14.0455 10.6431 18.95 5.73868 24.9999 5.73868C31.0498 5.73868 35.9543 10.6431 35.9543 16.6931Z" stroke="#000025" stroke-width="1.86955" stroke-miterlimit="10" stroke-linecap="round" stroke-linejoin="round"/>
<path d="M8.47707 16.693C8.47707 18.2055 7.25091 19.4316 5.73848 19.4316C4.22604 19.4316 2.99988 18.2055 2.99988 16.693C2.99988 15.1806 4.22604 13.9544 5.73848 13.9544C7.25091 13.9544 8.47707 15.1806 8.47707 16.693Z" stroke="#000025" stroke-width="1.86955" stroke-miterlimit="10" stroke-linecap="round" stroke-linejoin="round"/>
<path d="M8.47707 5.73858C8.47707 7.25101 7.25091 8.47717 5.73848 8.47717C4.22604 8.47717 2.99988 7.25101 2.99988 5.73858C2.99988 4.22614 4.22604 2.99998 5.73848 2.99998C7.25091 2.99998 8.47707 4.22614 8.47707 5.73858Z" stroke="#000025" stroke-width="1.86955" stroke-miterlimit="10" stroke-linecap="round" stroke-linejoin="round"/>
<path d="M8.47707 27.6474C8.47707 29.1598 7.25091 30.386 5.73848 30.386C4.22604 30.386 2.99988 29.1598 2.99988 27.6474C2.99988 26.135 4.22604 24.9088 5.73848 24.9088C7.25091 24.9088 8.47707 26.135 8.47707 27.6474Z" stroke="#000025" stroke-width="1.86955" stroke-miterlimit="10" stroke-linecap="round" stroke-linejoin="round"/>
<path d="M47 27.6474C47 29.1598 45.7739 30.386 44.2614 30.386C42.749 30.386 41.5228 29.1598 41.5228 27.6474C41.5228 26.135 42.749 24.9088 44.2614 24.9088C45.7739 24.9088 47 26.135 47 27.6474Z" stroke="#000025" stroke-width="1.86955" stroke-miterlimit="10" stroke-linecap="round" stroke-linejoin="round"/>
<path d="M47 16.693C47 18.2055 45.7739 19.4316 44.2614 19.4316C42.749 19.4316 41.5228 18.2055 41.5228 16.693C41.5228 15.1806 42.749 13.9544 44.2614 13.9544C45.7739 13.9544 47 15.1806 47 16.693Z" stroke="#000025" stroke-width="1.86955" stroke-miterlimit="10" stroke-linecap="round" stroke-linejoin="round"/>
<path d="M47 5.73858C47 7.25101 45.7739 8.47717 44.2614 8.47717C42.749 8.47717 41.5228 7.25101 41.5228 5.73858C41.5228 4.22614 42.749 2.99998 44.2614 2.99998C45.7739 2.99998 47 4.22614 47 5.73858Z" stroke="#000025" stroke-width="1.86955" stroke-miterlimit="10" stroke-linecap="round" stroke-linejoin="round"/>
<path d="M24.9999 33.1246V27.6474" stroke="#000025" stroke-width="1.86955" stroke-miterlimit="10" stroke-linecap="round" stroke-linejoin="round"/>
<path d="M27.7385 33.1246H22.2613V47.0001H27.7385V33.1246Z" stroke="#000025" stroke-width="1.86955" stroke-miterlimit="10" stroke-linecap="round" stroke-linejoin="round"/>
<path d="M27.7385 38.6018H22.2613" stroke="#000025" stroke-width="1.86955" stroke-miterlimit="10" stroke-linecap="round" stroke-linejoin="round"/>
<path d="M8.47705 16.693H14.0455" stroke="#000025" stroke-width="1.86955" stroke-miterlimit="10" stroke-linecap="round" stroke-linejoin="round"/>
<path d="M35.9543 16.693H41.5228" stroke="#000025" stroke-width="1.86955" stroke-miterlimit="10" stroke-linecap="round" stroke-linejoin="round"/>
<path d="M8.47705 27.6475H14.0455L16.7841 23.9389" stroke="#000025" stroke-width="1.86955" stroke-miterlimit="10" stroke-linecap="round" stroke-linejoin="round"/>
<path d="M16.7841 9.44714L14.0455 5.73863H8.47705" stroke="#000025" stroke-width="1.86955" stroke-miterlimit="10" stroke-linecap="round" stroke-linejoin="round"/>
<path d="M41.5228 5.73863H35.9543L33.2157 9.44714" stroke="#000025" stroke-width="1.86955" stroke-miterlimit="10" stroke-linecap="round" stroke-linejoin="round"/>
<path d="M33.2157 23.9389L35.9543 27.6475H41.5228" stroke="#000025" stroke-width="1.86955" stroke-miterlimit="10" stroke-linecap="round" stroke-linejoin="round"/>
</svg>
