<svg width="50" height="50" viewBox="0 0 50 50" fill="none" xmlns="http://www.w3.org/2000/svg">
<path d="M46.9764 27.5958C47.1569 24.8187 46.2971 22.0741 44.5666 19.9031C42.8362 17.7321 40.3603 16.292 37.6272 15.8668C36.5802 12.9163 34.536 10.4303 31.8521 8.84272C29.1682 7.25512 26.0153 6.66679 22.9442 7.18144C19.8732 7.69606 17.0797 9.2809 15.0518 11.6581C13.024 14.0353 11.8908 17.0542 11.8504 20.1868C9.50313 20.1868 7.25201 21.1249 5.59222 22.7951C3.93244 24.4655 3 26.7314 3 29.0934C3 31.4557 3.93244 33.721 5.59222 35.3913C7.25201 37.0617 9.50313 38 11.8504 38H24.0197" stroke="white" stroke-width="5" stroke-linecap="round" stroke-linejoin="round"/>
<path d="M33.2826 32.9456V29.966C33.2826 27.7718 35.0613 25.9932 37.2554 25.9932C39.4495 25.9932 41.2282 27.7718 41.2282 29.966V32.9456" stroke="white" stroke-width="5" stroke-linecap="round"/>
<path d="M30.3027 32.9456H44.2075V41.8844C44.2075 42.9815 43.3182 43.8708 42.2211 43.8708H32.2891C31.192 43.8708 30.3027 42.9815 30.3027 41.8844V32.9456Z" stroke="white" stroke-width="5" stroke-linejoin="round"/>
<circle cx="37.5" cy="38.5" r="1.5" stroke="white" stroke-width="2"/>
<path d="M46.9764 27.5958C47.1569 24.8187 46.2971 22.0741 44.5666 19.9031C42.8362 17.7321 40.3603 16.292 37.6272 15.8668C36.5802 12.9163 34.536 10.4303 31.8521 8.84272C29.1682 7.25512 26.0153 6.66679 22.9442 7.18144C19.8732 7.69606 17.0797 9.2809 15.0518 11.6581C13.024 14.0353 11.8908 17.0542 11.8504 20.1868C9.50313 20.1868 7.25201 21.1249 5.59222 22.7951C3.93244 24.4655 3 26.7314 3 29.0934C3 31.4557 3.93244 33.721 5.59222 35.3913C7.25201 37.0617 9.50313 38 11.8504 38H24.0197" stroke="#000025" stroke-width="2.88462" stroke-linecap="round" stroke-linejoin="round"/>
<path d="M33.2826 32.9456V29.966C33.2826 27.7718 35.0613 25.9932 37.2554 25.9932C39.4495 25.9932 41.2282 27.7718 41.2282 29.966V32.9456" stroke="#000025" stroke-width="2.88462" stroke-linecap="round"/>
<path d="M30.3027 32.9456H44.2075V41.8844C44.2075 42.9815 43.3182 43.8708 42.2211 43.8708H32.2891C31.192 43.8708 30.3027 42.9815 30.3027 41.8844V32.9456Z" stroke="#000025" stroke-width="2.88462" stroke-linejoin="round"/>
<circle cx="37.5" cy="38.5" r="1.5" fill="#000025"/>
</svg>
