<svg width="50" height="50" viewBox="0 0 50 50" fill="none" xmlns="http://www.w3.org/2000/svg">
<path d="M17.4281 25.035L14.3495 25.5943C12.1065 25.8635 9.84404 25.4607 7.84798 24.4368C5.85193 23.4128 4.21188 21.8136 3.13507 19.8413C2.05826 17.8691 1.59302 15.6121 1.79813 13.3558C2.00324 11.0995 2.8695 8.94498 4.28745 7.16457C5.7054 5.38415 7.61141 4.05772 9.76461 3.35288C11.9178 2.64804 14.2216 2.59643 16.3848 3.20456C18.5481 3.8127 20.4737 5.05329 21.9184 6.76958C23.3631 8.48586 24.262 10.6008 24.5015 12.8472L25.4985 34.4735C25.738 36.7199 26.6369 38.8348 28.0816 40.5511C29.5262 42.2674 31.4519 43.508 33.6151 44.1161C35.7784 44.7242 38.0821 44.6726 40.2353 43.9678C42.3886 43.2629 44.2946 41.9365 45.7125 40.1561C47.1305 38.3757 47.9967 36.2212 48.2018 33.9649C48.4069 31.7085 47.9417 29.4516 46.8649 27.4793C45.7881 25.507 44.148 23.9079 42.152 22.8839C40.1559 21.8599 37.8935 21.4571 35.6505 21.7264L32.5718 22.2856" stroke="#000025" stroke-width="3" stroke-linecap="round" stroke-linejoin="round"/>
<path d="M13.4844 19.6401L18.9793 24.7523L14.7677 30.9644" stroke="#000025" stroke-width="2.88462" stroke-linecap="round" stroke-linejoin="round"/>
<path d="M36.1572 28.1285L30.6623 23.0164L34.8739 16.8043" stroke="#000025" stroke-width="2.88462" stroke-linecap="round" stroke-linejoin="round"/>
</svg>
