<svg width="50" height="50" viewBox="0 0 50 50" fill="none" xmlns="http://www.w3.org/2000/svg">
<path d="M36.7368 39.4231C39.637 39.3584 42.4072 38.2288 44.5016 36.2576C46.5962 34.2866 47.863 31.6164 48.0521 28.7736C48.2415 25.931 47.3396 23.1218 45.5244 20.8996C43.7092 18.6774 41.1121 17.2034 38.2454 16.7681C37.1471 13.748 35.0028 11.2035 32.1875 9.57848C29.3723 7.95345 26.065 7.35126 22.8435 7.87804C19.6223 8.40479 16.692 10.027 14.5648 12.4602C12.4377 14.8935 11.2491 17.9835 11.2067 21.19C8.74453 21.19 6.38321 22.1502 4.64218 23.8598C2.90114 25.5696 1.92307 27.8888 1.92307 30.3065C1.92307 32.7245 2.90114 35.0433 4.64218 36.7529C6.38321 38.4627 8.74453 39.4231 11.2067 39.4231H36.7368Z" stroke="#000025" stroke-width="2.88462" stroke-linecap="round" stroke-linejoin="round"/>
<path d="M20.1923 30.7692L30.7692 20.1923" stroke="#000025" stroke-width="2.88462" stroke-linecap="round"/>
<path d="M30.7692 30.7692L20.1923 20.1923" stroke="#000025" stroke-width="2.88462" stroke-linecap="round"/>
</svg>
