<svg width="50" height="50" viewBox="0 0 50 50" fill="none" xmlns="http://www.w3.org/2000/svg">
<path d="M17.6282 13.141H26.6026C29.0808 13.141 31.0897 15.15 31.0897 17.6282C31.0897 20.1065 29.0808 22.1154 26.6026 22.1154M17.6282 13.141V22.1154M17.6282 13.141H14.2628M17.6282 13.141V9.77566M26.6026 22.1154H17.6282M26.6026 22.1154C29.0808 22.1154 31.0897 24.1243 31.0897 26.6026C31.0897 29.0809 29.0808 31.0898 26.6026 31.0898H17.6282M17.6282 22.1154V31.0898M17.6282 31.0898H14.2628M17.6282 31.0898V34.4551M24.359 13.141V9.77566M24.359 34.4551V31.0898M42.3077 22.1154C42.3077 10.9635 33.2674 1.9231 22.1154 1.9231C10.9635 1.9231 1.92308 10.9635 1.92308 22.1154C1.92308 33.2674 10.9635 42.3077 22.1154 42.3077" stroke="#000025" stroke-width="3" stroke-linecap="round" stroke-linejoin="round"/>
<path d="M38.4615 34.6154V38.4615" stroke="#000025" stroke-width="2.88462" stroke-linecap="round" stroke-linejoin="round"/>
<path d="M38.4624 48.0667H32.6346C29.2976 48.0667 27.9032 45.5336 29.5188 42.4387L32.5192 36.6983L35.3465 31.3052C37.0584 28.0264 39.8664 28.0264 41.5782 31.3052L44.4055 36.7085L47.4059 42.4489C49.0216 45.5438 47.6175 48.0769 44.2901 48.0769H38.4624V48.0667Z" stroke="#000025" stroke-width="2.88462" stroke-linecap="round" stroke-linejoin="round"/>
<circle cx="38.4615" cy="42.7884" r="1.44231" fill="#000025"/>
</svg>
