<svg width="50" height="50" viewBox="0 0 50 50" fill="none" xmlns="http://www.w3.org/2000/svg">
<path d="M43.2597 25.0537C43.2597 35.8188 30.9655 43.6194 26.6904 46.0066C26.2281 46.2648 25.9969 46.3939 25.6762 46.4608C25.4263 46.5129 25.066 46.5129 24.8161 46.4608C24.4955 46.3939 24.2642 46.2648 23.8019 46.0066C19.5268 43.6194 7.23267 35.8188 7.23267 25.0537V15.9264C7.23267 13.9971 7.23267 13.0324 7.5271 12.2032C7.78719 11.4707 8.20985 10.8171 8.75855 10.2988C9.37965 9.71225 10.2225 9.37354 11.9081 8.69611L23.9812 3.84417C24.4493 3.65604 24.6833 3.56198 24.9242 3.52467C25.1376 3.49161 25.3547 3.49161 25.5682 3.52467C25.8091 3.56198 26.043 3.65604 26.5112 3.84417L38.5843 8.69611C40.2699 9.37354 41.1127 9.71225 41.7337 10.2988C42.2824 10.8171 42.7051 11.4707 42.9652 12.2032C43.2597 13.0324 43.2597 13.9971 43.2597 15.9264V25.0537Z" stroke="white" stroke-width="4.88" stroke-linecap="round" stroke-linejoin="round"/>
<path d="M29.7497 21.6269C29.7497 24.1483 27.7335 26.1922 25.2463 26.1922C22.7591 26.1922 20.7429 24.1483 20.7429 21.6269C20.7429 19.1055 22.7591 17.0615 25.2463 17.0615C27.7335 17.0615 29.7497 19.1055 29.7497 21.6269Z" stroke="white" stroke-width="4.88" stroke-linecap="round" stroke-linejoin="round"/>
<path d="M25.2461 26.1923V33.0402" stroke="white" stroke-width="4.88" stroke-linecap="round" stroke-linejoin="round"/>
<path d="M43.2597 25.0537C43.2597 35.8188 30.9655 43.6194 26.6904 46.0066C26.2281 46.2648 25.9969 46.3939 25.6762 46.4608C25.4263 46.5129 25.066 46.5129 24.8161 46.4608C24.4955 46.3939 24.2642 46.2648 23.8019 46.0066C19.5268 43.6194 7.23267 35.8188 7.23267 25.0537V15.9264C7.23267 13.9971 7.23267 13.0324 7.5271 12.2032C7.78719 11.4707 8.20985 10.8171 8.75855 10.2988C9.37965 9.71225 10.2225 9.37354 11.9081 8.69611L23.9812 3.84417C24.4493 3.65604 24.6833 3.56198 24.9242 3.52467C25.1376 3.49161 25.3547 3.49161 25.5682 3.52467C25.8091 3.56198 26.043 3.65604 26.5112 3.84417L38.5843 8.69611C40.2699 9.37354 41.1127 9.71225 41.7337 10.2988C42.2824 10.8171 42.7051 11.4707 42.9652 12.2032C43.2597 13.0324 43.2597 13.9971 43.2597 15.9264V25.0537Z" stroke="#000025" stroke-width="2.88462" stroke-linecap="round" stroke-linejoin="round"/>
<path d="M29.7497 21.6269C29.7497 24.1483 27.7335 26.1922 25.2463 26.1922C22.7591 26.1922 20.7429 24.1483 20.7429 21.6269C20.7429 19.1055 22.7591 17.0615 25.2463 17.0615C27.7335 17.0615 29.7497 19.1055 29.7497 21.6269Z" stroke="#000025" stroke-width="2.88462" stroke-linecap="round" stroke-linejoin="round"/>
<path d="M25.2461 26.1923V33.0402" stroke="#000025" stroke-width="2.88462" stroke-linecap="round" stroke-linejoin="round"/>
</svg>
