<svg width="50" height="50" viewBox="0 0 50 50" fill="none" xmlns="http://www.w3.org/2000/svg">
<path d="M43.566 14.7276L35.4278 19.6551C35.1095 19.8479 34.7104 19.8479 34.392 19.6551L25.3378 14.173C25.0194 13.9802 24.6203 13.9802 24.3019 14.173L15.2118 19.6769C14.9125 19.8581 14.7297 20.1825 14.7297 20.5323V30.5099C14.7297 30.8789 14.933 31.218 15.2585 31.3919L24.3408 36.2441C24.6395 36.4037 24.9988 36.4012 25.2953 36.2375L43.5167 26.1782C44.1832 25.8103 45 26.2907 45 27.052V36.8594C45 37.4211 32.1591 44.2029 25.295 47.7543C24.9962 47.909 24.6432 47.9007 24.3499 47.7359L5.51001 37.146C5.19498 36.969 5 36.6357 5 36.2743V14.4264C5 14.0747 5.18475 13.7488 5.48654 13.5682L24.311 2.30448C24.6247 2.11676 25.0159 2.11521 25.3311 2.30045L43.5548 13.01C44.2076 13.3937 44.2137 14.3354 43.566 14.7276Z" stroke="#000025" stroke-width="3"/>
</svg>
