<svg width="50" height="50" viewBox="0 0 50 50" fill="none" xmlns="http://www.w3.org/2000/svg">
<path d="M25 41.4857C18.4416 41.4857 13.125 36.241 13.125 29.7714M25 41.4857C31.5583 41.4857 36.875 36.241 36.875 29.7714M25 41.4857V29.7714M13.125 29.7714V24.7509C13.125 22.8816 13.125 21.9468 13.3915 21.1952C13.869 19.8493 14.9418 18.7911 16.3062 18.3201C17.068 18.0571 18.0155 18.0571 19.9107 18.0571H30.0894C31.9844 18.0571 32.932 18.0571 33.6939 18.3201C35.0584 18.7911 36.1309 19.8493 36.6085 21.1952C36.875 21.9468 36.875 22.8816 36.875 24.7509V29.7714M13.125 29.7714H6M36.875 29.7714H44M36.875 20.4L42.8125 14.5429M7.1875 45L15.5 36.8M13.125 20.4L7.1875 14.5429M42.8125 45L34.5 36.8M29.75 11.0286V8.68571C29.75 6.09786 27.6234 4 25 4C22.3766 4 20.25 6.09786 20.25 8.68571V11.0286H29.75Z" stroke="#000025" stroke-width="3" stroke-linecap="round" stroke-linejoin="round"/>
</svg>
