<svg width="50" height="50" viewBox="0 0 50 50" fill="none" xmlns="http://www.w3.org/2000/svg">
<path d="M43.5 18.5833V15.7155C43.5 13.7413 43.5 12.7542 43.1975 11.9057C42.9304 11.1562 42.4964 10.4873 41.9328 9.95708C41.295 9.35684 40.4295 9.01026 38.6983 8.31708L26.2992 3.3523C25.8184 3.1598 25.5781 3.06355 25.3307 3.02537C25.1115 2.99154 24.8885 2.99154 24.6693 3.02537C24.4219 3.06355 24.1816 3.1598 23.7008 3.3523L11.3017 8.31708C9.57054 9.01026 8.70497 9.35684 8.06709 9.95708C7.50358 10.4873 7.0695 11.1562 6.80238 11.9057C6.5 12.7542 6.5 13.7413 6.5 15.7155V25.0551C6.5 36.0705 19.1262 44.0525 23.5168 46.4953C23.9915 46.7595 24.229 46.8916 24.5583 46.96C24.815 47.0133 25.185 47.0133 25.4417 46.96C25.771 46.8916 26.0085 46.7595 26.4832 46.4953" stroke="white" stroke-width="5" stroke-linecap="round" stroke-linejoin="round"/>
<path d="M39.4768 37.9848L46 44.5M42.4878 30.7361C42.4878 36.3894 37.9014 40.9723 32.2439 40.9723C26.5863 40.9723 22 36.3894 22 30.7361C22 25.0829 26.5863 20.5 32.2439 20.5C37.9014 20.5 42.4878 25.0829 42.4878 30.7361Z" stroke="white" stroke-width="5" stroke-linecap="round" stroke-linejoin="round"/>
<path d="M43.5 18.5833V15.7155C43.5 13.7413 43.5 12.7542 43.1975 11.9057C42.9304 11.1562 42.4964 10.4873 41.9328 9.95708C41.295 9.35684 40.4295 9.01026 38.6983 8.31708L26.2992 3.3523C25.8184 3.1598 25.5781 3.06355 25.3307 3.02537C25.1115 2.99154 24.8885 2.99154 24.6693 3.02537C24.4219 3.06355 24.1816 3.1598 23.7008 3.3523L11.3017 8.31708C9.57054 9.01026 8.70497 9.35684 8.06709 9.95708C7.50358 10.4873 7.0695 11.1562 6.80238 11.9057C6.5 12.7542 6.5 13.7413 6.5 15.7155V25.0551C6.5 36.0705 19.1262 44.0525 23.5168 46.4953C23.9915 46.7595 24.229 46.8916 24.5583 46.96C24.815 47.0133 25.185 47.0133 25.4417 46.96C25.771 46.8916 26.0085 46.7595 26.4832 46.4953" stroke="#000025" stroke-width="3" stroke-linecap="round" stroke-linejoin="round"/>
<path d="M39.4768 37.9848L46 44.5M42.4878 30.7361C42.4878 36.3894 37.9014 40.9723 32.2439 40.9723C26.5863 40.9723 22 36.3894 22 30.7361C22 25.0829 26.5863 20.5 32.2439 20.5C37.9014 20.5 42.4878 25.0829 42.4878 30.7361Z" stroke="#000025" stroke-width="3" stroke-linecap="round" stroke-linejoin="round"/>
</svg>
