<svg width="50" height="50" viewBox="0 0 50 50" fill="none" xmlns="http://www.w3.org/2000/svg">
<path d="M35.2697 31.7308C37.8074 31.672 40.2313 30.6451 42.0639 28.8531C43.8967 27.0613 45.0051 24.6338 45.1706 22.0494C45.3364 19.4653 44.5472 16.9114 42.9589 14.8913C41.3706 12.8711 39.0981 11.5311 36.5897 11.1354C35.6287 8.38985 33.7525 6.07665 31.2891 4.59933C28.8258 3.12204 25.9319 2.57459 23.1131 3.05348C20.2945 3.53234 17.7305 5.00707 15.8693 7.21912C14.008 9.43117 12.968 12.2402 12.9309 15.1552C10.7765 15.1552 8.71032 16.0282 7.18692 17.5823C5.66351 19.1367 4.80769 21.2451 4.80769 23.443C4.80769 25.6411 5.66351 27.7491 7.18692 29.3033C8.71032 30.8577 10.7765 31.7308 12.9309 31.7308H35.2697Z" stroke="white" stroke-width="4.88" stroke-linecap="round" stroke-linejoin="round"/>
<rect x="4.32692" y="37.5" width="41.3462" height="9.61539" rx="0.961538" stroke="white" stroke-width="4.88"/>
<circle cx="40.8654" cy="42.3077" r="1.44231" stroke="white" stroke-width="1.88"/>
<circle cx="36.0577" cy="42.3077" r="1.44231" stroke="white" stroke-width="1.88"/>
<circle cx="25.4808" cy="18.75" r="3.36538" stroke="white" stroke-width="2.88"/>
<path d="M25.4808 19.2307V37.0192" stroke="white" stroke-width="4.88" stroke-linecap="round" stroke-linejoin="round"/>
<path d="M35.2697 31.7308C37.8074 31.672 40.2313 30.6451 42.0639 28.8531C43.8967 27.0613 45.0051 24.6338 45.1706 22.0494C45.3364 19.4653 44.5472 16.9114 42.9589 14.8913C41.3706 12.8711 39.0981 11.5311 36.5897 11.1354C35.6287 8.38985 33.7525 6.07665 31.2891 4.59933C28.8258 3.12204 25.9319 2.57459 23.1131 3.05348C20.2945 3.53234 17.7305 5.00707 15.8693 7.21912C14.008 9.43117 12.968 12.2402 12.9309 15.1552C10.7765 15.1552 8.71032 16.0282 7.18692 17.5823C5.66351 19.1367 4.80769 21.2451 4.80769 23.443C4.80769 25.6411 5.66351 27.7491 7.18692 29.3033C8.71032 30.8577 10.7765 31.7308 12.9309 31.7308H35.2697Z" stroke="#000025" stroke-width="2.88462" stroke-linecap="round" stroke-linejoin="round"/>
<rect x="4.32692" y="37.5" width="41.3462" height="9.61539" rx="0.961538" stroke="#000025" stroke-width="2.88462"/>
<circle cx="40.8654" cy="42.3077" r="1.44231" fill="#000025"/>
<circle cx="36.0577" cy="42.3077" r="1.44231" fill="#000025"/>
<circle cx="25.4808" cy="18.75" r="3.36538" fill="#000025"/>
<path d="M25.4808 19.2307V37.0192" stroke="#000025" stroke-width="2.88462" stroke-linecap="round" stroke-linejoin="round"/>
</svg>
