<svg width="50" height="50" viewBox="0 0 50 50" fill="none" xmlns="http://www.w3.org/2000/svg">
<path d="M8.44232 17.2181C8.44232 14.804 10.3994 12.8469 12.8135 12.8469H37.9479C40.362 12.8469 42.3191 14.804 42.3191 17.2181V36.8885C42.3191 39.3027 40.362 41.2597 37.9479 41.2597H28.9323C28.5758 41.2597 28.2271 41.3638 27.9289 41.5591L20.4631 46.4505C20.1128 46.6841 19.6435 46.4329 19.6435 46.0119V45.9041V41.8061C19.6435 41.5043 19.3989 41.2597 19.0971 41.2597H12.8135C10.3994 41.2597 8.44232 39.3027 8.44232 36.8885V17.2181Z" stroke="white" stroke-width="4.10132"/>
<path d="M42.3191 21.5894C42.3191 21.5894 43.7239 21.5894 45.3243 21.5894C46.6903 21.5894 47.0178 23.7531 46.9992 25.9606C46.9799 28.2591 46.9247 30.6049 45.3243 30.6049C43.7239 30.6049 42.3191 30.6049 42.3191 30.6049" stroke="white" stroke-width="4.10132"/>
<path d="M8.20563 21.5894C8.20563 21.5894 6.8008 21.5894 5.20043 21.5894C3.83443 21.5894 3.50693 23.7531 3.52547 25.9606C3.54478 28.2591 3.60006 30.6049 5.20043 30.6049C6.8008 30.6049 8.20563 30.6049 8.20563 30.6049" stroke="white" stroke-width="4.10132"/>
<path d="M17.1847 22.409C17.1847 18.5842 22.3755 18.5842 22.3755 22.409" stroke="white" stroke-width="4.10132" stroke-linecap="round"/>
<path d="M28.6591 22.409C28.6591 18.5842 33.8499 18.5842 33.8499 22.409" stroke="white" stroke-width="4.10132" stroke-linecap="round"/>
<path d="M33.5767 30.878C30.8447 33.8832 20.7363 34.4296 17.1847 30.878" stroke="white" stroke-width="4.10132" stroke-linecap="round"/>
<circle cx="17.7311" cy="5.74372" r="2.732" stroke="white" stroke-width="4.10132"/>
<circle cx="33.5767" cy="5.74372" r="2.732" stroke="white" stroke-width="4.10132"/>
<path d="M17.7311 8.47571V12.8469" stroke="white" stroke-width="4.10132" stroke-linecap="round"/>
<path d="M33.5767 8.47571V12.8469" stroke="white" stroke-width="4.10132" stroke-linecap="round"/>
<path d="M8.44232 17.2181C8.44232 14.804 10.3994 12.8469 12.8135 12.8469H37.9479C40.362 12.8469 42.3191 14.804 42.3191 17.2181V36.8885C42.3191 39.3027 40.362 41.2597 37.9479 41.2597H28.9323C28.5758 41.2597 28.2271 41.3638 27.9289 41.5591L20.4631 46.4505C20.1128 46.6841 19.6435 46.4329 19.6435 46.0119V45.9041V41.8061C19.6435 41.5043 19.3989 41.2597 19.0971 41.2597H12.8135C10.3994 41.2597 8.44232 39.3027 8.44232 36.8885V17.2181Z" stroke="#000025" stroke-width="2.1856"/>
<path d="M42.3191 21.5894C42.3191 21.5894 43.7239 21.5894 45.3243 21.5894C46.6903 21.5894 47.0178 23.7531 46.9992 25.9606C46.9799 28.2591 46.9247 30.6049 45.3243 30.6049C43.7239 30.6049 42.3191 30.6049 42.3191 30.6049" stroke="#000025" stroke-width="2.1856"/>
<path d="M8.20563 21.5894C8.20563 21.5894 6.8008 21.5894 5.20043 21.5894C3.83443 21.5894 3.50693 23.7531 3.52547 25.9606C3.54478 28.2591 3.60006 30.6049 5.20043 30.6049C6.8008 30.6049 8.20563 30.6049 8.20563 30.6049" stroke="#000025" stroke-width="2.1856"/>
<path d="M17.1847 22.409C17.1847 18.5842 22.3755 18.5842 22.3755 22.409" stroke="#000025" stroke-width="2.1856" stroke-linecap="round"/>
<path d="M28.6591 22.409C28.6591 18.5842 33.8499 18.5842 33.8499 22.409" stroke="#000025" stroke-width="2.1856" stroke-linecap="round"/>
<path d="M33.5767 30.878C30.8447 33.8832 20.7363 34.4296 17.1847 30.878" stroke="#000025" stroke-width="2.1856" stroke-linecap="round"/>
<circle cx="17.7311" cy="5.74372" r="2.732" stroke="#000025" stroke-width="2.1856"/>
<circle cx="33.5767" cy="5.74372" r="2.732" stroke="#000025" stroke-width="2.1856"/>
<path d="M17.7311 8.47571V12.8469" stroke="#000025" stroke-width="2.1856" stroke-linecap="round"/>
<path d="M33.5767 8.47571V12.8469" stroke="#000025" stroke-width="2.1856" stroke-linecap="round"/>
</svg>
