<svg width="50" height="50" viewBox="0 0 50 50" fill="none" xmlns="http://www.w3.org/2000/svg">
<path d="M6.25 25H43.75M25 16.6667V25M13.5417 25V33.3333M36.4583 25V33.3333M21.0417 16.6667H28.9583C30.1252 16.6667 30.7085 16.6667 31.1542 16.4396C31.5463 16.2399 31.8648 15.9211 32.0646 15.5291C32.2917 15.0835 32.2917 14.5001 32.2917 13.3333V9.58333C32.2917 8.41656 32.2917 7.83317 32.0646 7.38752C31.8648 6.99552 31.5463 6.67681 31.1542 6.47706C30.7085 6.25 30.1252 6.25 28.9583 6.25H21.0417C19.8749 6.25 19.2915 6.25 18.8459 6.47706C18.4539 6.67681 18.1351 6.99552 17.9354 7.38752C17.7083 7.83317 17.7083 8.41656 17.7083 9.58333V13.3333C17.7083 14.5001 17.7083 15.0835 17.9354 15.5291C18.1351 15.9211 18.4539 16.2399 18.8459 16.4396C19.2915 16.6667 19.8749 16.6667 21.0417 16.6667ZM32.5 43.75H40.4167C41.5835 43.75 42.1669 43.75 42.6125 43.5229C43.0046 43.3231 43.3231 43.0046 43.5229 42.6125C43.75 42.1669 43.75 41.5835 43.75 40.4167V36.6667C43.75 35.4998 43.75 34.9165 43.5229 34.4708C43.3231 34.0787 43.0046 33.7602 42.6125 33.5604C42.1669 33.3333 41.5835 33.3333 40.4167 33.3333H32.5C31.3331 33.3333 30.7498 33.3333 30.3042 33.5604C29.9121 33.7602 29.5935 34.0787 29.3937 34.4708C29.1667 34.9165 29.1667 35.4998 29.1667 36.6667V40.4167C29.1667 41.5835 29.1667 42.1669 29.3937 42.6125C29.5935 43.0046 29.9121 43.3231 30.3042 43.5229C30.7498 43.75 31.3331 43.75 32.5 43.75ZM9.58333 43.75H17.5C18.6668 43.75 19.2502 43.75 19.6958 43.5229C20.0878 43.3231 20.4065 43.0046 20.6063 42.6125C20.8333 42.1669 20.8333 41.5835 20.8333 40.4167V36.6667C20.8333 35.4998 20.8333 34.9165 20.6063 34.4708C20.4065 34.0787 20.0878 33.7602 19.6958 33.5604C19.2502 33.3333 18.6668 33.3333 17.5 33.3333H9.58333C8.41656 33.3333 7.83317 33.3333 7.38752 33.5604C6.99552 33.7602 6.67681 34.0787 6.47706 34.4708C6.25 34.9165 6.25 35.4998 6.25 36.6667V40.4167C6.25 41.5835 6.25 42.1669 6.47706 42.6125C6.67681 43.0046 6.99552 43.3231 7.38752 43.5229C7.83317 43.75 8.41656 43.75 9.58333 43.75Z" stroke="white" stroke-width="5" stroke-linecap="round" stroke-linejoin="round"/>
<path d="M6.25 25H43.75M25 16.6667V25M13.5417 25V33.3333M36.4583 25V33.3333M21.0417 16.6667H28.9583C30.1252 16.6667 30.7085 16.6667 31.1542 16.4396C31.5463 16.2399 31.8648 15.9211 32.0646 15.5291C32.2917 15.0835 32.2917 14.5001 32.2917 13.3333V9.58333C32.2917 8.41656 32.2917 7.83317 32.0646 7.38752C31.8648 6.99552 31.5463 6.67681 31.1542 6.47706C30.7085 6.25 30.1252 6.25 28.9583 6.25H21.0417C19.8749 6.25 19.2915 6.25 18.8459 6.47706C18.4539 6.67681 18.1351 6.99552 17.9354 7.38752C17.7083 7.83317 17.7083 8.41656 17.7083 9.58333V13.3333C17.7083 14.5001 17.7083 15.0835 17.9354 15.5291C18.1351 15.9211 18.4539 16.2399 18.8459 16.4396C19.2915 16.6667 19.8749 16.6667 21.0417 16.6667ZM32.5 43.75H40.4167C41.5835 43.75 42.1669 43.75 42.6125 43.5229C43.0046 43.3231 43.3231 43.0046 43.5229 42.6125C43.75 42.1669 43.75 41.5835 43.75 40.4167V36.6667C43.75 35.4998 43.75 34.9165 43.5229 34.4708C43.3231 34.0787 43.0046 33.7602 42.6125 33.5604C42.1669 33.3333 41.5835 33.3333 40.4167 33.3333H32.5C31.3331 33.3333 30.7498 33.3333 30.3042 33.5604C29.9121 33.7602 29.5935 34.0787 29.3937 34.4708C29.1667 34.9165 29.1667 35.4998 29.1667 36.6667V40.4167C29.1667 41.5835 29.1667 42.1669 29.3937 42.6125C29.5935 43.0046 29.9121 43.3231 30.3042 43.5229C30.7498 43.75 31.3331 43.75 32.5 43.75ZM9.58333 43.75H17.5C18.6668 43.75 19.2502 43.75 19.6958 43.5229C20.0878 43.3231 20.4065 43.0046 20.6063 42.6125C20.8333 42.1669 20.8333 41.5835 20.8333 40.4167V36.6667C20.8333 35.4998 20.8333 34.9165 20.6063 34.4708C20.4065 34.0787 20.0878 33.7602 19.6958 33.5604C19.2502 33.3333 18.6668 33.3333 17.5 33.3333H9.58333C8.41656 33.3333 7.83317 33.3333 7.38752 33.5604C6.99552 33.7602 6.67681 34.0787 6.47706 34.4708C6.25 34.9165 6.25 35.4998 6.25 36.6667V40.4167C6.25 41.5835 6.25 42.1669 6.47706 42.6125C6.67681 43.0046 6.99552 43.3231 7.38752 43.5229C7.83317 43.75 8.41656 43.75 9.58333 43.75Z" stroke="#000025" stroke-width="3" stroke-linecap="round" stroke-linejoin="round"/>
</svg>
