<svg width="50" height="50" viewBox="0 0 50 50" fill="none" xmlns="http://www.w3.org/2000/svg">
<path d="M15.625 19.7274L24.5404 14.7541C24.7081 14.6606 24.7919 14.6138 24.8807 14.5955C24.9595 14.5793 25.0405 14.5793 25.1193 14.5955C25.2081 14.6138 25.2919 14.6606 25.4596 14.7541L34.375 19.7274M15.625 19.7274V29.6431C15.625 29.8412 15.625 29.9401 15.6543 30.0285C15.6802 30.1067 15.7226 30.1785 15.7786 30.2392C15.8419 30.3079 15.9289 30.3565 16.1029 30.4535L25 35.4166M15.625 19.7274L25 24.3761M34.375 19.7274V29.6431C34.375 29.8412 34.375 29.9401 34.3457 30.0285C34.3198 30.1067 34.2774 30.1785 34.2214 30.2392C34.1581 30.3079 34.0711 30.3565 33.8971 30.4535L25 35.4166M34.375 19.7274L25 24.3761M25 35.4166V24.3761" stroke="#000025" stroke-width="3" stroke-linecap="round" stroke-linejoin="round"/>
<path d="M43.75 25.0573C43.75 36.5318 30.9531 44.8463 26.5033 47.3909C26.0221 47.6661 25.7814 47.8037 25.4477 47.875C25.1875 47.9305 24.8125 47.9305 24.5523 47.875C24.2186 47.8037 23.9779 47.6661 23.4967 47.3909C19.0468 44.8463 6.25 36.5318 6.25 25.0573V15.3286C6.25 13.2722 6.25 12.244 6.55647 11.3601C6.8272 10.5793 7.26714 9.88263 7.83827 9.33028C8.48477 8.70502 9.36203 8.344 11.1166 7.62194L23.6833 2.45029C24.1705 2.24977 24.4141 2.14951 24.6648 2.10974C24.887 2.0745 25.113 2.0745 25.3352 2.10974C25.5859 2.14951 25.8295 2.24977 26.3167 2.45029L38.8834 7.62194C40.638 8.344 41.5152 8.70502 42.1616 9.33028C42.7328 9.88263 43.1727 10.5793 43.4434 11.3601C43.75 12.244 43.75 13.2722 43.75 15.3286V25.0573Z" stroke="#000025" stroke-width="3" stroke-linecap="round" stroke-linejoin="round"/>
</svg>
