<svg width="50" height="50" viewBox="0 0 50 50" fill="none" xmlns="http://www.w3.org/2000/svg">
<path d="M44.2229 19.0772C42.9817 15.0717 40.6032 11.5133 37.3768 8.83474C34.1503 6.15621 30.215 4.47308 26.0495 3.9901C21.884 3.50713 17.6679 4.24513 13.9141 6.11433C10.1604 7.98352 7.03073 10.9033 4.90595 14.5186C2.78117 18.1338 1.75284 22.2886 1.94605 26.4776C2.13927 30.6665 3.5457 34.709 5.99426 38.1133C8.44281 41.5176 11.8279 44.137 15.7378 45.6527C19.6477 47.1684 23.9138 47.5151 28.0172 46.6508" stroke="#000025" stroke-width="2.88462" stroke-linecap="round" stroke-linejoin="round"/>
<path d="M48.2013 14.4955L44.3713 21.3255L37.0358 18.585" stroke="#000025" stroke-width="2.88462" stroke-linecap="round" stroke-linejoin="round"/>
<path d="M48.0769 36.5673C48.0769 42.3447 41.8425 46.531 39.6747 47.8122C39.4403 47.9508 39.323 48.0201 39.1604 48.0559C39.0337 48.0839 38.851 48.0839 38.7242 48.0559C38.5616 48.0201 38.4444 47.9508 38.2099 47.8122C36.042 46.531 29.8077 42.3447 29.8077 36.5673V31.669C29.8077 30.6336 29.8077 30.1159 29.957 29.6708C30.0889 29.2777 30.3032 28.9269 30.5815 28.6488C30.8964 28.334 31.3238 28.1522 32.1786 27.7887L38.3008 25.1848C38.5382 25.0838 38.6569 25.0333 38.779 25.0133C38.8873 24.9956 38.9973 24.9956 39.1056 25.0133C39.2278 25.0333 39.3464 25.0838 39.5838 25.1848L45.706 27.7887C46.5608 28.1522 46.9882 28.334 47.3031 28.6488C47.5814 28.9269 47.7957 29.2777 47.9276 29.6708C48.0769 30.1159 48.0769 30.6336 48.0769 31.669V36.5673Z" stroke="#000025" stroke-width="2.88462" stroke-linecap="round" stroke-linejoin="round"/>
<path d="M14.4231 26.9231H25V16.3461" stroke="#000025" stroke-width="2.88462" stroke-linecap="round" stroke-linejoin="round"/>
</svg>
