<svg width="50" height="50" viewBox="0 0 50 50" fill="none" xmlns="http://www.w3.org/2000/svg">
<path d="M43 19.4323C41.8263 15.6369 39.5771 12.2651 36.5261 9.727C33.475 7.18894 29.7537 5.59408 25.8147 5.13643C21.8757 4.67879 17.8888 5.37809 14.3391 7.14926C10.7895 8.92042 7.82996 11.6871 5.8207 15.1128C3.81145 18.5384 2.83903 22.4753 3.02173 26.4446C3.20445 30.4138 4.53441 34.2443 6.84984 37.47C9.16527 40.6958 12.3663 43.1778 16.0636 44.614C19.7609 46.0502 23.7951 46.3788 27.6754 45.5598" stroke="white" stroke-width="5" stroke-linecap="round" stroke-linejoin="round"/>
<path d="M47 15L43.2268 22L36 19.1913" stroke="white" stroke-width="5" stroke-linecap="round" stroke-linejoin="round"/>
<path d="M47 36.0275C47 41.5353 41.1987 45.5262 39.1815 46.7477C38.9634 46.8798 38.8543 46.9459 38.7029 46.98C38.5851 47.0067 38.415 47.0067 38.2971 46.98C38.1457 46.9459 38.0367 46.8798 37.8185 46.7477C35.8012 45.5262 30 41.5353 30 36.0275V31.3578C30 30.3707 30 29.8771 30.1389 29.4528C30.2617 29.0781 30.4611 28.7436 30.72 28.4785C31.0131 28.1784 31.4108 28.0051 32.2062 27.6585L37.9031 25.1762C38.124 25.0799 38.2344 25.0317 38.348 25.0127C38.4488 24.9958 38.5512 24.9958 38.652 25.0127C38.7657 25.0317 38.876 25.0799 39.0969 25.1762L44.7938 27.6585C45.5892 28.0051 45.9869 28.1784 46.28 28.4785C46.5389 28.7436 46.7383 29.0781 46.8611 29.4528C47 29.8771 47 30.3707 47 31.3578V36.0275Z" stroke="white" stroke-width="5" stroke-linecap="round" stroke-linejoin="round"/>
<path d="M15 27H25V17" stroke="white" stroke-width="5" stroke-linecap="round" stroke-linejoin="round"/>
<path d="M43 19.4323C41.8263 15.6369 39.5771 12.2651 36.5261 9.727C33.475 7.18894 29.7537 5.59408 25.8147 5.13643C21.8757 4.67879 17.8888 5.37809 14.3391 7.14926C10.7895 8.92042 7.82996 11.6871 5.8207 15.1128C3.81145 18.5384 2.83903 22.4753 3.02173 26.4446C3.20445 30.4138 4.53441 34.2443 6.84984 37.47C9.16527 40.6958 12.3663 43.1778 16.0636 44.614C19.7609 46.0502 23.7951 46.3788 27.6754 45.5598" stroke="#000025" stroke-width="2.88462" stroke-linecap="round" stroke-linejoin="round"/>
<path d="M47 15L43.2268 22L36 19.1913" stroke="#000025" stroke-width="2.88462" stroke-linecap="round" stroke-linejoin="round"/>
<path d="M47 36.0275C47 41.5353 41.1987 45.5262 39.1815 46.7477C38.9634 46.8798 38.8543 46.9459 38.7029 46.98C38.5851 47.0067 38.415 47.0067 38.2971 46.98C38.1457 46.9459 38.0367 46.8798 37.8185 46.7477C35.8012 45.5262 30 41.5353 30 36.0275V31.3578C30 30.3707 30 29.8771 30.1389 29.4528C30.2617 29.0781 30.4611 28.7436 30.72 28.4785C31.0131 28.1784 31.4108 28.0051 32.2062 27.6585L37.9031 25.1762C38.124 25.0799 38.2344 25.0317 38.348 25.0127C38.4488 24.9958 38.5512 24.9958 38.652 25.0127C38.7657 25.0317 38.876 25.0799 39.0969 25.1762L44.7938 27.6585C45.5892 28.0051 45.9869 28.1784 46.28 28.4785C46.5389 28.7436 46.7383 29.0781 46.8611 29.4528C47 29.8771 47 30.3707 47 31.3578V36.0275Z" stroke="#000025" stroke-width="2.88462" stroke-linecap="round" stroke-linejoin="round"/>
<path d="M15 27H25V17" stroke="#000025" stroke-width="2.88462" stroke-linecap="round" stroke-linejoin="round"/>
</svg>
