<svg width="50" height="50" viewBox="0 0 50 50" fill="none" xmlns="http://www.w3.org/2000/svg">
<rect x="2" y="37" width="46" height="11" rx="0.5" stroke="#000025" stroke-width="3"/>
<path d="M2 25V32.5C2 32.7761 2.22386 33 2.5 33H47.5C47.7761 33 48 32.7761 48 32.5V22.5C48 22.2239 47.7761 22 47.5 22H31.5" stroke="#000025" stroke-width="3" stroke-linecap="round"/>
<circle cx="43" cy="42.5" r="2" fill="#000025"/>
<circle cx="43" cy="27.5" r="2" fill="#000025"/>
<circle cx="37" cy="42.5" r="2" fill="#000025"/>
<circle cx="37" cy="27.5" r="2" fill="#000025"/>
<path d="M24.0791 24.921L24 25M24.0791 24.921L23.9206 25.0795M24.0791 24.921C25.1522 23.8478 25.1871 22.1188 24.1581 21.0032L23.121 19.8789M24 25L23.9206 25.0795M24 25L27 28M23.9206 25.0795C22.8474 26.1525 21.1189 26.1876 20.0032 25.1588L18.8783 24.1216M23.121 19.8789L18.8783 24.1216M23.121 19.8789C23.6065 19.3934 23.6065 18.6064 23.121 18.1209L13 7.99973C11.8954 6.89522 10.1045 6.89522 8.99994 7.99973L6.99995 9.99973C5.89538 11.1044 5.89538 12.8952 6.99995 13.9999L17.1216 24.1215C17.6067 24.6067 18.3932 24.6067 18.8783 24.1216M5.00003 6.00001L8.00002 9.00016M5.00003 6.00001L2 9.00016M5.00003 6.00001L8.00001 3" stroke="#000025" stroke-width="3" stroke-linecap="round" stroke-linejoin="round"/>
</svg>
