<svg width="50" height="50" viewBox="0 0 50 50" fill="none" xmlns="http://www.w3.org/2000/svg">
<path d="M46.5217 37H3.47826C3.21412 37 3 37.2035 3 37.4545V46.5455C3 46.7965 3.21412 47 3.47826 47H46.5217C46.7859 47 47 46.7965 47 46.5455V37.4545C47 37.2035 46.7859 37 46.5217 37Z" stroke="white" stroke-width="5"/>
<path d="M3 25V32.5C3 32.7761 3.21413 33 3.47826 33H46.5217C46.7858 33 47 32.7761 47 32.5V22.5C47 22.2239 46.7858 22 46.5217 22H31.2174" stroke="white" stroke-width="5" stroke-linecap="round"/>
<path d="M41.5 43.5C42.3284 43.5 43 42.8284 43 42C43 41.1716 42.3284 40.5 41.5 40.5C40.6716 40.5 40 41.1716 40 42C40 42.8284 40.6716 43.5 41.5 43.5Z" stroke="white" stroke-width="2"/>
<path d="M41.5 29C42.3284 29 43 28.3284 43 27.5C43 26.6716 42.3284 26 41.5 26C40.6716 26 40 26.6716 40 27.5C40 28.3284 40.6716 29 41.5 29Z" stroke="white" stroke-width="2"/>
<path d="M35.5 43.5C36.3284 43.5 37 42.8284 37 42C37 41.1716 36.3284 40.5 35.5 40.5C34.6716 40.5 34 41.1716 34 42C34 42.8284 34.6716 43.5 35.5 43.5Z" stroke="white" stroke-width="2"/>
<path d="M36.5 29C37.3284 29 38 28.3284 38 27.5C38 26.6716 37.3284 26 36.5 26C35.6716 26 35 26.6716 35 27.5C35 28.3284 35.6716 29 36.5 29Z" stroke="white" stroke-width="2"/>
<path d="M24.1959 25.0442L24.12 25.12M24.1959 25.0442L24.0438 25.1963M24.1959 25.0442C25.2261 24.0139 25.2596 22.354 24.2718 21.2831L23.2762 20.2037M24.12 25.12L24.0438 25.1963M24.12 25.12L27 28M24.0438 25.1963C23.0135 26.2264 21.3541 26.2601 20.2831 25.2724L19.2032 24.2767M23.2762 20.2037L19.2032 24.2767M23.2762 20.2037C23.7422 19.7377 23.7422 18.9821 23.2762 18.5161L13.56 8.79974C12.4996 7.73941 10.7803 7.73941 9.71994 8.79974L7.79995 10.7197C6.73956 11.7802 6.73956 13.4994 7.79995 14.5599L17.5167 24.2766C17.9824 24.7424 18.7375 24.7424 19.2032 24.2767M5.88003 6.88001L8.76002 9.76015M5.88003 6.88001L3 9.76015M5.88003 6.88001L8.76001 4" stroke="white" stroke-width="5" stroke-linecap="round" stroke-linejoin="round"/>
<path d="M46.5217 37H3.47826C3.21412 37 3 37.2035 3 37.4545V46.5455C3 46.7965 3.21412 47 3.47826 47H46.5217C46.7859 47 47 46.7965 47 46.5455V37.4545C47 37.2035 46.7859 37 46.5217 37Z" stroke="#000025" stroke-width="3"/>
<path d="M3 25V32.5C3 32.7761 3.21413 33 3.47826 33H46.5217C46.7858 33 47 32.7761 47 32.5V22.5C47 22.2239 46.7858 22 46.5217 22H31.2174" stroke="#000025" stroke-width="3" stroke-linecap="round"/>
<path d="M41.5 43.5C42.3284 43.5 43 42.8284 43 42C43 41.1716 42.3284 40.5 41.5 40.5C40.6716 40.5 40 41.1716 40 42C40 42.8284 40.6716 43.5 41.5 43.5Z" fill="#000025"/>
<path d="M41.5 29C42.3284 29 43 28.3284 43 27.5C43 26.6716 42.3284 26 41.5 26C40.6716 26 40 26.6716 40 27.5C40 28.3284 40.6716 29 41.5 29Z" fill="#000025"/>
<path d="M35.5 43.5C36.3284 43.5 37 42.8284 37 42C37 41.1716 36.3284 40.5 35.5 40.5C34.6716 40.5 34 41.1716 34 42C34 42.8284 34.6716 43.5 35.5 43.5Z" fill="#000025"/>
<path d="M36.5 29C37.3284 29 38 28.3284 38 27.5C38 26.6716 37.3284 26 36.5 26C35.6716 26 35 26.6716 35 27.5C35 28.3284 35.6716 29 36.5 29Z" fill="#000025"/>
<path d="M24.1959 25.0442L24.12 25.12M24.1959 25.0442L24.0438 25.1963M24.1959 25.0442C25.2261 24.0139 25.2596 22.354 24.2718 21.2831L23.2762 20.2037M24.12 25.12L24.0438 25.1963M24.12 25.12L27 28M24.0438 25.1963C23.0135 26.2264 21.3541 26.2601 20.2831 25.2724L19.2032 24.2767M23.2762 20.2037L19.2032 24.2767M23.2762 20.2037C23.7422 19.7377 23.7422 18.9821 23.2762 18.5161L13.56 8.79974C12.4996 7.73941 10.7803 7.73941 9.71994 8.79974L7.79995 10.7197C6.73956 11.7802 6.73956 13.4994 7.79995 14.5599L17.5167 24.2766C17.9824 24.7424 18.7375 24.7424 19.2032 24.2767M5.88003 6.88001L8.76002 9.76015M5.88003 6.88001L3 9.76015M5.88003 6.88001L8.76001 4" stroke="#000025" stroke-width="3" stroke-linecap="round" stroke-linejoin="round"/>
</svg>
