<svg width="50" height="50" viewBox="0 0 50 50" fill="none" xmlns="http://www.w3.org/2000/svg">
<path d="M44.2308 18.2693V15.261C44.2308 13.1902 44.2308 12.1548 43.9163 11.2648C43.6387 10.4785 43.1875 9.77696 42.6017 9.22074C41.9387 8.59111 41.0389 8.22757 39.2394 7.50045L26.3505 2.29264C25.8507 2.09071 25.601 1.98975 25.3437 1.94971C25.1159 1.91422 24.8841 1.91422 24.6562 1.94971C24.399 1.98975 24.1493 2.09071 23.6495 2.29264L10.7606 7.50045C8.96105 8.22757 8.06129 8.59111 7.39822 9.22074C6.81245 9.77696 6.36122 10.4785 6.08355 11.2648C5.76923 12.1548 5.76923 13.1902 5.76923 15.261V25.0578C5.76923 36.6124 18.8941 44.9852 23.4582 47.5475C23.9517 47.8247 24.1986 47.9632 24.5409 48.035C24.8077 48.0909 25.1923 48.0909 25.4591 48.035C25.8014 47.9632 26.0483 47.8247 26.5418 47.5475" stroke="#000025" stroke-width="2.88462" stroke-linecap="round" stroke-linejoin="round"/>
<path d="M33.1466 22.436C32.5724 23.8141 30.9622 24.4366 29.6067 23.811C27.3639 22.7759 25.037 25.1028 26.0721 27.3456C26.6978 28.7011 26.0752 30.3113 24.6971 30.8855C22.5369 31.7856 22.5369 34.846 24.6971 35.7461C26.0752 36.3203 26.6978 37.9305 26.0721 39.2859C25.037 41.5287 27.3639 43.8557 29.6067 42.8205C30.9622 42.1949 32.5724 42.8174 33.1466 44.1955C34.0467 46.3559 37.1071 46.3559 38.0072 44.1955C38.5814 42.8174 40.1917 42.1949 41.547 42.8205C43.7899 43.8557 46.1168 41.5287 45.0816 39.2859C44.456 37.9305 45.0786 36.3203 46.4566 35.7461C48.617 34.846 48.617 31.7856 46.4566 30.8855C45.0786 30.3113 44.456 28.7011 45.0816 27.3456C46.1168 25.1028 43.7899 22.7759 41.547 23.811C40.1917 24.4366 38.5814 23.8141 38.0072 22.436C37.1071 20.2757 34.0467 20.2757 33.1466 22.436Z" stroke="#000025" stroke-width="2.88462" stroke-linecap="round" stroke-linejoin="round"/>
<path d="M39.7547 33.3175C39.7547 35.6251 37.8841 37.4957 35.5765 37.4957C33.269 37.4957 31.3984 35.6251 31.3984 33.3175C31.3984 31.01 33.269 29.1394 35.5765 29.1394C37.8841 29.1394 39.7547 31.01 39.7547 33.3175Z" stroke="#000025" stroke-width="2.88462"/>
</svg>
