<svg width="50" height="50" viewBox="0 0 50 50" fill="none" xmlns="http://www.w3.org/2000/svg">
<path d="M45 25.0576C45 36.5737 31.6913 44.9185 27.0634 47.4724C26.563 47.7486 26.3127 47.8867 25.9656 47.9582C25.695 48.0139 25.305 48.0139 25.0344 47.9582C24.6873 47.8867 24.437 47.7486 23.9366 47.4724C19.3087 44.9185 6 36.5737 6 25.0576V15.2935C6 13.2296 6 12.1976 6.31873 11.3105C6.60028 10.5269 7.05783 9.82768 7.6518 9.27331C8.32416 8.64579 9.23651 8.28346 11.0612 7.55876L24.1306 2.36831C24.6374 2.16706 24.8906 2.06643 25.1514 2.02652C25.3825 1.99116 25.6175 1.99116 25.8486 2.02652C26.1094 2.06643 26.3626 2.16706 26.8694 2.36831L39.9388 7.55876C41.7635 8.28346 42.6758 8.64579 43.3481 9.27331C43.9421 9.82768 44.3996 10.5269 44.6812 11.3105C45 12.1976 45 13.2296 45 15.2935V25.0576Z" stroke="#000025" stroke-width="2.88462" stroke-linecap="round" stroke-linejoin="round"/>
<path d="M20 20V16.1429C20 13.3025 22.4624 11 25.5 11C28.5375 11 31 13.3025 31 16.1429V20" stroke="#000025" stroke-width="3" stroke-linecap="round"/>
<path d="M16 20H35V31.4545C35 32.8604 33.7848 34 32.2857 34H18.7143C17.2152 34 16 32.8604 16 31.4545V20Z" stroke="#000025" stroke-width="3" stroke-linejoin="round"/>
<circle cx="25.5" cy="26.5" r="2.5" fill="#000025"/>
</svg>
