<svg width="50" height="50" viewBox="0 0 50 50" fill="none" xmlns="http://www.w3.org/2000/svg">
<path d="M45 25.0551C45 36.0705 31.6913 44.0525 27.0634 46.4954C26.563 46.7596 26.3127 46.8916 25.9656 46.96C25.695 47.0133 25.305 47.0133 25.0344 46.96C24.6873 46.8916 24.437 46.7596 23.9366 46.4954C19.3087 44.0525 6 36.0705 6 25.0551V15.7155C6 13.7414 6 12.7542 6.31873 11.9057C6.60028 11.1562 7.05783 10.4874 7.6518 9.95708C8.32416 9.35685 9.23651 9.01027 11.0612 8.31708L24.1306 3.3523C24.6374 3.1598 24.8906 3.06354 25.1514 3.02537C25.3825 2.99154 25.6175 2.99154 25.8486 3.02537C26.1094 3.06354 26.3626 3.1598 26.8694 3.3523L39.9388 8.31708C41.7635 9.01027 42.6758 9.35685 43.3481 9.95708C43.9421 10.4874 44.3996 11.1562 44.6812 11.9057C45 12.7542 45 13.7414 45 15.7155V25.0551Z" stroke="white" stroke-width="5" stroke-linecap="round" stroke-linejoin="round"/>
<path d="M20 20V16.1429C20 13.3025 22.4624 11 25.5 11C28.5375 11 31 13.3025 31 16.1429V20" stroke="white" stroke-width="5" stroke-linecap="round"/>
<path d="M16 20H35V31.4545C35 32.8604 33.7848 34 32.2857 34H18.7143C17.2152 34 16 32.8604 16 31.4545V20Z" stroke="white" stroke-width="5" stroke-linejoin="round"/>
<path d="M25.5 29C26.8807 29 28 27.8807 28 26.5C28 25.1193 26.8807 24 25.5 24C24.1193 24 23 25.1193 23 26.5C23 27.8807 24.1193 29 25.5 29Z" stroke="white" stroke-width="2"/>
<path d="M45 25.0551C45 36.0705 31.6913 44.0525 27.0634 46.4954C26.563 46.7596 26.3127 46.8916 25.9656 46.96C25.695 47.0133 25.305 47.0133 25.0344 46.96C24.6873 46.8916 24.437 46.7596 23.9366 46.4954C19.3087 44.0525 6 36.0705 6 25.0551V15.7155C6 13.7414 6 12.7542 6.31873 11.9057C6.60028 11.1562 7.05783 10.4874 7.6518 9.95708C8.32416 9.35685 9.23651 9.01027 11.0612 8.31708L24.1306 3.3523C24.6374 3.1598 24.8906 3.06354 25.1514 3.02537C25.3825 2.99154 25.6175 2.99154 25.8486 3.02537C26.1094 3.06354 26.3626 3.1598 26.8694 3.3523L39.9388 8.31708C41.7635 9.01027 42.6758 9.35685 43.3481 9.95708C43.9421 10.4874 44.3996 11.1562 44.6812 11.9057C45 12.7542 45 13.7414 45 15.7155V25.0551Z" stroke="#000025" stroke-width="2.88462" stroke-linecap="round" stroke-linejoin="round"/>
<path d="M20 20V16.1429C20 13.3025 22.4624 11 25.5 11C28.5375 11 31 13.3025 31 16.1429V20" stroke="#000025" stroke-width="3" stroke-linecap="round"/>
<path d="M16 20H35V31.4545C35 32.8604 33.7848 34 32.2857 34H18.7143C17.2152 34 16 32.8604 16 31.4545V20Z" stroke="#000025" stroke-width="3" stroke-linejoin="round"/>
<path d="M25.5 29C26.8807 29 28 27.8807 28 26.5C28 25.1193 26.8807 24 25.5 24C24.1193 24 23 25.1193 23 26.5C23 27.8807 24.1193 29 25.5 29Z" fill="#000025"/>
</svg>
