<svg width="50" height="50" viewBox="0 0 50 50" fill="none" xmlns="http://www.w3.org/2000/svg">
<path d="M43.2692 25.0554C43.2692 36.1286 30.8005 44.1524 26.4647 46.6081C25.9959 46.8737 25.7614 47.0064 25.4362 47.0752C25.1827 47.1288 24.8173 47.1288 24.5638 47.0752C24.2386 47.0064 24.0041 46.8737 23.5353 46.6081C19.1994 44.1524 6.73077 36.1286 6.73077 25.0554V15.6668C6.73077 13.6823 6.73077 12.69 7.02938 11.8371C7.29317 11.0836 7.72183 10.4113 8.27831 9.87822C8.90823 9.27482 9.76301 8.92643 11.4725 8.22961L23.717 3.23879C24.1918 3.04528 24.4291 2.94852 24.6734 2.91015C24.8899 2.87614 25.1101 2.87614 25.3266 2.91015C25.5709 2.94852 25.8082 3.04528 26.283 3.23879L38.5275 8.22961C40.237 8.92643 41.0918 9.27482 41.7216 9.87822C42.2781 10.4113 42.7068 11.0836 42.9705 11.8371C43.2692 12.69 43.2692 13.6823 43.2692 15.6668V25.0554Z" stroke="#000025" stroke-width="2.88462" stroke-linecap="round" stroke-linejoin="round"/>
<path d="M32.6923 24.5192C32.6923 28.9423 31.8376 35.5769 25 35.5769C24.0575 35.5769 23.2286 35.4593 22.5 35.2436M17.3077 24.5192C17.3077 20.5385 17.3077 13.4615 25 13.4615C27.1688 13.4615 28.7282 14.0528 29.8488 15" stroke="#000025" stroke-width="3" stroke-linecap="round" stroke-linejoin="round"/>
<path fill-rule="evenodd" clip-rule="evenodd" d="M36.6027 15.3322C37.1627 15.8987 37.1574 16.8119 36.5909 17.3719L21.0274 32.7565C20.4655 33.312 19.5613 33.312 18.9995 32.7565L11.486 25.3295C10.9195 24.7695 10.9143 23.8563 11.4743 23.2898C12.0342 22.7233 12.9475 22.718 13.514 23.278L20.0134 29.7027L34.563 15.3204C35.1295 14.7604 36.0427 14.7657 36.6027 15.3322Z" fill="#000025"/>
</svg>
