<svg width="27" height="27" viewBox="0 0 27 27" fill="none" xmlns="http://www.w3.org/2000/svg">
<path d="M25.2908 15.102C25.3904 13.5966 24.9161 12.1088 23.9614 10.9319C23.0067 9.75501 21.6408 8.97434 20.1331 8.74381C19.5555 7.14435 18.4277 5.79675 16.9471 4.93611C15.4664 4.07548 13.727 3.75655 12.0328 4.03553C10.3386 4.31451 8.79746 5.17364 7.67873 6.46232C6.56 7.751 5.93487 9.38749 5.91258 11.0857C4.61763 11.0857 3.37574 11.5942 2.46007 12.4996C1.5444 13.4052 1.03 14.6335 1.03 15.9139C1.03 17.1945 1.5444 18.4225 2.46007 19.3279C3.37574 20.2335 4.61763 20.7421 5.91258 20.7421H12.6261" stroke="#005BFF" stroke-width="1.5" stroke-linecap="round" stroke-linejoin="round"/>
<path d="M17.5569 17.8817V16.3323C17.5569 15.1914 18.4819 14.2665 19.6228 14.2665C20.7637 14.2665 21.6887 15.1914 21.6887 16.3323V17.8817" stroke="#005BFF" stroke-width="1.5" stroke-linecap="round"/>
<path d="M16.0074 17.8817H23.2379V22.5299C23.2379 23.1004 22.7754 23.5628 22.205 23.5628H17.0403C16.4698 23.5628 16.0074 23.1004 16.0074 22.5299V17.8817Z" stroke="#005BFF" stroke-width="1.5" stroke-linejoin="round"/>
<path d="M19.6279 20.7223H19.6228V20.7273H19.6279V20.7223Z" stroke="#005BFF" stroke-width="2" stroke-linejoin="round"/>
</svg>
