<svg width="27" height="27" viewBox="0 0 27 27" fill="none" xmlns="http://www.w3.org/2000/svg">
<ellipse cx="8.99701" cy="23.7167" rx="1.73331" ry="1.73332" fill="white" stroke="#005BFF" stroke-width="1.5"/>
<ellipse cx="17.6636" cy="3.78364" rx="1.73331" ry="1.73332" transform="rotate(180 17.6636 3.78364)" fill="white" stroke="#005BFF" stroke-width="1.5"/>
<path d="M16.9465 17.6304C17.7676 17.6119 18.5519 17.2899 19.1449 16.7279C19.7379 16.1659 20.0966 15.4046 20.1501 14.5941C20.2037 13.7837 19.9484 12.9828 19.4345 12.3492C18.9205 11.7157 18.1852 11.2954 17.3736 11.1713C17.0626 10.3103 16.4555 9.58481 15.6585 9.1215C14.8614 8.65819 13.925 8.4865 13.0129 8.63669C12.1009 8.78687 11.2713 9.24937 10.669 9.94311C10.0668 10.6368 9.73027 11.5178 9.71827 12.432C9.02117 12.432 8.35262 12.7058 7.85969 13.1932C7.36676 13.6807 7.08984 14.3419 7.08984 15.0312C7.08984 15.7206 7.36676 16.3817 7.85969 16.8691C8.35262 17.3566 9.02117 17.6304 9.71827 17.6304H16.9465Z" stroke="#005BFF" stroke-width="1.5" stroke-linecap="round" stroke-linejoin="round"/>
<path d="M15.8541 2.96297C13.6841 2.51913 11.4293 2.77288 9.41217 3.68793C7.39508 4.60298 5.71903 6.13246 4.62371 8.05762C3.52839 9.98278 3.06993 12.205 3.31388 14.4065C3.55783 16.6079 4.49171 18.6759 5.98195 20.3145" stroke="#005BFF" stroke-width="1.5" stroke-linecap="round" stroke-linejoin="round"/>
<path d="M11.0584 23.9156C13.3083 24.4834 15.6801 24.3252 17.8346 23.4635C19.9891 22.6019 21.8159 21.081 23.0539 19.1184C24.2918 17.1558 24.8774 14.852 24.7268 12.5364C24.5763 10.2209 23.6974 8.01229 22.2158 6.22646" stroke="#005BFF" stroke-width="1.5" stroke-linecap="round" stroke-linejoin="round"/>
</svg>
