<svg width="27" height="27" viewBox="0 0 27 27" fill="none" xmlns="http://www.w3.org/2000/svg">
<path d="M22.745 13.7779C22.745 19.3758 16.352 23.4321 14.129 24.6735C13.8886 24.8077 13.7684 24.8749 13.6016 24.9096C13.4717 24.9367 13.2843 24.9367 13.1544 24.9096C12.9876 24.8749 12.8674 24.8077 12.627 24.6735C10.4039 23.4321 4.01099 19.3758 4.01099 13.7779V9.03172C4.01099 8.02849 4.01099 7.52687 4.16409 7.09568C4.29934 6.71476 4.51912 6.37488 4.80444 6.10541C5.12742 5.80038 5.56568 5.62425 6.4422 5.27199L12.7202 2.74898C12.9636 2.65115 13.0853 2.60224 13.2106 2.58284C13.3216 2.56565 13.4344 2.56565 13.5454 2.58284C13.6707 2.60224 13.7924 2.65115 14.0358 2.74898L20.3138 5.27199C21.1903 5.62425 21.6286 5.80038 21.9515 6.10541C22.2369 6.37488 22.4566 6.71476 22.5919 7.09568C22.745 7.52687 22.745 8.02849 22.745 9.03172V13.7779Z" stroke="#005BFF" stroke-width="1.5" stroke-linecap="round" stroke-linejoin="round"/>
<path d="M15.7198 11.996C15.7198 13.3071 14.6714 14.37 13.3781 14.37C12.0847 14.37 11.0363 13.3071 11.0363 11.996C11.0363 10.6849 12.0847 9.62201 13.3781 9.62201C14.6714 9.62201 15.7198 10.6849 15.7198 11.996Z" stroke="#005BFF" stroke-width="1.5" stroke-linecap="round" stroke-linejoin="round"/>
<path d="M13.378 14.37V17.9309" stroke="#005BFF" stroke-width="1.5" stroke-linecap="round" stroke-linejoin="round"/>
</svg>
