<svg width="27" height="27" viewBox="0 0 27 27" fill="none" xmlns="http://www.w3.org/2000/svg">
<path d="M5.74996 19.75V12.7923C5.74996 12.0277 5.90035 11.2936 6.17673 10.6116M20.75 19.75V14.9731M9.08329 7.35171C10.275 6.65585 11.7081 6.25002 13.25 6.25002C16.6692 6.25002 19.554 8.24595 20.4569 10.975" stroke="#005BFF" stroke-width="1.5" stroke-linecap="round" stroke-linejoin="round"/>
<path d="M10.25 21.25V17.9853M16.25 21.25V13.5294C16.25 11.9944 14.9069 10.75 13.25 10.75C11.5931 10.75 10.25 11.9944 10.25 13.5294V14.7207" stroke="#005BFF" stroke-width="1.5" stroke-linecap="round" stroke-linejoin="round"/>
<path d="M5.27667 1.79H1.29V5.77667" stroke="#005BFF" stroke-width="1.5" stroke-linecap="round" stroke-linejoin="round"/>
<path d="M21.2233 1.79001H25.21V5.77667" stroke="#005BFF" stroke-width="1.5" stroke-linecap="round" stroke-linejoin="round"/>
<path d="M5.27668 25.71H1.29001V21.7233" stroke="#005BFF" stroke-width="1.5" stroke-linecap="round" stroke-linejoin="round"/>
<path d="M21.2233 25.71H25.21V21.7233" stroke="#005BFF" stroke-width="1.5" stroke-linecap="round" stroke-linejoin="round"/>
</svg>
