<svg width="52" height="52" viewBox="0 0 52 52" fill="none" xmlns="http://www.w3.org/2000/svg">
<path d="M11 38V24.0845C11 22.5554 11.3008 21.0872 11.8535 19.7231M41 38V28.4462M17.6667 13.2034C20.0501 11.8116 22.9163 11 26 11C32.8385 11 38.6081 14.9919 40.4138 20.45" stroke="#005BFF" stroke-width="3" stroke-linecap="round" stroke-linejoin="round"/>
<path d="M20 41V34.4705M32 41V25.5587C32 22.4888 29.3138 20 26 20C22.6862 20 20 22.4888 20 25.5587V27.9413" stroke="#005BFF" stroke-width="3" stroke-linecap="round" stroke-linejoin="round"/>
<path d="M10.0534 2.07996H2.08008V10.0533" stroke="#005BFF" stroke-width="3" stroke-linecap="round" stroke-linejoin="round"/>
<path d="M41.9468 2.07996H49.9201V10.0533" stroke="#005BFF" stroke-width="3" stroke-linecap="round" stroke-linejoin="round"/>
<path d="M10.0534 49.92H2.08008V41.9467" stroke="#005BFF" stroke-width="3" stroke-linecap="round" stroke-linejoin="round"/>
<path d="M41.9468 49.92H49.9201V41.9467" stroke="#005BFF" stroke-width="3" stroke-linecap="round" stroke-linejoin="round"/>
</svg>
