<svg width="50" height="50" viewBox="0 0 50 50" fill="none" xmlns="http://www.w3.org/2000/svg">
<g clip-path="url(#clip0_349_203)">
<path d="M17.7778 13.5555H26.2222C28.5541 13.5555 30.4444 15.4459 30.4444 17.7778C30.4444 20.1097 28.5541 22 26.2222 22M17.7778 13.5555V22M17.7778 13.5555H14.6111M17.7778 13.5555V10.3889M26.2222 22H17.7778M26.2222 22C28.5541 22 30.4444 23.8903 30.4444 26.2222C30.4444 28.5542 28.5541 30.4445 26.2222 30.4445H17.7778M17.7778 22V30.4445M17.7778 30.4445H14.6111M17.7778 30.4445V33.6111M24.1111 13.5555V10.3889M24.1111 33.6111V30.4445M41 22C41 11.5066 32.4935 3 22 3C11.5066 3 3 11.5066 3 22C3 32.4935 11.5066 41 22 41" stroke="white" stroke-width="5" stroke-linecap="round" stroke-linejoin="round"/>
<path d="M38.4423 35V38.8461" stroke="white" stroke-width="5" stroke-linecap="round" stroke-linejoin="round"/>
<path d="M38.0008 46.9905H32.546C29.4225 46.9905 28.1174 44.6195 29.6296 41.7227L32.438 36.3496L35.0843 31.3017C36.6867 28.2328 39.3149 28.2328 40.9172 31.3017L43.5635 36.3592L46.3719 41.7322C47.8842 44.629 46.57 47 43.4555 47H38.0008V46.9905Z" stroke="white" stroke-width="5" stroke-linecap="round" stroke-linejoin="round"/>
<path d="M38.4423 44.6153C39.2389 44.6153 39.8846 43.9695 39.8846 43.173C39.8846 42.3764 39.2389 41.7307 38.4423 41.7307C37.6457 41.7307 37 42.3764 37 43.173C37 43.9695 37.6457 44.6153 38.4423 44.6153Z" stroke="white"/>
</g>
<path d="M17.7778 13.5555H26.2222C28.5541 13.5555 30.4444 15.4459 30.4444 17.7778C30.4444 20.1097 28.5541 22 26.2222 22M17.7778 13.5555V22M17.7778 13.5555H14.6111M17.7778 13.5555V10.3889M26.2222 22H17.7778M26.2222 22C28.5541 22 30.4444 23.8903 30.4444 26.2222C30.4444 28.5542 28.5541 30.4445 26.2222 30.4445H17.7778M17.7778 22V30.4445M17.7778 30.4445H14.6111M17.7778 30.4445V33.6111M24.1111 13.5555V10.3889M24.1111 33.6111V30.4445M41 22C41 11.5066 32.4935 3 22 3C11.5066 3 3 11.5066 3 22C3 32.4935 11.5066 41 22 41" stroke="#000025" stroke-width="3" stroke-linecap="round" stroke-linejoin="round"/>
<path d="M38.4423 35V38.8461" stroke="#000025" stroke-width="2.88462" stroke-linecap="round" stroke-linejoin="round"/>
<path d="M38.0008 46.9905H32.546C29.4225 46.9905 28.1174 44.6195 29.6296 41.7227L32.438 36.3496L35.0843 31.3017C36.6867 28.2328 39.3149 28.2328 40.9172 31.3017L43.5635 36.3592L46.3719 41.7322C47.8842 44.629 46.57 47 43.4555 47H38.0008V46.9905Z" stroke="#000025" stroke-width="2.88462" stroke-linecap="round" stroke-linejoin="round"/>
<path d="M38.4423 44.6153C39.2389 44.6153 39.8846 43.9695 39.8846 43.173C39.8846 42.3764 39.2389 41.7307 38.4423 41.7307C37.6457 41.7307 37 42.3764 37 43.173C37 43.9695 37.6457 44.6153 38.4423 44.6153Z" fill="#000025"/>
<defs>
<clipPath id="clip0_349_203">
<rect width="50" height="50" fill="white"/>
</clipPath>
</defs>
</svg>
