<svg width="50" height="50" viewBox="0 0 50 50" fill="none" xmlns="http://www.w3.org/2000/svg">
<path d="M28.2811 46.3328H41M38.5869 37.9481V46.3328H13.1471C10.8567 46.3328 8.99994 44.476 8.99994 42.1856C8.99994 39.8952 10.8567 38.0385 13.1471 38.0385H37.5741C39.4618 38.0385 40.9928 36.5118 40.9999 34.6259" stroke="white" stroke-width="4.62813" stroke-miterlimit="10" stroke-linecap="round" stroke-linejoin="round"/>
<path d="M41 34.2563V7.09313C41 5.20103 39.4661 3.66724 37.5741 3.66724H13.1493C10.8576 3.66724 8.99988 5.524 8.99988 7.81438V42.1738" stroke="white" stroke-width="4.62813" stroke-miterlimit="10" stroke-linecap="round" stroke-linejoin="round"/>
<path d="M30.8624 13.1383C29.1217 13.1383 27.5472 12.4277 26.4128 11.2807C25.6393 10.4984 24.3608 10.4984 23.5872 11.2807C22.4528 12.4277 20.8783 13.1383 19.1377 13.1383H19.116C17.993 13.1345 17.0743 14.0281 17.0743 15.1511V23.2252C17.0743 24.4323 17.4112 25.6154 18.0469 26.6415C18.6826 27.6676 19.5921 28.4959 20.6729 29.0333L25 31.1849L29.3271 29.0332C30.4079 28.4958 31.3174 27.6675 31.9531 26.6414C32.5888 25.6153 32.9257 24.4322 32.9257 23.2251V15.151C32.9257 14.0281 32.0071 13.1344 30.8841 13.1382L30.8624 13.1383Z" stroke="white" stroke-width="4.62813" stroke-miterlimit="10" stroke-linecap="round" stroke-linejoin="round"/>
<path d="M28.2811 46.3328H41M38.5869 37.9481V46.3328H13.1471C10.8567 46.3328 8.99994 44.476 8.99994 42.1856C8.99994 39.8952 10.8567 38.0385 13.1471 38.0385H37.5741C39.4618 38.0385 40.9928 36.5118 40.9999 34.6259" stroke="#000025" stroke-width="2.77688" stroke-miterlimit="10" stroke-linecap="round" stroke-linejoin="round"/>
<path d="M41 34.2563V7.09313C41 5.20103 39.4661 3.66724 37.5741 3.66724H13.1493C10.8576 3.66724 8.99988 5.524 8.99988 7.81438V42.1738" stroke="#000025" stroke-width="2.77688" stroke-miterlimit="10" stroke-linecap="round" stroke-linejoin="round"/>
<path d="M30.8624 13.1383C29.1217 13.1383 27.5472 12.4277 26.4128 11.2807C25.6393 10.4984 24.3608 10.4984 23.5872 11.2807C22.4528 12.4277 20.8783 13.1383 19.1377 13.1383H19.116C17.993 13.1345 17.0743 14.0281 17.0743 15.1511V23.2252C17.0743 24.4323 17.4112 25.6154 18.0469 26.6415C18.6826 27.6676 19.5921 28.4959 20.6729 29.0333L25 31.1849L29.3271 29.0332C30.4079 28.4958 31.3174 27.6675 31.9531 26.6414C32.5888 25.6153 32.9257 24.4322 32.9257 23.2251V15.151C32.9257 14.0281 32.0071 13.1344 30.8841 13.1382L30.8624 13.1383Z" stroke="#000025" stroke-width="2.77688" stroke-miterlimit="10" stroke-linecap="round" stroke-linejoin="round"/>
</svg>
